<?xml version="1.0" standalone="no"?>
<!DOCTYPE svg PUBLIC "-//W3C//DTD SVG 1.1//EN" "http://www.w3.org/Graphics/SVG/1.1/DTD/svg11.dtd" >
<svg xmlns="http://www.w3.org/2000/svg" xmlns:xlink="http://www.w3.org/1999/xlink" version="1.1">
<metadata>
Created by FontForge 20190801 at Sun Feb 21 13:31:04 2010
 By Jimmy Wärting
Copyright (c) 2009 by Hannes von Dhren. All rights reserved.
</metadata>
<defs>
<font id="BrandonGrotesque-Thin" horiz-adv-x="491" >
  <font-face 
    font-family="Brandon Grotesque Thin"
    font-weight="300"
    font-stretch="normal"
    units-per-em="1000"
    panose-1="2 11 4 3 2 2 3 6 2 2"
    ascent="700"
    descent="-300"
    x-height="400"
    cap-height="700"
    bbox="-156.25 -318.75 1036 1025.82"
    underline-thickness="50"
    underline-position="-100"
    stemh="18"
    stemv="18"
    unicode-range="U+0020-FB02"
  />
<missing-glyph horiz-adv-x="599" 
d="M50 30v640c0 21 9 30 30 30h439c21 0 30 -9 30 -30v-640c0 -21 -9 -30 -30 -30h-439c-21 0 -30 9 -30 30zM262 314c0 -7 7 -12 14 -12h36c9 0 15 4 15 13v26c0 48 105 63 105 150c0 65 -54 111 -125 111c-87 0 -130 -61 -130 -61c-4 -6 -6 -13 0 -18l22 -22
c6 -4 11 -4 17 0c13 12 36 41 84 41c40 0 61 -25 61 -52c0 -63 -99 -72 -99 -147v-29zM245 156c0 -26 22 -48 48 -48c27 0 49 22 49 48s-22 48 -49 48c-26 0 -48 -22 -48 -48z" />
    <glyph glyph-name="fi" unicode="fi" horiz-adv-x="509" 
d="M104 7v375h-70c-4 0 -7 3 -7 7v4c0 4 3 7 7 7h70v126c0 120 79 184 165 184c79 0 128 -42 144 -60c2 -2 1 -5 -1 -7l-6 -6c-2 -2 -5 -2 -7 0c-14 14 -56 56 -130 56c-76 0 -148 -59 -148 -167v-126h300c4 0 7 -3 7 -7v-386c0 -4 -3 -7 -7 -7h-4c-4 0 -7 3 -7 7v375h-289
v-375c0 -4 -3 -7 -7 -7h-3c-4 0 -7 3 -7 7z" />
    <glyph glyph-name="fl" unicode="fl" horiz-adv-x="516" 
d="M104 7v375h-70c-4 0 -7 3 -7 7v4c0 4 3 7 7 7h70v136c0 120 79 174 165 174c72 0 123 -33 148 -56v39c0 4 3 7 7 7h4c4 0 7 -3 7 -7v-686c0 -4 -3 -7 -7 -7h-4c-4 0 -7 3 -7 7v623c-20 19 -70 62 -148 62c-76 0 -148 -48 -148 -156v-136h191c4 0 7 -3 7 -7v-4
c0 -4 -3 -7 -7 -7h-191v-375c0 -4 -3 -7 -7 -7h-4c-4 0 -6 3 -6 7z" />
    <glyph glyph-name="f_f" unicode="ff" horiz-adv-x="567" 
d="M99 7v375h-60c-4 0 -7 3 -7 7v4c0 4 3 7 7 7h60v114c0 130 71 186 165 186c67 0 109 -34 128 -52c26 42 68 62 122 62c56 0 95 -25 114 -43c3 -3 3 -7 0 -10l-3 -3c-3 -3 -7 -3 -10 0c-17 16 -50 38 -101 38c-79 0 -131 -50 -131 -158v-134h181c4 0 7 -3 7 -7v-4
c0 -4 -3 -7 -7 -7h-181v-375c0 -4 -3 -7 -7 -7h-4c-4 0 -7 3 -7 7v375h-248v-375c0 -4 -3 -7 -7 -7h-4c-4 0 -7 3 -7 7zM117 400h248v134c0 39 6 71 18 97c-17 19 -64 51 -119 51c-84 0 -147 -50 -147 -168v-114z" />
    <glyph glyph-name="f_f_i" unicode="ffi" horiz-adv-x="771" 
d="M99 7v375h-60c-4 0 -7 3 -7 7v4c0 4 3 7 7 7h60v114c0 130 75 186 162 186c74 0 120 -39 139 -57c31 44 79 67 131 67c79 0 128 -42 144 -60c2 -2 1 -5 -1 -7l-6 -6c-2 -2 -5 -2 -7 0c-14 14 -56 56 -130 56c-76 0 -148 -59 -148 -167v-126h300c4 0 7 -3 7 -7v-386
c0 -4 -3 -7 -7 -7h-4c-4 0 -7 3 -7 7v375h-289v-375c0 -4 -3 -7 -7 -7h-3c-4 0 -7 3 -7 7v375h-249v-375c0 -4 -3 -7 -7 -7h-4c-4 0 -7 3 -7 7zM117 400h249v126c0 40 9 73 24 101c-17 19 -67 55 -129 55c-77 0 -144 -50 -144 -168v-114z" />
    <glyph glyph-name="f_f_l" unicode="ffl" horiz-adv-x="777" 
d="M99 7v375h-60c-4 0 -7 3 -7 7v4c0 4 3 7 7 7h60v114c0 130 71 186 165 186c66 0 111 -37 131 -55c31 44 81 65 135 65c72 0 123 -33 148 -56v39c0 4 3 7 7 7h4c4 0 7 -3 7 -7v-686c0 -4 -3 -7 -7 -7h-4c-4 0 -7 3 -7 7v623c-20 19 -70 62 -148 62
c-76 0 -148 -48 -148 -156v-136h182c4 0 7 -3 7 -7v-4c0 -4 -3 -7 -7 -7h-182v-375c0 -4 -3 -7 -7 -7h-3c-4 0 -7 3 -7 7v375h-248v-375c0 -4 -3 -7 -7 -7h-4c-4 0 -7 3 -7 7zM117 400h248v136c0 37 7 67 20 92c-18 20 -68 54 -121 54c-84 0 -147 -50 -147 -168v-114z" />
    <glyph glyph-name="f_f_j" unicode="ffj" horiz-adv-x="771" 
d="M99 7v375h-60c-4 0 -7 3 -7 7v4c0 4 3 7 7 7h60v114c0 130 75 186 162 186c74 0 120 -39 139 -57c31 44 79 67 131 67c79 0 128 -42 144 -60c2 -2 1 -5 -1 -7l-6 -6c-2 -2 -5 -2 -7 0c-14 14 -56 56 -130 56c-76 0 -148 -59 -148 -167v-126h300c4 0 7 -3 7 -7v-527
c0 -120 -49 -176 -140 -176c-55 0 -95 25 -113 43c-3 3 -3 7 0 10l3 3c3 3 6 3 9 0c17 -16 50 -38 101 -38c79 0 122 50 122 158v516h-289v-375c0 -4 -3 -7 -7 -7h-3c-4 0 -7 3 -7 7v375h-249v-375c0 -4 -3 -7 -7 -7h-4c-4 0 -7 3 -7 7zM117 400h249v126c0 40 9 73 24 101
c-17 19 -67 55 -129 55c-77 0 -144 -50 -144 -168v-114z" />
    <glyph glyph-name="f_j" unicode="fj" horiz-adv-x="509" 
d="M104 7v375h-70c-4 0 -7 3 -7 7v4c0 4 3 7 7 7h70v126c0 120 79 184 165 184c79 0 128 -42 144 -60c2 -2 1 -5 -1 -7l-6 -6c-2 -2 -5 -2 -7 0c-14 14 -56 56 -130 56c-76 0 -148 -59 -148 -167v-126h300c4 0 7 -3 7 -7v-527c0 -120 -49 -176 -140 -176
c-55 0 -95 25 -113 43c-3 3 -3 7 0 10l3 3c3 3 6 3 9 0c17 -16 50 -38 101 -38c79 0 122 50 122 158v516h-289v-375c0 -4 -3 -7 -7 -7h-3c-4 0 -7 3 -7 7z" />
    <glyph glyph-name="f_f_k" unicode="ffk" horiz-adv-x="1009" 
d="M99 7v375h-60c-4 0 -7 3 -7 7v4c0 4 3 7 7 7h60v114c0 130 71 186 165 186c66 0 111 -37 131 -55c31 44 81 65 135 65c72 0 123 -33 148 -56v39c0 4 3 7 7 7h4c4 0 7 -3 7 -7v-462l261 176c3 2 6 2 8 -1l4 -7c2 -3 1 -6 -2 -8l-252 -169l270 -215c1 -1 5 -3 2 -8l-6 -7
c-2 -3 -4 -3 -7 -1l-278 223v-207c0 -4 -3 -7 -7 -7h-4c-4 0 -7 3 -7 7v623c-20 19 -70 62 -148 62c-76 0 -148 -48 -148 -156v-136h182c4 0 7 -3 7 -7v-4c0 -4 -3 -7 -7 -7h-182v-375c0 -4 -3 -7 -7 -7h-3c-4 0 -7 3 -7 7v375h-248v-375c0 -4 -3 -7 -7 -7h-4
c-4 0 -7 3 -7 7zM117 400h248v136c0 37 7 67 20 92c-18 20 -68 54 -121 54c-84 0 -147 -50 -147 -168v-114z" />
    <glyph glyph-name="f_k" unicode="fk" horiz-adv-x="748" 
d="M104 7v375h-70c-4 0 -7 3 -7 7v4c0 4 3 7 7 7h70v136c0 120 79 174 165 174c72 0 123 -33 148 -56v39c0 4 3 7 7 7h4c4 0 7 -3 7 -7v-462l261 176c3 2 6 2 8 -1l4 -7c2 -3 1 -6 -2 -8l-252 -169l270 -215c1 -1 5 -3 2 -8l-6 -7c-2 -3 -4 -3 -7 -1l-278 223v-207
c0 -4 -3 -7 -7 -7h-4c-4 0 -7 3 -7 7v623c-20 19 -70 62 -148 62c-76 0 -148 -48 -148 -156v-136h191c4 0 7 -3 7 -7v-4c0 -4 -3 -7 -7 -7h-191v-375c0 -4 -3 -7 -7 -7h-4c-4 0 -6 3 -6 7z" />
    <glyph glyph-name="f_b" unicode="fb" horiz-adv-x="827" 
d="M104 7v375h-70c-4 0 -7 3 -7 7v4c0 4 3 7 7 7h70v136c0 120 79 174 165 174c72 0 123 -33 148 -56v39c0 4 3 7 6 7h4c4 0 7 -3 7 -7v-336s54 53 140 53c117 0 201 -89 201 -209c0 -118 -82 -211 -187 -211c-79 0 -130 38 -154 65v-48c0 -4 -3 -7 -7 -7h-4c-3 0 -6 3 -6 7
v623c-20 19 -70 62 -148 62c-76 0 -148 -48 -148 -156v-136h191c4 0 7 -3 7 -7v-4c0 -4 -3 -7 -7 -7h-191v-375c0 -4 -3 -7 -7 -7h-4c-4 0 -6 3 -6 7zM434 83c4 -7 53 -75 154 -75c95 0 170 85 170 193c0 110 -77 191 -184 191c-90 0 -140 -61 -140 -61v-248z" />
    <glyph glyph-name="f_h" unicode="fh" horiz-adv-x="832" 
d="M104 7v375h-70c-4 0 -7 3 -7 7v4c0 4 3 7 7 7h70v136c0 120 79 174 165 174c72 0 123 -33 148 -56v39c0 4 3 7 7 7h4c4 0 7 -3 7 -7v-358c25 27 78 75 156 75c108 0 166 -65 166 -186v-217c0 -4 -3 -7 -7 -7h-4c-4 0 -7 3 -7 7v217c0 109 -52 168 -148 168
c-89 0 -148 -74 -156 -85v-300c0 -4 -3 -7 -7 -7h-4c-4 0 -7 3 -7 7v623c-20 19 -70 62 -148 62c-76 0 -148 -48 -148 -156v-136h191c4 0 7 -3 7 -7v-4c0 -4 -3 -7 -7 -7h-191v-375c0 -4 -3 -7 -7 -7h-4c-4 0 -6 3 -6 7z" />
    <glyph glyph-name="f_f_h" unicode="ffh" horiz-adv-x="1093" 
d="M99 7v375h-60c-4 0 -7 3 -7 7v4c0 4 3 7 7 7h60v114c0 130 71 186 165 186c66 0 111 -37 131 -55c31 44 81 65 135 65c72 0 123 -33 148 -56v39c0 4 3 7 7 7h4c4 0 7 -3 7 -7v-358c25 27 78 75 156 75c108 0 166 -65 166 -186v-217c0 -4 -3 -7 -7 -7h-4c-4 0 -7 3 -7 7
v217c0 109 -52 168 -148 168c-89 0 -148 -74 -156 -85v-300c0 -4 -3 -7 -7 -7h-4c-4 0 -7 3 -7 7v623c-20 19 -70 62 -148 62c-76 0 -148 -48 -148 -156v-136h182c4 0 7 -3 7 -7v-4c0 -4 -3 -7 -7 -7h-182v-375c0 -4 -3 -7 -7 -7h-3c-4 0 -7 3 -7 7v375h-248v-375
c0 -4 -3 -7 -7 -7h-4c-4 0 -7 3 -7 7zM117 400h248v136c0 37 7 67 20 92c-18 20 -68 54 -121 54c-84 0 -147 -50 -147 -168v-114z" />
    <glyph glyph-name="f_f_b" unicode="ffb" horiz-adv-x="1088" 
d="M99 7v375h-60c-4 0 -7 3 -7 7v4c0 4 3 7 7 7h60v114c0 130 71 186 165 186c66 0 111 -37 131 -55c31 44 81 65 135 65c72 0 123 -33 148 -56v39c0 4 3 7 6 7h4c4 0 7 -3 7 -7v-336s54 53 140 53c117 0 201 -89 201 -209c0 -118 -82 -211 -187 -211c-79 0 -130 38 -154 65
v-48c0 -4 -3 -7 -7 -7h-4c-3 0 -6 3 -6 7v623c-20 19 -70 62 -148 62c-76 0 -148 -48 -148 -156v-136h182c4 0 7 -3 7 -7v-4c0 -4 -3 -7 -7 -7h-182v-375c0 -4 -3 -7 -7 -7h-3c-4 0 -7 3 -7 7v375h-248v-375c0 -4 -3 -7 -7 -7h-4c-4 0 -7 3 -7 7zM117 400h248v136
c0 37 7 67 20 92c-18 20 -68 54 -121 54c-84 0 -147 -50 -147 -168v-114zM695 83c4 -7 53 -75 154 -75c95 0 170 85 170 193c0 110 -77 191 -184 191c-90 0 -140 -61 -140 -61v-248z" />
    <glyph glyph-name=".notdef" horiz-adv-x="599" 
d="M50 30v640c0 21 9 30 30 30h439c21 0 30 -9 30 -30v-640c0 -21 -9 -30 -30 -30h-439c-21 0 -30 9 -30 30zM262 314c0 -7 7 -12 14 -12h36c9 0 15 4 15 13v26c0 48 105 63 105 150c0 65 -54 111 -125 111c-87 0 -130 -61 -130 -61c-4 -6 -6 -13 0 -18l22 -22
c6 -4 11 -4 17 0c13 12 36 41 84 41c40 0 61 -25 61 -52c0 -63 -99 -72 -99 -147v-29zM245 156c0 -26 22 -48 48 -48c27 0 49 22 49 48s-22 48 -49 48c-26 0 -48 -22 -48 -48z" />
    <glyph glyph-name=".null" horiz-adv-x="0" 
 />
    <glyph glyph-name="CR" horiz-adv-x="0" 
 />
    <glyph glyph-name="space" unicode=" " horiz-adv-x="213" 
 />
    <glyph glyph-name="exclam" unicode="!" horiz-adv-x="296" 
d="M146 267c-4 0 -7 3 -7 7v419c0 4 3 7 7 7h4c4 0 7 -3 7 -7v-419c0 -4 -3 -7 -7 -7h-4zM124 14c0 13 11 23 24 23c14 0 24 -10 24 -23s-10 -24 -24 -24c-13 0 -24 11 -24 24z" />
    <glyph glyph-name="quotedbl" unicode="&#x22;" horiz-adv-x="289" 
d="M217 491c-4 0 -7 3 -7 7v195c0 4 3 7 7 7h3c4 0 7 -3 7 -7v-195c0 -4 -3 -7 -7 -7h-3zM69 491c-4 0 -7 3 -7 7v195c0 4 3 7 7 7h3c4 0 7 -3 7 -7v-195c0 -4 -3 -7 -7 -7h-3z" />
    <glyph glyph-name="numbersign" unicode="#" horiz-adv-x="564" 
d="M118 8l41 209h-97c-3 0 -6 3 -6 7v3c0 4 3 7 6 7h99l38 194h-109c-4 0 -7 3 -7 7v4c0 4 3 7 7 7h113l48 248c1 3 4 6 7 6h3c5 0 8 -3 7 -8l-48 -246h175l48 248c1 3 4 6 7 6h4c5 0 7 -3 6 -8l-48 -246h95c3 0 6 -3 6 -7v-4c0 -4 -3 -7 -6 -7h-98l-37 -194h107
c4 0 7 -3 7 -7v-3c0 -4 -3 -7 -7 -7h-111l-40 -211c-1 -3 -4 -6 -7 -6h-4c-5 0 -8 3 -7 8l41 209h-175l-40 -211c-1 -3 -4 -6 -7 -6h-4c-5 0 -8 3 -7 8zM180 234h174l37 194h-174z" />
    <glyph glyph-name="dollar" unicode="$" horiz-adv-x="545" 
d="M64 73c-3 2 -3 6 0 9l3 3c3 3 7 3 10 0c12 -11 84 -75 193 -77v339c-122 33 -213 71 -213 188c0 80 59 172 213 174v43c0 4 3 7 7 7h4c4 0 7 -3 7 -7v-44c93 -4 160 -50 160 -50c1 -1 3 -4 3 -6l-2 -4c0 -6 -6 -9 -11 -6c0 0 -65 44 -150 48v-329
c130 -37 210 -85 210 -196c0 -93 -98 -170 -210 -175v-113c0 -3 -3 -6 -7 -6h-4c-4 0 -7 3 -7 6v113c-115 3 -194 71 -206 83zM270 366v325c-142 -2 -195 -84 -195 -156c0 -102 78 -138 195 -169zM288 8c102 4 192 73 192 157c0 102 -78 144 -192 177v-334z" />
    <glyph glyph-name="percent" unicode="%" horiz-adv-x="704" 
d="M189 427c-78 0 -141 63 -141 142c0 78 63 141 141 141s141 -63 141 -141c0 -79 -63 -142 -141 -142zM189 445c68 0 124 55 124 124c0 68 -56 123 -124 123c-69 0 -123 -55 -123 -123c0 -69 54 -124 123 -124zM358 131c0 79 62 142 141 142c77 0 141 -63 141 -142
c0 -78 -64 -141 -141 -141c-79 0 -141 63 -141 141zM375 131c0 -68 55 -123 124 -123c68 0 123 55 123 123c0 69 -55 124 -123 124c-69 0 -124 -55 -124 -124zM120 12l417 686c2 3 5 3 8 1l6 -3c2 -1 5 -3 2 -8l-417 -686c-2 -3 -4 -5 -7 -3l-8 5c-3 2 -3 5 -1 8z" />
    <glyph glyph-name="ampersand" unicode="&#x26;" horiz-adv-x="695" 
d="M102 173c0 102 69 162 156 205l-30 31c-41 41 -78 97 -78 153c0 62 49 148 165 148c106 0 155 -74 155 -148c0 -77 -80 -141 -180 -187h-1l242 -239c51 68 80 153 80 230c0 9 -1 20 -2 31c0 4 3 8 7 8h4c4 0 7 -3 7 -6c1 -11 2 -22 2 -33c0 -81 -31 -170 -85 -241
l112 -111c3 -3 4 -5 1 -8l-7 -6c-3 -3 -5 -1 -7 1l-111 109c-59 -72 -143 -120 -244 -120c-113 0 -186 84 -186 183zM276 387c100 46 177 103 177 175c0 65 -44 130 -138 130c-105 0 -148 -75 -148 -130c0 -50 38 -102 73 -139c12 -12 23 -24 36 -36zM119 173
c0 -90 66 -165 169 -165c96 0 175 46 232 114l-249 245c-84 -42 -152 -98 -152 -194z" />
    <glyph glyph-name="quotesingle" unicode="'" horiz-adv-x="142" 
d="M69 491c-4 0 -7 3 -7 7v195c0 4 3 7 7 7h4c4 0 7 -3 7 -7v-195c0 -4 -3 -7 -7 -7h-4z" />
    <glyph glyph-name="parenleft" unicode="(" horiz-adv-x="344" 
d="M309 -61c4 0 7 -3 7 -7v-4c0 -3 -3 -6 -7 -6c-116 5 -241 100 -241 394s125 388 241 394c4 0 7 -3 7 -7v-4c0 -4 -3 -7 -7 -7c-108 -6 -223 -95 -223 -376c0 -282 115 -371 223 -377z" />
    <glyph glyph-name="parenright" unicode=")" horiz-adv-x="344" 
d="M35 -61c108 6 223 95 223 377c0 281 -115 370 -223 376c-4 0 -7 3 -7 7v4c0 4 3 7 7 7c116 -6 241 -100 241 -394s-125 -389 -241 -394c-4 0 -7 3 -7 6v4c0 4 3 7 7 7z" />
    <glyph glyph-name="asterisk" unicode="*" horiz-adv-x="352" 
d="M174 406c-4 0 -7 3 -7 7v124l-108 -62c-4 -2 -6 -2 -8 1l-4 7c-1 3 1 6 3 7l107 63l-107 63c-2 1 -4 4 -2 7l3 6c1 2 3 5 8 2l108 -62v124c0 4 3 7 7 7h4c4 0 7 -3 7 -7v-124l108 62c5 3 7 0 8 -2l3 -6c2 -3 0 -6 -2 -7l-107 -63l107 -63c2 -1 4 -4 3 -7l-4 -7
c-2 -3 -4 -3 -8 -1l-108 62v-124c0 -4 -3 -7 -7 -7h-4z" />
    <glyph glyph-name="plus" unicode="+" horiz-adv-x="513" 
d="M248 153v186h-186c-4 0 -7 3 -7 7v4c0 4 3 7 7 7h186v185c0 4 3 7 7 7h4c4 0 7 -3 7 -7v-185h185c4 0 7 -3 7 -7v-4c0 -4 -3 -7 -7 -7h-185v-186c0 -4 -3 -7 -7 -7h-4c-4 0 -7 3 -7 7z" />
    <glyph glyph-name="comma" unicode="," horiz-adv-x="262" 
d="M103 13c0 12 10 22 23 22c21 0 52 -25 52 -92c0 -69 -62 -99 -62 -99c-4 -2 -7 -3 -9 1l-3 6c-2 4 -2 7 3 9c0 0 52 25 52 83c0 30 -7 47 -13 57c-5 -5 -11 -10 -20 -10c-13 0 -23 11 -23 23z" />
    <glyph glyph-name="hyphen" unicode="-" horiz-adv-x="597" 
d="M177 243c-4 0 -6 3 -6 7v4c0 4 2 7 6 7h243c3 0 6 -3 6 -7v-4c0 -4 -3 -7 -6 -7h-243z" />
    <glyph glyph-name="period" unicode="." horiz-adv-x="240" 
d="M96 14c0 13 11 23 24 23c14 0 24 -10 24 -23s-10 -24 -24 -24c-13 0 -24 11 -24 24z" />
    <glyph glyph-name="slash" unicode="/" horiz-adv-x="334" 
d="M44 6l245 689c1 3 4 5 7 5h7c4 0 5 -3 4 -6l-246 -690c-2 -5 -4 -4 -7 -4h-7c-3 0 -4 3 -3 6z" />
    <glyph glyph-name="zero" unicode="0" horiz-adv-x="660" 
d="M330 -11c-157 0 -247 133 -247 352c0 220 90 352 247 352s247 -132 247 -352c0 -219 -90 -352 -247 -352zM330 7c147 0 229 124 229 334s-82 334 -229 334s-229 -124 -229 -334s82 -334 229 -334z" />
    <glyph glyph-name="one" unicode="1" horiz-adv-x="320" 
d="M194 7v649l-166 -123c-3 -2 -6 -2 -8 1l-5 7c-1 2 -2 4 2 7l184 135c5 4 11 0 11 -6v-670c0 -4 -3 -7 -7 -7h-4c-4 0 -7 3 -7 7z" />
    <glyph glyph-name="two" unicode="2" horiz-adv-x="525" 
d="M39 12l285 266c71 66 120 133 120 216c0 95 -69 181 -203 181c-112 0 -158 -93 -158 -93c-2 -4 -5 -4 -7 -3l-7 4c-3 2 -5 4 -2 9c0 0 52 100 174 100c146 0 221 -93 221 -198c0 -88 -51 -158 -126 -228l-265 -248h379c4 0 7 -3 7 -7v-4c0 -4 -3 -7 -7 -7h-406
c-7 0 -10 8 -5 12z" />
    <glyph glyph-name="three" unicode="3" horiz-adv-x="561" 
d="M59 80c-3 4 -3 6 0 9l5 4c4 3 7 1 9 -1c22 -23 75 -84 190 -84c131 0 210 76 210 178c0 80 -70 159 -177 159h-135c-4 0 -7 3 -7 7v4c0 4 3 7 7 7h135c83 0 159 64 159 156c0 90 -69 156 -174 156c-121 0 -183 -83 -183 -83c-2 -3 -5 -4 -8 -2l-6 4c-3 2 -4 5 -2 8
c0 0 68 90 199 90c115 0 192 -73 192 -173c0 -79 -55 -143 -122 -164c83 -21 140 -95 140 -169c0 -111 -88 -196 -228 -196c-124 0 -181 65 -204 90z" />
    <glyph glyph-name="four" unicode="4" horiz-adv-x="588" 
d="M22 159c-6 0 -9 6 -5 11l433 524c3 5 11 3 11 -4v-514h71c4 0 7 -2 7 -6v-4c0 -4 -3 -7 -7 -7h-71v-152c0 -4 -3 -7 -7 -7h-3c-4 0 -7 3 -7 7v152h-422zM45 176h399v484z" />
    <glyph glyph-name="five" unicode="5" horiz-adv-x="559" 
d="M76 76c-3 4 -3 6 0 9l5 4c4 3 7 0 9 -2c24 -28 77 -79 182 -79c128 0 219 96 219 214c0 123 -75 190 -218 188h-181c-4 0 -7 3 -7 7v258c0 4 3 7 7 7h326c4 0 7 -3 7 -7v-3c0 -4 -3 -7 -7 -7h-315v-238h170c154 2 236 -72 236 -205c0 -128 -99 -232 -237 -232
c-112 0 -170 55 -196 86z" />
    <glyph glyph-name="six" unicode="6" horiz-adv-x="566" 
d="M63 276c0 277 250 402 326 429c3 1 7 0 8 -3l2 -7c1 -4 0 -6 -4 -8c-70 -25 -284 -130 -312 -362c32 43 103 118 221 118c115 0 219 -86 219 -221c0 -129 -103 -232 -225 -232c-149 0 -235 126 -235 286zM80 276c0 -151 79 -268 218 -268c113 0 208 95 208 214
c0 125 -96 203 -202 203c-148 0 -218 -126 -224 -135v-14z" />
    <glyph glyph-name="seven" unicode="7" horiz-adv-x="479" 
d="M154 9l288 656h-410c-4 0 -7 3 -7 7v3c0 4 3 7 7 7h426c5 0 8 -5 6 -9l-295 -672c-2 -4 -4 -5 -8 -3l-5 2c-4 2 -4 4 -2 9z" />
    <glyph glyph-name="eight" unicode="8" horiz-adv-x="584" 
d="M69 175c0 89 69 153 180 172c-96 19 -162 80 -162 163c0 88 56 178 203 178s207 -90 207 -178c0 -83 -65 -144 -161 -163c111 -19 179 -78 179 -172c0 -129 -99 -185 -224 -185c-124 0 -222 56 -222 185zM292 359c106 6 187 60 187 151c0 80 -56 162 -189 162
s-185 -82 -185 -162c0 -91 81 -145 187 -151zM86 175c0 -117 90 -169 205 -169s207 52 207 169c0 87 -81 152 -206 161c-125 -9 -206 -67 -206 -161z" />
    <glyph glyph-name="nine" unicode="9" horiz-adv-x="566" 
d="M167 -8c-1 4 0 6 4 8c70 25 284 130 312 362c-32 -43 -103 -118 -221 -118c-115 0 -219 86 -219 221c0 129 103 232 225 232c149 0 235 -126 235 -286c0 -277 -250 -402 -326 -429c-3 -1 -7 0 -8 3zM262 262c148 0 218 126 224 135v14c0 151 -79 268 -218 268
c-113 0 -208 -95 -208 -214c0 -125 96 -203 202 -203z" />
    <glyph glyph-name="colon" unicode=":" horiz-adv-x="290" 
d="M145 363c-13 0 -24 11 -24 23c0 14 11 24 24 24c14 0 24 -10 24 -24c0 -12 -10 -23 -24 -23zM121 14c0 13 11 23 24 23c14 0 24 -10 24 -23s-10 -24 -24 -24c-13 0 -24 11 -24 24z" />
    <glyph glyph-name="semicolon" unicode=";" horiz-adv-x="301" 
d="M145 363c-12 0 -23 11 -23 23c0 14 11 24 23 24c14 0 24 -10 24 -24c0 -12 -10 -23 -24 -23zM123 13c0 12 10 22 23 22c21 0 52 -25 52 -92c0 -69 -63 -100 -63 -100c-1 -1 -5 -1 -7 1l-3 5c-4 4 -3 9 2 11c0 0 52 25 52 83c0 30 -7 47 -13 57c-5 -5 -11 -10 -20 -10
c-13 0 -23 11 -23 23z" />
    <glyph glyph-name="less" unicode="&#x3c;" horiz-adv-x="438" 
d="M32 226c-5 3 -5 9 0 12l365 235c4 2 7 2 9 -2l3 -5c2 -3 2 -7 -2 -9l-350 -225l350 -218c4 -2 4 -6 2 -9l-3 -5c-2 -4 -5 -4 -9 -2z" />
    <glyph glyph-name="equal" unicode="=" horiz-adv-x="665" 
d="M167 382c-4 0 -7 3 -7 7v4c0 4 3 7 7 7h331c4 0 7 -3 7 -7v-4c0 -4 -3 -7 -7 -7h-331zM167 176c-4 0 -7 3 -7 7v4c0 4 3 7 7 7h331c4 0 7 -3 7 -7v-4c0 -4 -3 -7 -7 -7h-331z" />
    <glyph glyph-name="greater" unicode="&#x3e;" horiz-adv-x="438" 
d="M29 5c-2 3 -2 7 2 9l350 218l-350 225c-4 2 -4 6 -2 9l3 5c2 4 5 4 9 2l365 -235c5 -3 5 -9 0 -12l-365 -228c-4 -2 -7 -2 -9 2z" />
    <glyph glyph-name="question" unicode="?" horiz-adv-x="504" 
d="M234 257c-4 0 -7 3 -7 7v60c0 49 38 68 58 80c45 24 127 77 127 159c0 73 -65 129 -162 129c-119 0 -172 -82 -172 -82c-2 -3 -6 -4 -8 -2l-5 4c-2 2 -5 3 -2 8c0 0 58 90 187 90c107 0 179 -64 179 -147c0 -92 -89 -148 -136 -175c-19 -10 -48 -25 -48 -64v-60
c0 -4 -3 -7 -7 -7h-4zM217 14c0 13 10 23 23 23c14 0 24 -10 24 -23s-10 -24 -24 -24c-13 0 -23 11 -23 24z" />
    <glyph glyph-name="at" unicode="@" horiz-adv-x="1000" 
d="M52 225c0 284 179 485 460 485c267 0 422 -178 422 -419c0 -133 -37 -301 -200 -301c-63 0 -99 35 -109 80c-20 -33 -63 -80 -152 -80c-116 0 -192 94 -192 214c0 118 83 206 195 206c74 0 123 -33 146 -54v37c0 4 3 7 7 7h4c4 0 7 -3 7 -7v-289c0 -55 32 -96 94 -96
c147 0 183 158 183 283c0 232 -148 401 -405 401c-271 0 -443 -193 -443 -467c0 -208 123 -360 295 -433c2 -1 5 -3 3 -7l-3 -6c-2 -4 -4 -5 -8 -3c-177 75 -304 233 -304 449zM299 204c0 -110 68 -196 174 -196c117 0 149 97 149 97v224c-4 7 -54 63 -146 63
c-103 0 -177 -80 -177 -188z" />
    <glyph glyph-name="A" unicode="A" horiz-adv-x="639" 
d="M8 7l308 710c1 2 3 4 5 4h2c2 0 4 -2 5 -4l302 -710c1 -3 0 -5 -3 -6l-9 -3c-3 -1 -4 1 -5 3l-89 209h-409l-90 -209c-1 -2 -2 -4 -5 -3l-9 3c-3 1 -4 3 -3 6zM123 227h393l-194 458z" />
    <glyph glyph-name="B" unicode="B" horiz-adv-x="625" 
d="M112 7v686c0 4 3 7 7 7h206c125 0 210 -63 210 -177c0 -82 -50 -139 -127 -162c89 -17 149 -73 149 -173c0 -112 -92 -188 -223 -188h-215c-4 0 -7 3 -7 7zM130 367h197c111 0 190 58 190 156c0 103 -77 159 -192 159h-195v-315zM130 18h204c122 0 205 68 205 170
c0 111 -81 161 -193 161h-216v-331z" />
    <glyph glyph-name="C" unicode="C" horiz-adv-x="730" 
d="M61 349c0 201 162 361 363 361c102 0 175 -36 243 -93c2 -2 3 -5 1 -8l-5 -6c-3 -3 -6 -2 -8 0c-65 56 -135 89 -231 89c-191 0 -345 -152 -345 -343s154 -341 345 -341c85 0 164 32 231 93c2 2 6 3 8 0l5 -6c2 -2 2 -5 0 -7c-69 -66 -155 -98 -244 -98
c-201 0 -363 158 -363 359z" />
    <glyph glyph-name="D" unicode="D" horiz-adv-x="733" 
d="M112 7v686c0 4 3 7 6 7h200c195 0 353 -156 353 -349c0 -195 -158 -351 -353 -351h-200c-3 0 -6 3 -6 7zM129 18h189c185 0 336 148 336 333c0 183 -151 331 -336 331h-189v-664z" />
    <glyph glyph-name="E" unicode="E" horiz-adv-x="610" 
d="M112 7v686c0 4 3 7 7 7h407c4 0 7 -3 7 -7v-4c0 -4 -3 -7 -7 -7h-396v-309h348c4 0 7 -3 7 -7v-4c0 -4 -3 -7 -7 -7h-348v-337h396c4 0 7 -3 7 -7v-4c0 -4 -3 -7 -7 -7h-407c-4 0 -7 3 -7 7z" />
    <glyph glyph-name="F" unicode="F" horiz-adv-x="585" 
d="M112 7v686c0 4 3 7 7 7h407c4 0 7 -3 7 -7v-4c0 -4 -3 -7 -7 -7h-396v-334h348c4 0 7 -3 7 -7v-4c0 -4 -3 -7 -7 -7h-348v-323c0 -4 -3 -7 -7 -7h-4c-4 0 -7 3 -7 7z" />
    <glyph glyph-name="G" unicode="G" horiz-adv-x="755" 
d="M61 349c0 201 162 361 363 361c102 0 175 -36 243 -93c2 -2 3 -5 1 -8l-5 -6c-3 -3 -6 -2 -8 0c-65 56 -135 89 -231 89c-191 0 -345 -152 -345 -343s154 -341 345 -341c134 0 215 52 235 69v235h-227c-4 0 -7 3 -7 7v4c0 3 3 6 7 6h238c4 0 7 -3 7 -6v-253
c-7 -11 -95 -80 -253 -80c-201 0 -363 158 -363 359z" />
    <glyph glyph-name="H" unicode="H" horiz-adv-x="752" 
d="M112 7v686c0 4 3 7 7 7h4c4 0 7 -3 7 -7v-320h492v320c0 4 3 7 7 7h4c4 0 7 -3 7 -7v-686c0 -4 -3 -7 -7 -7h-4c-4 0 -7 3 -7 7v348h-492v-348c0 -4 -3 -7 -7 -7h-4c-4 0 -7 3 -7 7z" />
    <glyph glyph-name="I" unicode="I" horiz-adv-x="242" 
d="M112 7v686c0 4 3 7 7 7h4c4 0 7 -3 7 -7v-686c0 -4 -3 -7 -7 -7h-4c-4 0 -7 3 -7 7z" />
    <glyph glyph-name="J" unicode="J" horiz-adv-x="379" 
d="M-30 67c-2 3 -3 6 1 9l4 3c3 2 6 1 8 -2c16 -20 61 -69 142 -69c110 0 169 74 169 206v479c0 4 3 7 7 7h3c4 0 7 -3 7 -7v-479c0 -141 -66 -224 -186 -224c-89 0 -138 55 -155 77z" />
    <glyph glyph-name="K" unicode="K" horiz-adv-x="559" 
d="M112 7v686c0 4 3 7 7 7h4c4 0 7 -3 7 -7v-333l372 339c3 3 7 3 10 0l3 -3c3 -3 3 -7 0 -10l-369 -335l379 -340c4 -4 6 -7 2 -11l-4 -4c-2 -2 -5 -2 -9 2l-384 344v-335c0 -4 -3 -7 -7 -7h-4c-4 0 -7 3 -7 7z" />
    <glyph glyph-name="L" unicode="L" horiz-adv-x="489" 
d="M112 7v686c0 4 3 7 7 7h4c3 0 6 -3 6 -7v-675h349c4 0 7 -3 7 -7v-4c0 -4 -3 -7 -7 -7h-359c-4 0 -7 3 -7 7z" />
    <glyph glyph-name="M" unicode="M" horiz-adv-x="859" 
d="M52 8l147 704c1 7 12 7 14 0l217 -676l214 676c2 7 12 7 14 0l151 -704c1 -5 1 -7 -3 -8l-8 -2c-3 -1 -5 1 -6 6l-144 662l-211 -674c-2 -7 -12 -7 -14 0l-215 674l-139 -662c-1 -5 -3 -7 -6 -6l-8 2c-4 1 -4 3 -3 8z" />
    <glyph glyph-name="N" unicode="N" horiz-adv-x="772" 
d="M112 7v703c0 7 9 10 13 4l517 -689v668c0 4 3 7 7 7h4c4 0 7 -3 7 -7v-701c0 -7 -9 -10 -13 -4l-517 689v-670c0 -4 -3 -7 -7 -7h-4c-4 0 -7 3 -7 7z" />
    <glyph glyph-name="O" unicode="O" horiz-adv-x="846" 
d="M62 349c0 201 160 361 361 361s362 -160 362 -361s-161 -359 -362 -359s-361 158 -361 359zM80 349c0 -191 152 -341 343 -341s344 150 344 341s-153 343 -344 343s-343 -152 -343 -343z" />
    <glyph glyph-name="P" unicode="P" horiz-adv-x="596" 
d="M112 7v686c0 4 3 7 7 7h208c126 0 229 -102 229 -226c0 -126 -103 -229 -228 -229h-198v-238c0 -4 -3 -7 -7 -7h-4c-4 0 -7 3 -7 7zM130 263h198c115 0 210 95 210 211c0 114 -95 208 -211 208h-197v-419z" />
    <glyph glyph-name="Q" unicode="Q" horiz-adv-x="847" 
d="M62 349c0 201 160 361 361 361s362 -160 362 -361c0 -157 -98 -286 -237 -336l117 -192c2 -3 2 -6 -1 -8l-9 -5c-3 -1 -5 1 -6 3l-118 196c-34 -11 -71 -17 -108 -17c-201 0 -361 158 -361 359zM80 349c0 -191 152 -341 343 -341s344 150 344 341s-153 343 -344 343
s-343 -152 -343 -343z" />
    <glyph glyph-name="R" unicode="R" horiz-adv-x="648" 
d="M112 7v686c0 4 3 7 7 7h237c125 0 228 -90 228 -214c0 -111 -79 -196 -182 -215l156 -261c2 -3 2 -6 -1 -8l-9 -5c-3 -1 -5 1 -6 3l-159 268c-9 -1 -17 -1 -26 -1h-228v-260c0 -4 -3 -7 -6 -7h-4c-4 0 -7 3 -7 7zM129 284h228c115 0 210 86 210 202
c0 114 -95 196 -211 196h-227v-398z" />
    <glyph glyph-name="S" unicode="S" horiz-adv-x="556" 
d="M72 73c-3 3 -3 6 0 9l4 4c3 3 6 2 9 -1c13 -11 87 -77 200 -77c107 0 203 71 203 158c0 109 -87 148 -214 182c-121 33 -209 71 -209 187c0 81 61 175 218 175c100 0 173 -51 173 -51c3 -2 4 -5 2 -8l-4 -6c-2 -3 -4 -4 -8 -2c0 0 -71 49 -163 49
c-145 0 -200 -84 -200 -157c0 -102 79 -138 196 -169c140 -39 227 -84 227 -200c0 -96 -104 -176 -221 -176c-119 0 -200 71 -213 83z" />
    <glyph glyph-name="T" unicode="T" horiz-adv-x="462" 
d="M221 7v675h-208c-4 0 -7 3 -7 7v4c0 4 3 7 7 7h436c4 0 7 -3 7 -7v-4c0 -4 -3 -7 -7 -7h-210v-675c0 -4 -3 -7 -7 -7h-4c-4 0 -7 3 -7 7z" />
    <glyph glyph-name="U" unicode="U" horiz-adv-x="724" 
d="M103 252v441c0 4 3 7 7 7h4c4 0 7 -3 7 -7v-441c0 -144 91 -244 240 -244c150 0 242 100 242 244v441c0 4 3 7 7 7h4c4 0 7 -3 7 -7v-441c0 -154 -100 -262 -260 -262c-159 0 -258 108 -258 262z" />
    <glyph glyph-name="V" unicode="V" horiz-adv-x="639" 
d="M310 -16l-301 709c-1 3 0 5 3 6l9 3c3 1 4 -1 5 -3l290 -683l297 683c1 2 2 4 5 3l9 -3c3 -1 4 -3 3 -6l-308 -709c-3 -6 -9 -6 -12 0z" />
    <glyph glyph-name="W" unicode="W" horiz-adv-x="889" 
d="M245 -12l-204 705c-1 3 0 5 3 6l8 3c3 1 5 0 6 -3l194 -668l184 677c2 7 12 7 14 0l193 -676l187 667c1 3 3 4 6 3l8 -3c3 -1 4 -3 3 -6l-197 -705c-2 -7 -12 -7 -14 0l-193 676l-184 -676c-2 -7 -12 -7 -14 0z" />
    <glyph glyph-name="X" unicode="X" horiz-adv-x="546" 
d="M39 3c-4 3 -3 6 -1 9l223 345l-213 331c-2 3 -3 6 1 9l6 4c4 2 6 0 8 -3l210 -325l210 325c2 3 4 5 8 3l6 -4c4 -3 3 -6 1 -9l-214 -331l225 -345c2 -3 3 -6 -1 -9l-6 -4c-4 -2 -6 0 -8 3l-221 338l-220 -338c-2 -3 -4 -5 -8 -3z" />
    <glyph glyph-name="Y" unicode="Y" horiz-adv-x="544" 
d="M263 7v336l-264 345c-2 3 -3 6 1 9l6 4c4 2 6 -1 8 -3l258 -339l258 339c2 3 5 5 8 3l6 -4c4 -3 3 -6 1 -9l-264 -344v-337c0 -4 -3 -7 -7 -7h-4c-4 0 -7 3 -7 7z" />
    <glyph glyph-name="Z" unicode="Z" horiz-adv-x="528" 
d="M29 11l439 671h-399c-4 0 -7 3 -7 7v4c0 4 3 7 7 7h419c6 0 9 -6 6 -11l-439 -671h411c4 0 7 -3 7 -7v-4c0 -4 -3 -7 -7 -7h-431c-6 0 -9 6 -6 11z" />
    <glyph glyph-name="bracketleft" unicode="[" horiz-adv-x="333" 
d="M106 -282h192c4 0 7 -3 7 -7v-4c0 -4 -3 -7 -7 -7h-203c-4 0 -7 3 -7 7v986c0 4 3 7 7 7h203c4 0 7 -3 7 -7v-4c0 -4 -3 -7 -7 -7h-192v-964z" />
    <glyph glyph-name="backslash" unicode="\" horiz-adv-x="334" 
d="M273 4l-245 689c-1 3 -1 6 3 7h7c3 0 6 -1 7 -4l245 -690c1 -3 0 -6 -3 -6h-7c-3 0 -5 -1 -7 4z" />
    <glyph glyph-name="bracketright" unicode="]" horiz-adv-x="333" 
d="M35 -282h192v964h-192c-4 0 -7 3 -7 7v4c0 4 3 7 7 7h203c4 0 7 -3 7 -7v-986c0 -4 -3 -7 -7 -7h-203c-4 0 -7 3 -7 7v4c0 4 3 7 7 7z" />
    <glyph glyph-name="asciicircum" unicode="^" horiz-adv-x="524" 
d="M48 398l-6 4c-3 2 -4 5 -2 8l219 305c3 4 9 4 12 0l213 -305c2 -3 1 -6 -2 -8l-6 -4c-3 -2 -6 -1 -8 2l-203 291l-209 -291c-2 -3 -5 -4 -8 -2z" />
    <glyph glyph-name="underscore" unicode="_" horiz-adv-x="401" 
d="M28 -17c0 4 3 7 7 7h331c4 0 7 -3 7 -7v-4c0 -3 -3 -6 -7 -6h-331c-4 0 -7 3 -7 6v4z" />
    <glyph glyph-name="grave" unicode="`" horiz-adv-x="302" 
d="M239 560l-182 90c-4 2 -5 5 -3 9l2 4c3 5 6 4 9 3l182 -91c4 -2 4 -5 3 -7l-2 -5c-2 -4 -4 -5 -9 -3z" />
    <glyph glyph-name="a" unicode="a" horiz-adv-x="436" 
d="M47 125c0 79 70 137 176 137c49 0 96 -15 118 -23v37c0 79 -26 116 -111 116c-76 0 -122 -30 -122 -30c-5 -3 -7 -1 -9 2l-3 5c-3 5 0 7 2 8c0 0 50 33 132 33c98 0 129 -43 129 -134v-269c0 -4 -3 -7 -7 -7h-4c-4 0 -7 3 -7 7v45c-31 -27 -89 -62 -155 -62
c-78 0 -139 51 -139 135zM65 125c0 -74 53 -117 121 -117c73 0 135 44 155 69v144c-14 4 -65 23 -118 23c-96 0 -158 -50 -158 -119z" />
    <glyph glyph-name="b" unicode="b" 
d="M81 7v686c0 4 3 7 6 7h4c4 0 7 -3 7 -7v-339s59 56 145 56c117 0 196 -89 196 -209c0 -118 -86 -211 -191 -211c-79 0 -126 38 -150 65v-48c0 -4 -3 -7 -7 -7h-4c-3 0 -6 3 -6 7zM98 83c4 -7 49 -75 150 -75c95 0 174 85 174 193c0 110 -72 191 -179 191
c-90 0 -145 -61 -145 -61v-248z" />
    <glyph glyph-name="c" unicode="c" horiz-adv-x="476" 
d="M50 202c0 121 97 208 214 208c95 0 153 -55 153 -55c3 -3 2 -6 0 -8l-4 -4c-3 -3 -7 -2 -10 1c0 0 -51 48 -139 48c-107 0 -197 -79 -197 -190c0 -113 93 -194 197 -194c89 0 147 63 147 63c3 3 6 3 8 1l5 -5c2 -2 3 -4 1 -6c0 0 -62 -71 -161 -71
c-114 0 -214 89 -214 212z" />
    <glyph glyph-name="d" unicode="d" 
d="M52 201c0 120 80 209 197 209c86 0 144 -57 144 -57v340c0 4 3 7 7 7h4c3 0 6 -3 6 -7v-686c0 -4 -3 -7 -6 -7h-4c-4 0 -7 3 -7 7v48c-24 -27 -71 -65 -150 -65c-105 0 -191 93 -191 211zM69 201c0 -108 79 -193 174 -193c101 0 146 68 150 75v244s-54 65 -144 65
c-107 0 -180 -81 -180 -191z" />
    <glyph glyph-name="e" unicode="e" horiz-adv-x="477" 
d="M71 193c3 -104 69 -185 178 -185c63 0 114 25 136 43c4 3 7 1 8 -1l4 -6c2 -3 0 -5 -2 -7c-25 -19 -79 -47 -146 -47c-122 0 -197 94 -197 212c0 116 75 208 197 208c106 0 182 -75 182 -183c0 -7 -1 -25 -4 -30c-1 -2 -4 -4 -6 -4h-350zM71 210h341c1 6 1 13 1 17
c0 98 -70 165 -164 165c-109 0 -174 -80 -178 -182z" />
    <glyph glyph-name="f" unicode="f" horiz-adv-x="301" 
d="M99 7v375h-60c-4 0 -7 3 -7 7v4c0 4 3 7 7 7h60v134c0 120 60 176 149 176c56 0 95 -25 114 -43c3 -3 3 -7 0 -10l-3 -3c-3 -3 -7 -3 -10 0c-17 16 -50 38 -101 38c-79 0 -131 -50 -131 -158v-134h181c4 0 7 -3 7 -7v-4c0 -4 -3 -7 -7 -7h-181v-375c0 -4 -3 -7 -7 -7h-4
c-4 0 -7 3 -7 7z" />
    <glyph glyph-name="g" unicode="g" horiz-adv-x="464" 
d="M40 50c0 58 42 87 64 98c-21 28 -30 64 -30 101c0 88 64 161 166 161h31h1h143c4 0 7 -3 7 -7v-4c0 -4 -3 -7 -7 -7h-91c38 -20 80 -56 80 -143s-64 -162 -164 -162c-57 0 -98 19 -124 47c-15 -7 -58 -31 -58 -84c0 -43 33 -68 66 -68h184c87 0 146 -37 146 -128
c0 -86 -79 -164 -202 -164c-137 0 -198 89 -198 158c0 58 36 97 68 117c-40 1 -82 33 -82 85zM240 105c90 0 146 67 146 144c0 135 -116 143 -116 143h-30c-92 0 -148 -65 -148 -143c0 -75 42 -144 148 -144zM72 -152c0 -61 54 -140 180 -140c114 0 184 69 184 146
c0 79 -51 111 -128 111h-142c-19 -2 -94 -39 -94 -117z" />
    <glyph glyph-name="h" unicode="h" horiz-adv-x="496" 
d="M81 7v686c0 4 3 7 7 7h4c4 0 7 -3 7 -7v-358c25 27 78 75 156 75c108 0 166 -65 166 -186v-217c0 -4 -3 -7 -7 -7h-4c-4 0 -7 3 -7 7v217c0 109 -52 168 -148 168c-89 0 -148 -74 -156 -85v-300c0 -4 -3 -7 -7 -7h-4c-4 0 -7 3 -7 7z" />
    <glyph glyph-name="i" unicode="i" horiz-adv-x="180" 
d="M91 607c-12 0 -20 9 -20 20s8 21 20 21c11 0 20 -10 20 -21s-9 -20 -20 -20zM81 7v386c0 4 3 7 7 7h4c4 0 7 -3 7 -7v-386c0 -4 -3 -7 -7 -7h-4c-4 0 -7 3 -7 7z" />
    <glyph glyph-name="j" unicode="j" horiz-adv-x="180" 
d="M90 607c-12 0 -21 9 -21 20s9 21 21 21c11 0 20 -10 20 -21s-9 -20 -20 -20zM81 -134v527c0 4 3 7 7 7h4c4 0 7 -3 7 -7v-527c0 -120 -49 -176 -140 -176c-55 0 -95 25 -113 43c-3 3 -3 7 0 10l3 3c3 3 6 3 9 0c17 -16 50 -38 101 -38c79 0 122 50 122 158z" />
    <glyph glyph-name="k" unicode="k" horiz-adv-x="413" 
d="M81 7v686c0 4 3 7 7 7h4c4 0 7 -3 7 -7v-462l261 174c3 2 6 2 8 -1l4 -7c2 -3 1 -6 -2 -8l-252 -167l268 -210c3 -3 4 -6 1 -9l-5 -6c-2 -3 -5 -3 -7 -1l-276 218v-207c0 -4 -3 -7 -7 -7h-4c-4 0 -7 3 -7 7z" />
    <glyph glyph-name="l" unicode="l" horiz-adv-x="180" 
d="M81 7v686c0 4 3 7 7 7h4c4 0 7 -3 7 -7v-686c0 -4 -3 -7 -7 -7h-4c-4 0 -7 3 -7 7z" />
    <glyph glyph-name="m" unicode="m" horiz-adv-x="763" 
d="M81 7v386c0 4 3 7 7 7h4c4 0 7 -3 7 -7v-55c22 29 68 72 147 72c63 0 110 -28 134 -80c19 27 66 80 150 80c103 0 158 -65 158 -186v-217c0 -4 -3 -7 -7 -7h-4c-4 0 -7 3 -7 7v217c0 109 -49 168 -140 168c-86 0 -131 -62 -142 -80c8 -25 13 -54 13 -88v-217
c0 -4 -3 -7 -7 -7h-4c-4 0 -7 3 -7 7v217c0 109 -49 168 -137 168c-91 0 -137 -66 -147 -82v-303c0 -4 -3 -7 -7 -7h-4c-4 0 -7 3 -7 7z" />
    <glyph glyph-name="n" unicode="n" horiz-adv-x="496" 
d="M81 7v386c0 4 3 7 7 7h4c4 0 7 -3 7 -7v-55c25 27 78 72 156 72c108 0 166 -65 166 -186v-217c0 -4 -3 -7 -7 -7h-4c-4 0 -7 3 -7 7v217c0 109 -52 168 -148 168c-89 0 -148 -71 -156 -82v-303c0 -4 -3 -7 -7 -7h-4c-4 0 -7 3 -7 7z" />
    <glyph glyph-name="o" unicode="o" horiz-adv-x="508" 
d="M51 201c0 116 89 209 203 209s203 -93 203 -209c0 -118 -89 -211 -203 -211s-203 93 -203 211zM69 201c0 -108 81 -193 185 -193s185 85 185 193c0 106 -81 191 -185 191s-185 -85 -185 -191z" />
    <glyph glyph-name="p" unicode="p" 
d="M98 40v-333c0 -4 -3 -7 -7 -7h-4c-3 0 -6 3 -6 7v686c0 4 3 7 6 7h4c4 0 7 -3 7 -7v-37c23 21 69 54 144 54c113 0 197 -90 197 -208c0 -120 -79 -212 -206 -212c-65 0 -113 30 -135 50zM98 67c5 -7 53 -59 135 -59c117 0 189 84 189 194c0 108 -77 190 -180 190
c-91 0 -138 -54 -144 -63v-262z" />
    <glyph glyph-name="q" unicode="q" 
d="M52 202c0 118 89 208 202 208c73 0 115 -34 139 -55v38c0 4 3 7 7 7h4c3 0 6 -3 6 -7v-686c0 -4 -3 -7 -6 -7h-4c-4 0 -7 3 -7 7v334c-22 -20 -68 -51 -134 -51c-127 0 -207 92 -207 212zM69 202c0 -110 73 -194 190 -194c80 0 127 51 134 60v260c-5 7 -47 64 -139 64
c-103 0 -185 -82 -185 -190z" />
    <glyph glyph-name="r" unicode="r" horiz-adv-x="314" 
d="M81 7v386c0 4 3 7 7 7h4c4 0 7 -3 7 -7v-53c20 28 64 70 130 70c49 0 74 -18 74 -18c3 -2 4 -6 2 -9l-3 -5c-1 -2 -5 -4 -9 -2c0 0 -23 16 -64 16c-80 0 -123 -70 -130 -82v-303c0 -4 -3 -7 -7 -7h-4c-4 0 -7 3 -7 7z" />
    <glyph glyph-name="s" unicode="s" horiz-adv-x="381" 
d="M61 35c-3 2 -4 4 -3 7l5 7c2 3 5 3 9 0c20 -16 59 -41 121 -41c72 0 126 40 126 92c0 57 -60 78 -135 99c-89 25 -132 52 -132 108c0 45 41 103 135 103c54 0 94 -19 114 -32c3 -2 4 -5 2 -8l-3 -5c-2 -3 -4 -5 -9 -2c-19 12 -56 29 -104 29c-82 0 -116 -48 -116 -85
c0 -47 40 -69 117 -91c80 -23 151 -43 151 -116c0 -62 -65 -110 -146 -110c-69 0 -110 28 -132 45z" />
    <glyph glyph-name="t" unicode="t" horiz-adv-x="315" 
d="M87 107v275h-42c-3 0 -6 3 -6 7v4c0 4 3 7 6 7h42v108c0 4 3 7 6 7h4c4 0 7 -3 7 -7v-108h163c4 0 7 -3 7 -7v-4c0 -4 -3 -7 -7 -7h-163v-275c0 -56 2 -99 72 -99c43 0 95 23 108 32c4 3 7 1 8 -2l3 -6c1 -3 0 -5 -2 -7c-13 -9 -68 -35 -117 -35c-87 0 -89 51 -89 117z
" />
    <glyph glyph-name="u" unicode="u" horiz-adv-x="486" 
d="M75 174v219c0 4 3 7 7 7h4c4 0 7 -3 7 -7v-219c0 -109 52 -166 148 -166c90 0 140 73 146 82v303c0 4 3 7 7 7h4c4 0 7 -3 7 -7v-386c0 -4 -3 -7 -7 -7h-4c-4 0 -7 3 -7 7v53c-23 -28 -72 -70 -146 -70c-108 0 -166 63 -166 184z" />
    <glyph glyph-name="v" unicode="v" horiz-adv-x="398" 
d="M193 -10l-177 405c-2 4 -2 7 1 8l7 3c4 2 6 -1 7 -3l168 -383l168 383c1 2 3 5 7 3l7 -3c3 -1 3 -4 1 -8l-177 -405c-3 -6 -9 -6 -12 0z" />
    <glyph glyph-name="w" unicode="w" horiz-adv-x="596" 
d="M165 -12l-134 408c-1 4 -2 6 3 8l6 2c4 1 6 0 7 -3l125 -376l119 388c2 7 12 7 14 0l119 -388l125 376c1 3 3 4 7 3l6 -2c5 -2 4 -4 3 -8l-134 -408c-2 -7 -12 -7 -14 0l-119 387l-119 -387c-2 -7 -12 -7 -14 0z" />
    <glyph glyph-name="x" unicode="x" horiz-adv-x="405" 
d="M38 3c-3 2 -3 4 -1 7l154 197l-147 187c-2 3 -2 5 1 7l6 4c2 1 5 1 7 -1l144 -183l145 183c2 2 5 2 7 1l6 -4c3 -2 3 -4 1 -7l-148 -187l155 -197c2 -3 2 -5 -1 -7l-6 -4c-2 -1 -5 -1 -7 1l-152 193l-151 -193c-2 -2 -5 -2 -7 -1z" />
    <glyph glyph-name="y" unicode="y" horiz-adv-x="422" 
d="M207 8l-194 387c-2 4 -2 7 1 8l7 3c4 2 6 -1 7 -3l188 -376l176 376c1 2 3 5 7 3l7 -3c3 -1 3 -4 1 -8l-326 -696c-2 -4 -4 -5 -8 -3l-5 3c-3 2 -4 3 -2 8z" />
    <glyph glyph-name="z" unicode="z" horiz-adv-x="377" 
d="M31 11l277 371h-243c-4 0 -6 3 -6 7v4c0 4 2 7 6 7h267c6 0 10 -6 6 -11l-279 -371h262c4 0 7 -3 7 -7v-4c0 -4 -3 -7 -7 -7h-284c-6 0 -10 6 -6 11z" />
    <glyph glyph-name="braceleft" unicode="{" horiz-adv-x="333" 
d="M108 -65v168c0 60 -47 91 -73 91c-4 0 -7 2 -7 7v4c0 4 3 7 7 7c23 0 73 29 73 91v165c0 185 84 242 190 242c4 0 7 -3 7 -7v-4c0 -4 -3 -7 -7 -7c-96 0 -172 -53 -172 -224v-165c0 -52 -32 -85 -60 -100c28 -15 60 -48 60 -100v-168c0 -171 76 -227 172 -227
c4 0 7 -3 7 -7v-4c0 -4 -3 -7 -7 -7c-106 0 -190 60 -190 245z" />
    <glyph glyph-name="bar" unicode="|" horiz-adv-x="192" 
d="M87 -293v1045c0 4 3 7 7 7h4c4 0 7 -3 7 -7v-1045c0 -4 -3 -7 -7 -7h-4c-4 0 -7 3 -7 7z" />
    <glyph glyph-name="braceright" unicode="}" horiz-adv-x="333" 
d="M207 -65v168c0 52 32 85 60 100c-28 15 -60 48 -60 100v165c0 171 -76 224 -172 224c-4 0 -7 3 -7 7v4c0 4 3 7 7 7c106 0 190 -57 190 -242v-165c0 -62 50 -91 73 -91c4 0 7 -3 7 -7v-4c0 -5 -3 -7 -7 -7c-26 0 -73 -31 -73 -91v-168c0 -185 -84 -245 -190 -245
c-4 0 -7 3 -7 7v4c0 4 3 7 7 7c96 0 172 56 172 227z" />
    <glyph glyph-name="asciitilde" unicode="~" horiz-adv-x="591" 
d="M84 250l-5 3c-3 2 -4 3 -2 8c0 0 44 98 132 98c49 0 80 -35 102 -63c20 -26 46 -56 86 -56c77 0 117 88 117 88c2 4 4 4 7 3l5 -2c4 -2 5 -4 3 -8c0 0 -44 -98 -132 -98c-50 0 -79 35 -101 63c-19 25 -46 55 -87 55c-77 0 -117 -88 -117 -88c-2 -4 -4 -5 -8 -3z" />
    <glyph glyph-name="uni00A0" unicode="&#xa0;" horiz-adv-x="213" 
 />
    <glyph glyph-name="Agrave" unicode="&#xc0;" horiz-adv-x="639" 
d="M8 7l308 710c1 2 3 4 5 4h2c2 0 4 -2 5 -4l302 -710c1 -3 0 -5 -3 -6l-9 -3c-3 -1 -4 1 -5 3l-89 209h-409l-90 -209c-1 -2 -2 -4 -5 -3l-9 3c-3 1 -4 3 -3 6zM123 227h393l-194 458zM419 778l-182 90c-4 2 -5 5 -3 9l2 4c3 5 6 4 9 3l182 -91c4 -2 4 -5 3 -7l-2 -5
c-2 -4 -4 -5 -9 -3z" />
    <glyph glyph-name="Aacute" unicode="&#xc1;" horiz-adv-x="639" 
d="M8 7l308 710c1 2 3 4 5 4h2c2 0 4 -2 5 -4l302 -710c1 -3 0 -5 -3 -6l-9 -3c-3 -1 -4 1 -5 3l-89 209h-409l-90 -209c-1 -2 -2 -4 -5 -3l-9 3c-3 1 -4 3 -3 6zM123 227h393l-194 458zM241 778c-5 -2 -7 -1 -9 3l-2 5c-1 2 -1 5 3 7l182 91c3 1 6 2 9 -3l2 -4
c2 -4 1 -7 -3 -9z" />
    <glyph glyph-name="Acircumflex" unicode="&#xc2;" horiz-adv-x="639" 
d="M8 7l308 710c1 2 3 4 5 4h2c2 0 4 -2 5 -4l302 -710c1 -3 0 -5 -3 -6l-9 -3c-3 -1 -4 1 -5 3l-89 209h-409l-90 -209c-1 -2 -2 -4 -5 -3l-9 3c-3 1 -4 3 -3 6zM123 227h393l-194 458zM197 763c-4 -3 -6 0 -7 1l-4 5c-2 3 -1 5 2 8l129 106c2 2 6 2 8 0l129 -106
c3 -3 4 -5 2 -8l-4 -5c-1 -1 -3 -4 -7 -1l-124 101z" />
    <glyph glyph-name="Atilde" unicode="&#xc3;" horiz-adv-x="639" 
d="M8 7l308 710c1 2 3 4 5 4h2c2 0 4 -2 5 -4l302 -710c1 -3 0 -5 -3 -6l-9 -3c-3 -1 -4 1 -5 3l-89 209h-409l-90 -209c-1 -2 -2 -4 -5 -3l-9 3c-3 1 -4 3 -3 6zM123 227h393l-194 458zM185 802l-8 2c-4 1 -5 4 -3 9c6 19 27 84 86 84c45 0 59 -37 69 -61
c8 -19 21 -46 53 -46c45 0 63 55 68 72c1 4 4 6 7 5l8 -2c4 -1 5 -4 3 -9c-6 -18 -27 -84 -86 -84c-45 0 -62 38 -71 60c-7 17 -18 48 -51 48c-45 0 -63 -56 -68 -73c-1 -4 -4 -6 -7 -5z" />
    <glyph glyph-name="Adieresis" unicode="&#xc4;" horiz-adv-x="639" 
d="M8 7l308 710c1 2 3 4 5 4h2c2 0 4 -2 5 -4l302 -710c1 -3 0 -5 -3 -6l-9 -3c-3 -1 -4 1 -5 3l-89 209h-409l-90 -209c-1 -2 -2 -4 -5 -3l-9 3c-3 1 -4 3 -3 6zM123 227h393l-194 458zM425 810c-12 0 -21 9 -21 20c0 12 9 21 21 21s21 -9 21 -21c0 -11 -9 -20 -21 -20z
M218 810c-12 0 -21 9 -21 20c0 12 9 21 21 21s21 -9 21 -21c0 -11 -9 -20 -21 -20z" />
    <glyph glyph-name="Amacron" unicode="&#x100;" horiz-adv-x="639" 
d="M8 7l308 710c1 2 3 4 5 4h2c2 0 4 -2 5 -4l302 -710c1 -3 0 -5 -3 -6l-9 -3c-3 -1 -4 1 -5 3l-89 209h-409l-90 -209c-1 -2 -2 -4 -5 -3l-9 3c-3 1 -4 3 -3 6zM123 227h393l-194 458zM177 842c-4 0 -7 3 -7 7v4c0 4 3 7 7 7h288c4 0 7 -3 7 -7v-4c0 -4 -3 -7 -7 -7h-288z
" />
    <glyph glyph-name="Abreve" unicode="&#x102;" horiz-adv-x="639" 
d="M8 7l308 710c1 2 3 4 5 4h2c2 0 4 -2 5 -4l302 -710c1 -3 0 -5 -3 -6l-9 -3c-3 -1 -4 1 -5 3l-89 209h-409l-90 -209c-1 -2 -2 -4 -5 -3l-9 3c-3 1 -4 3 -3 6zM123 227h393l-194 458zM321 780c-67 0 -118 47 -127 108c-1 3 3 7 6 7h5c3 0 5 -3 5 -6c8 -53 54 -92 111 -92
c56 0 102 39 111 92c0 3 2 6 5 6h5c3 0 7 -4 6 -7c-10 -61 -61 -108 -127 -108z" />
    <glyph glyph-name="Aring" unicode="&#xc5;" horiz-adv-x="639" 
d="M8 7l308 710c1 2 3 4 5 4h2c2 0 4 -2 5 -4l302 -710c1 -3 0 -5 -3 -6l-9 -3c-3 -1 -4 1 -5 3l-89 209h-409l-90 -209c-1 -2 -2 -4 -5 -3l-9 3c-3 1 -4 3 -3 6zM123 227h393l-194 458zM322 750c-59 0 -104 45 -104 104c0 58 45 104 104 104c58 0 104 -46 104 -104
c0 -59 -46 -104 -104 -104zM322 766c47 0 87 40 87 88c0 47 -40 88 -87 88c-48 0 -87 -41 -87 -88c0 -48 39 -88 87 -88z" />
    <glyph glyph-name="Aringacute" unicode="&#x1fa;" horiz-adv-x="639" 
d="M241 919c-5 -2 -7 -1 -9 3l-2 5c-1 2 -1 5 3 7l182 91c3 1 6 2 9 -3l2 -4c2 -4 1 -7 -3 -9zM8 7l304 701c-54 5 -94 48 -94 104c0 58 45 104 104 104c58 0 104 -46 104 -104c0 -56 -41 -99 -95 -104l299 -701c1 -3 0 -5 -3 -6l-9 -3c-3 -1 -4 1 -5 3l-89 209h-409
l-90 -209c-1 -2 -2 -4 -5 -3l-9 3c-3 1 -4 3 -3 6zM322 724c47 0 87 40 87 88c0 47 -40 88 -87 88c-48 0 -87 -41 -87 -88c0 -48 39 -88 87 -88zM123 227h393l-194 458z" />
    <glyph glyph-name="Aogonek" unicode="&#x104;" horiz-adv-x="639" 
d="M8 7l308 710c1 2 3 4 5 4h2c2 0 4 -2 5 -4l300 -705c4 -9 1 -11 -2 -13c0 0 -92 -46 -92 -126c0 -56 45 -76 91 -76c34 0 60 10 68 14c4 2 6 2 8 -2l3 -6c2 -4 -1 -7 -3 -8c-11 -5 -38 -16 -76 -16c-56 0 -109 25 -109 94c0 75 69 123 93 136l-85 201h-409l-90 -209
c-1 -2 -2 -4 -5 -3l-9 3c-3 1 -4 3 -3 6zM123 227h393l-194 458z" />
    <glyph glyph-name="AE" unicode="&#xc6;" horiz-adv-x="936" 
d="M-1 -1l-5 3c-3 2 -5 3 -2 8l445 682c4 7 7 8 17 8h398c4 0 7 -3 7 -7v-4c0 -4 -3 -7 -7 -7h-396v-309h348c4 0 7 -3 7 -7v-4c0 -4 -3 -7 -7 -7h-348v-337h396c4 0 7 -3 7 -7v-4c0 -4 -3 -7 -7 -7h-406c-4 0 -7 3 -7 7v203h-295l-137 -210c-2 -3 -5 -3 -8 -1zM154 227h285
v435z" />
    <glyph glyph-name="AEacute" unicode="&#x1fc;" horiz-adv-x="936" 
d="M-1 -1l-5 3c-3 2 -5 3 -2 8l445 682c4 7 7 8 17 8h398c4 0 7 -3 7 -7v-4c0 -4 -3 -7 -7 -7h-396v-309h348c4 0 7 -3 7 -7v-4c0 -4 -3 -7 -7 -7h-348v-337h396c4 0 7 -3 7 -7v-4c0 -4 -3 -7 -7 -7h-406c-4 0 -7 3 -7 7v203h-295l-137 -210c-2 -3 -5 -3 -8 -1zM154 227h285
v435zM548 779c-5 -2 -7 -1 -9 3l-2 5c-1 2 -1 5 3 7l182 91c3 1 6 2 9 -3l2 -4c2 -4 1 -7 -3 -9z" />
    <glyph glyph-name="Cacute" unicode="&#x106;" horiz-adv-x="730" 
d="M61 349c0 201 162 361 363 361c102 0 175 -36 243 -93c2 -2 3 -5 1 -8l-5 -6c-3 -3 -6 -2 -8 0c-65 56 -135 89 -231 89c-191 0 -345 -152 -345 -343s154 -341 345 -341c85 0 164 32 231 93c2 2 6 3 8 0l5 -6c2 -2 2 -5 0 -7c-69 -66 -155 -98 -244 -98
c-201 0 -363 158 -363 359zM346 778c-5 -2 -7 -1 -9 3l-2 5c-1 2 -1 5 3 7l182 91c3 1 6 2 9 -3l2 -4c2 -4 1 -7 -3 -9z" />
    <glyph glyph-name="Ccircumflex" unicode="&#x108;" horiz-adv-x="730" 
d="M61 349c0 201 162 361 363 361c102 0 175 -36 243 -93c2 -2 3 -5 1 -8l-5 -6c-3 -3 -6 -2 -8 0c-65 56 -135 89 -231 89c-191 0 -345 -152 -345 -343s154 -341 345 -341c85 0 164 32 231 93c2 2 6 3 8 0l5 -6c2 -2 2 -5 0 -7c-69 -66 -155 -98 -244 -98
c-201 0 -363 158 -363 359zM301 763c-4 -3 -6 0 -7 1l-4 5c-2 3 -1 5 2 8l129 106c2 2 6 2 8 0l129 -106c3 -3 4 -5 2 -8l-4 -5c-1 -1 -3 -4 -7 -1l-124 101z" />
    <glyph glyph-name="Ccaron" unicode="&#x10c;" horiz-adv-x="730" 
d="M61 349c0 201 162 361 363 361c102 0 175 -36 243 -93c2 -2 3 -5 1 -8l-5 -6c-3 -3 -6 -2 -8 0c-65 56 -135 89 -231 89c-191 0 -345 -152 -345 -343s154 -341 345 -341c85 0 164 32 231 93c2 2 6 3 8 0l5 -6c2 -2 2 -5 0 -7c-69 -66 -155 -98 -244 -98
c-201 0 -363 158 -363 359zM421 771l-129 106c-3 3 -4 5 -2 8l4 5c1 1 3 4 7 1l124 -101l124 101c4 3 6 0 7 -1l4 -5c2 -3 1 -5 -2 -8l-129 -106c-2 -2 -6 -2 -8 0z" />
    <glyph glyph-name="Cdotaccent" unicode="&#x10a;" horiz-adv-x="730" 
d="M61 349c0 201 162 361 363 361c102 0 175 -36 243 -93c2 -2 3 -5 1 -8l-5 -6c-3 -3 -6 -2 -8 0c-65 56 -135 89 -231 89c-191 0 -345 -152 -345 -343s154 -341 345 -341c85 0 164 32 231 93c2 2 6 3 8 0l5 -6c2 -2 2 -5 0 -7c-69 -66 -155 -98 -244 -98
c-201 0 -363 158 -363 359zM425 825c-10 0 -19 8 -19 18c0 11 9 19 19 19c11 0 19 -8 19 -19c0 -10 -8 -18 -19 -18z" />
    <glyph glyph-name="Ccedilla" unicode="&#xc7;" horiz-adv-x="731" 
d="M62 349c0 201 162 361 363 361c102 0 175 -36 243 -93c2 -2 3 -5 1 -8l-5 -6c-3 -3 -6 -2 -8 0c-65 56 -135 89 -231 89c-191 0 -345 -152 -345 -343s154 -341 345 -341c85 0 164 32 231 93c2 2 6 3 8 0l5 -6c2 -2 2 -5 0 -7c-69 -66 -155 -98 -244 -98c-5 0 -10 1 -14 1
v-45c60 -6 109 -31 109 -91c0 -48 -38 -90 -91 -90c-35 0 -61 16 -78 34c-3 3 -3 6 0 9l6 5c3 2 6 2 9 -1c14 -16 34 -29 63 -29c44 0 72 33 72 72c0 51 -48 70 -101 74c-3 0 -6 2 -6 6v56c-187 15 -332 167 -332 358z" />
    <glyph glyph-name="Dcaron" unicode="&#x10e;" horiz-adv-x="733" 
d="M112 7v686c0 4 3 7 6 7h200c195 0 353 -156 353 -349c0 -195 -158 -351 -353 -351h-200c-3 0 -6 3 -6 7zM129 18h189c185 0 336 148 336 333c0 183 -151 331 -336 331h-189v-664zM303 771l-129 106c-3 3 -4 5 -2 8l4 5c1 1 3 4 7 1l124 -101l124 101c4 3 6 0 7 -1l4 -5
c2 -3 1 -5 -2 -8l-129 -106c-2 -2 -6 -2 -8 0z" />
    <glyph glyph-name="Dcroat" unicode="&#x110;" horiz-adv-x="755" 
d="M114 7v333h-40c-4 0 -7 3 -7 7v4c0 4 3 7 7 7h40v335c0 4 3 7 7 7h220c194 0 353 -156 353 -349c0 -195 -159 -351 -353 -351h-220c-4 0 -7 3 -7 7zM132 18h209c184 0 335 148 335 333c0 183 -151 331 -335 331h-209v-324h289c4 0 7 -3 7 -7v-4c0 -4 -3 -7 -7 -7h-289
v-322z" />
    <glyph glyph-name="Eth" unicode="&#xd0;" horiz-adv-x="755" 
d="M114 7v333h-40c-4 0 -7 3 -7 7v4c0 4 3 7 7 7h40v335c0 4 3 7 7 7h220c194 0 353 -156 353 -349c0 -195 -159 -351 -353 -351h-220c-4 0 -7 3 -7 7zM132 18h209c184 0 335 148 335 333c0 183 -151 331 -335 331h-209v-324h289c4 0 7 -3 7 -7v-4c0 -4 -3 -7 -7 -7h-289
v-322z" />
    <glyph glyph-name="Egrave" unicode="&#xc8;" horiz-adv-x="610" 
d="M112 7v686c0 4 3 7 7 7h407c4 0 7 -3 7 -7v-4c0 -4 -3 -7 -7 -7h-396v-309h348c4 0 7 -3 7 -7v-4c0 -4 -3 -7 -7 -7h-348v-337h396c4 0 7 -3 7 -7v-4c0 -4 -3 -7 -7 -7h-407c-4 0 -7 3 -7 7zM421 778l-182 90c-4 2 -5 5 -3 9l2 4c3 5 6 4 9 3l182 -91c4 -2 4 -5 3 -7
l-2 -5c-2 -4 -4 -5 -9 -3z" />
    <glyph glyph-name="Eacute" unicode="&#xc9;" horiz-adv-x="610" 
d="M112 7v686c0 4 3 7 7 7h407c4 0 7 -3 7 -7v-4c0 -4 -3 -7 -7 -7h-396v-309h348c4 0 7 -3 7 -7v-4c0 -4 -3 -7 -7 -7h-348v-337h396c4 0 7 -3 7 -7v-4c0 -4 -3 -7 -7 -7h-407c-4 0 -7 3 -7 7zM243 778c-5 -2 -7 -1 -9 3l-2 5c-1 2 -1 5 3 7l182 91c3 1 6 2 9 -3l2 -4
c2 -4 1 -7 -3 -9z" />
    <glyph glyph-name="Ecircumflex" unicode="&#xca;" horiz-adv-x="610" 
d="M112 7v686c0 4 3 7 7 7h407c4 0 7 -3 7 -7v-4c0 -4 -3 -7 -7 -7h-396v-309h348c4 0 7 -3 7 -7v-4c0 -4 -3 -7 -7 -7h-348v-337h396c4 0 7 -3 7 -7v-4c0 -4 -3 -7 -7 -7h-407c-4 0 -7 3 -7 7zM198 763c-4 -3 -6 0 -7 1l-4 5c-2 3 -1 5 2 8l129 106c2 2 6 2 8 0l129 -106
c3 -3 4 -5 2 -8l-4 -5c-1 -1 -3 -4 -7 -1l-124 101z" />
    <glyph glyph-name="Ecaron" unicode="&#x11a;" horiz-adv-x="610" 
d="M112 7v686c0 4 3 7 7 7h407c4 0 7 -3 7 -7v-4c0 -4 -3 -7 -7 -7h-396v-309h348c4 0 7 -3 7 -7v-4c0 -4 -3 -7 -7 -7h-348v-337h396c4 0 7 -3 7 -7v-4c0 -4 -3 -7 -7 -7h-407c-4 0 -7 3 -7 7zM318 771l-129 106c-3 3 -4 5 -2 8l4 5c1 1 3 4 7 1l124 -101l124 101
c4 3 6 0 7 -1l4 -5c2 -3 1 -5 -2 -8l-129 -106c-2 -2 -6 -2 -8 0z" />
    <glyph glyph-name="Edieresis" unicode="&#xcb;" horiz-adv-x="610" 
d="M112 7v686c0 4 3 7 7 7h407c4 0 7 -3 7 -7v-4c0 -4 -3 -7 -7 -7h-396v-309h348c4 0 7 -3 7 -7v-4c0 -4 -3 -7 -7 -7h-348v-337h396c4 0 7 -3 7 -7v-4c0 -4 -3 -7 -7 -7h-407c-4 0 -7 3 -7 7zM427 810c-12 0 -21 9 -21 20c0 12 9 21 21 21s21 -9 21 -21
c0 -11 -9 -20 -21 -20zM220 810c-12 0 -21 9 -21 20c0 12 9 21 21 21s21 -9 21 -21c0 -11 -9 -20 -21 -20z" />
    <glyph glyph-name="Emacron" unicode="&#x112;" horiz-adv-x="610" 
d="M112 7v686c0 4 3 7 7 7h407c4 0 7 -3 7 -7v-4c0 -4 -3 -7 -7 -7h-396v-309h348c4 0 7 -3 7 -7v-4c0 -4 -3 -7 -7 -7h-348v-337h396c4 0 7 -3 7 -7v-4c0 -4 -3 -7 -7 -7h-407c-4 0 -7 3 -7 7zM179 842c-4 0 -7 3 -7 7v4c0 4 3 7 7 7h288c4 0 7 -3 7 -7v-4
c0 -4 -3 -7 -7 -7h-288z" />
    <glyph glyph-name="Ebreve" unicode="&#x114;" horiz-adv-x="610" 
d="M112 7v686c0 4 3 7 7 7h407c4 0 7 -3 7 -7v-4c0 -4 -3 -7 -7 -7h-396v-309h348c4 0 7 -3 7 -7v-4c0 -4 -3 -7 -7 -7h-348v-337h396c4 0 7 -3 7 -7v-4c0 -4 -3 -7 -7 -7h-407c-4 0 -7 3 -7 7zM323 780c-67 0 -118 47 -127 108c-1 3 3 7 6 7h5c3 0 5 -3 5 -6
c8 -53 54 -92 111 -92c56 0 102 39 111 92c0 3 2 6 5 6h5c3 0 7 -4 6 -7c-10 -61 -61 -108 -127 -108z" />
    <glyph glyph-name="Edotaccent" unicode="&#x116;" horiz-adv-x="610" 
d="M112 7v686c0 4 3 7 7 7h407c4 0 7 -3 7 -7v-4c0 -4 -3 -7 -7 -7h-396v-309h348c4 0 7 -3 7 -7v-4c0 -4 -3 -7 -7 -7h-348v-337h396c4 0 7 -3 7 -7v-4c0 -4 -3 -7 -7 -7h-407c-4 0 -7 3 -7 7zM322 825c-10 0 -19 8 -19 18c0 11 9 19 19 19c11 0 19 -8 19 -19
c0 -10 -8 -18 -19 -18z" />
    <glyph glyph-name="Eogonek" unicode="&#x118;" horiz-adv-x="610" 
d="M112 7v686c0 4 3 7 7 7h407c4 0 7 -3 7 -7v-4c0 -4 -3 -7 -7 -7h-396v-309h348c4 0 7 -3 7 -7v-4c0 -4 -3 -7 -7 -7h-348v-337h396c4 0 7 -3 7 -7v-4c0 -3 -2 -6 -4 -7c0 0 -94 -46 -94 -127c0 -56 45 -76 91 -76c34 0 60 10 68 14c4 2 6 2 8 -2l3 -6c2 -4 -1 -7 -3 -8
c-11 -5 -38 -16 -76 -16c-56 0 -109 25 -109 94c0 63 48 106 78 127h-376c-4 0 -7 3 -7 7z" />
    <glyph glyph-name="Gcircumflex" unicode="&#x11c;" horiz-adv-x="755" 
d="M61 349c0 201 162 361 363 361c102 0 175 -36 243 -93c2 -2 3 -5 1 -8l-5 -6c-3 -3 -6 -2 -8 0c-65 56 -135 89 -231 89c-191 0 -345 -152 -345 -343s154 -341 345 -341c134 0 215 52 235 69v235h-227c-4 0 -7 3 -7 7v4c0 3 3 6 7 6h238c4 0 7 -3 7 -6v-253
c-7 -11 -95 -80 -253 -80c-201 0 -363 158 -363 359zM300 763c-4 -3 -6 0 -7 1l-4 5c-2 3 -1 5 2 8l129 106c2 2 6 2 8 0l129 -106c3 -3 4 -5 2 -8l-4 -5c-1 -1 -3 -4 -7 -1l-124 101z" />
    <glyph glyph-name="Gbreve" unicode="&#x11e;" horiz-adv-x="755" 
d="M61 349c0 201 162 361 363 361c102 0 175 -36 243 -93c2 -2 3 -5 1 -8l-5 -6c-3 -3 -6 -2 -8 0c-65 56 -135 89 -231 89c-191 0 -345 -152 -345 -343s154 -341 345 -341c134 0 215 52 235 69v235h-227c-4 0 -7 3 -7 7v4c0 3 3 6 7 6h238c4 0 7 -3 7 -6v-253
c-7 -11 -95 -80 -253 -80c-201 0 -363 158 -363 359zM425 780c-67 0 -118 47 -127 108c-1 3 3 7 6 7h5c3 0 5 -3 5 -6c8 -53 54 -92 111 -92c56 0 102 39 111 92c0 3 2 6 5 6h5c3 0 7 -4 6 -7c-10 -61 -61 -108 -127 -108z" />
    <glyph glyph-name="Gdotaccent" unicode="&#x120;" horiz-adv-x="755" 
d="M61 349c0 201 162 361 363 361c102 0 175 -36 243 -93c2 -2 3 -5 1 -8l-5 -6c-3 -3 -6 -2 -8 0c-65 56 -135 89 -231 89c-191 0 -345 -152 -345 -343s154 -341 345 -341c134 0 215 52 235 69v235h-227c-4 0 -7 3 -7 7v4c0 3 3 6 7 6h238c4 0 7 -3 7 -6v-253
c-7 -11 -95 -80 -253 -80c-201 0 -363 158 -363 359zM424 825c-10 0 -19 8 -19 18c0 11 9 19 19 19c11 0 19 -8 19 -19c0 -10 -8 -18 -19 -18z" />
    <glyph glyph-name="Gcommaaccent" unicode="&#x122;" horiz-adv-x="755" 
d="M61 349c0 201 162 361 363 361c102 0 175 -36 243 -93c2 -2 3 -5 1 -8l-5 -6c-3 -3 -6 -2 -8 0c-65 56 -135 89 -231 89c-191 0 -345 -152 -345 -343s154 -341 345 -341c134 0 215 52 235 69v235h-227c-4 0 -7 3 -7 7v4c0 3 3 6 7 6h238c4 0 7 -3 7 -6v-253
c-7 -11 -95 -80 -253 -80c-201 0 -363 158 -363 359zM396 -133c0 12 10 22 23 22c21 0 52 -25 52 -92c0 -69 -62 -99 -62 -99c-4 -2 -7 -3 -9 1l-3 6c-2 4 -2 7 3 9c0 0 52 25 52 83c0 30 -7 47 -13 57c-5 -5 -11 -10 -20 -10c-13 0 -23 11 -23 23z" />
    <glyph glyph-name="Hcircumflex" unicode="&#x124;" horiz-adv-x="752" 
d="M112 7v686c0 4 3 7 7 7h4c4 0 7 -3 7 -7v-320h492v320c0 4 3 7 7 7h4c4 0 7 -3 7 -7v-686c0 -4 -3 -7 -7 -7h-4c-4 0 -7 3 -7 7v348h-492v-348c0 -4 -3 -7 -7 -7h-4c-4 0 -7 3 -7 7zM251 763c-4 -3 -6 0 -7 1l-4 5c-2 3 -1 5 2 8l129 106c2 2 6 2 8 0l129 -106
c3 -3 4 -5 2 -8l-4 -5c-1 -1 -3 -4 -7 -1l-124 101z" />
    <glyph glyph-name="Hbar" unicode="&#x126;" horiz-adv-x="752" 
d="M112 7v541h-29c-4 0 -7 3 -7 7v4c0 4 3 7 7 7h29v127c0 4 3 7 7 7h4c4 0 7 -3 7 -7v-127h492v127c0 4 3 7 7 7h4c4 0 7 -3 7 -7v-127h32c4 0 7 -3 7 -7v-4c0 -4 -3 -7 -7 -7h-32v-541c0 -4 -3 -7 -7 -7h-4c-4 0 -7 3 -7 7v348h-492v-348c0 -4 -3 -7 -7 -7h-4
c-4 0 -7 3 -7 7zM130 373h492v175h-492v-175z" />
    <glyph glyph-name="Igrave" unicode="&#xcc;" horiz-adv-x="242" 
d="M112 7v686c0 4 3 7 7 7h4c4 0 7 -3 7 -7v-686c0 -4 -3 -7 -7 -7h-4c-4 0 -7 3 -7 7zM219 778l-182 90c-4 2 -5 5 -3 9l2 4c3 5 6 4 9 3l182 -91c4 -2 4 -5 3 -7l-2 -5c-2 -4 -4 -5 -9 -3z" />
    <glyph glyph-name="Iacute" unicode="&#xcd;" horiz-adv-x="242" 
d="M112 7v686c0 4 3 7 7 7h4c4 0 7 -3 7 -7v-686c0 -4 -3 -7 -7 -7h-4c-4 0 -7 3 -7 7zM40 778c-5 -2 -7 -1 -9 3l-2 5c-1 2 -1 5 3 7l182 91c3 1 6 2 9 -3l2 -4c2 -4 1 -7 -3 -9z" />
    <glyph glyph-name="Ibreve" unicode="&#x12c;" horiz-adv-x="242" 
d="M112 7v686c0 4 3 7 7 7h4c4 0 7 -3 7 -7v-686c0 -4 -3 -7 -7 -7h-4c-4 0 -7 3 -7 7zM120 780c-67 0 -118 47 -127 108c-1 3 3 7 6 7h5c3 0 5 -3 5 -6c8 -53 54 -92 111 -92c56 0 102 39 111 92c0 3 2 6 5 6h5c3 0 7 -4 6 -7c-10 -61 -61 -108 -127 -108z" />
    <glyph glyph-name="Icircumflex" unicode="&#xce;" horiz-adv-x="242" 
d="M112 7v686c0 4 3 7 7 7h4c4 0 7 -3 7 -7v-686c0 -4 -3 -7 -7 -7h-4c-4 0 -7 3 -7 7zM-3 763c-4 -3 -6 0 -7 1l-4 5c-2 3 -1 5 2 8l129 106c2 2 6 2 8 0l129 -106c3 -3 4 -5 2 -8l-4 -5c-1 -1 -3 -4 -7 -1l-124 101z" />
    <glyph glyph-name="Itilde" unicode="&#x128;" horiz-adv-x="242" 
d="M112 7v686c0 4 3 7 7 7h4c4 0 7 -3 7 -7v-686c0 -4 -3 -7 -7 -7h-4c-4 0 -7 3 -7 7zM-16 802l-8 2c-4 1 -5 4 -3 9c6 19 27 84 86 84c45 0 59 -37 69 -61c8 -19 21 -46 53 -46c45 0 63 55 68 72c1 4 4 6 7 5l8 -2c4 -1 5 -4 3 -9c-6 -18 -27 -84 -86 -84
c-45 0 -62 38 -71 60c-7 17 -18 48 -51 48c-45 0 -63 -56 -68 -73c-1 -4 -4 -6 -7 -5z" />
    <glyph glyph-name="Idieresis" unicode="&#xcf;" horiz-adv-x="242" 
d="M112 7v686c0 4 3 7 7 7h4c4 0 7 -3 7 -7v-686c0 -4 -3 -7 -7 -7h-4c-4 0 -7 3 -7 7zM225 810c-12 0 -21 9 -21 20c0 12 9 21 21 21s21 -9 21 -21c0 -11 -9 -20 -21 -20zM18 810c-12 0 -21 9 -21 20c0 12 9 21 21 21s21 -9 21 -21c0 -11 -9 -20 -21 -20z" />
    <glyph glyph-name="Imacron" unicode="&#x12a;" horiz-adv-x="242" 
d="M112 7v686c0 4 3 7 7 7h4c4 0 7 -3 7 -7v-686c0 -4 -3 -7 -7 -7h-4c-4 0 -7 3 -7 7zM-24 842c-4 0 -7 3 -7 7v4c0 4 3 7 7 7h288c4 0 7 -3 7 -7v-4c0 -4 -3 -7 -7 -7h-288z" />
    <glyph glyph-name="Idotaccent" unicode="&#x130;" horiz-adv-x="242" 
d="M112 7v686c0 4 3 7 7 7h4c4 0 7 -3 7 -7v-686c0 -4 -3 -7 -7 -7h-4c-4 0 -7 3 -7 7zM120 825c-10 0 -19 8 -19 18c0 11 9 19 19 19c11 0 19 -8 19 -19c0 -10 -8 -18 -19 -18z" />
    <glyph glyph-name="Iogonek" unicode="&#x12e;" horiz-adv-x="243" 
d="M113 11v682c0 4 3 7 7 7h4c4 0 7 -3 7 -7v-682c0 -10 -2 -11 -4 -12c0 0 -92 -46 -92 -126c0 -56 45 -76 91 -76c34 0 60 10 68 14c4 2 6 2 8 -2l3 -6c2 -4 -1 -7 -3 -8c-11 -5 -38 -16 -76 -16c-56 0 -109 25 -109 94c0 78 75 126 96 138z" />
    <glyph glyph-name="Jcircumflex" unicode="&#x134;" horiz-adv-x="379" 
d="M-30 67c-2 3 -3 6 1 9l4 3c3 2 6 1 8 -2c16 -20 61 -69 142 -69c110 0 169 74 169 206v479c0 4 3 7 7 7h3c4 0 7 -3 7 -7v-479c0 -141 -66 -224 -186 -224c-89 0 -138 55 -155 77zM179 763c-4 -3 -6 0 -7 1l-4 5c-2 3 -1 5 2 8l129 106c2 2 6 2 8 0l129 -106
c3 -3 4 -5 2 -8l-4 -5c-1 -1 -3 -4 -7 -1l-124 101z" />
    <glyph glyph-name="Kcommaaccent" unicode="&#x136;" horiz-adv-x="559" 
d="M112 7v686c0 4 3 7 7 7h4c4 0 7 -3 7 -7v-333l372 339c3 3 7 3 10 0l3 -3c3 -3 3 -7 0 -10l-369 -335l379 -340c4 -4 6 -7 2 -11l-4 -4c-2 -2 -5 -2 -9 2l-384 344v-335c0 -4 -3 -7 -7 -7h-4c-4 0 -7 3 -7 7zM306 -133c0 12 10 22 23 22c21 0 52 -25 52 -92
c0 -69 -62 -99 -62 -99c-4 -2 -7 -3 -9 1l-3 6c-2 4 -2 7 3 9c0 0 52 25 52 83c0 30 -7 47 -13 57c-5 -5 -11 -10 -20 -10c-13 0 -23 11 -23 23z" />
    <glyph glyph-name="Lacute" unicode="&#x139;" horiz-adv-x="489" 
d="M112 7v686c0 4 3 7 7 7h4c3 0 6 -3 6 -7v-675h349c4 0 7 -3 7 -7v-4c0 -4 -3 -7 -7 -7h-359c-4 0 -7 3 -7 7zM89 778c-5 -2 -7 -1 -9 3l-2 5c-1 2 -1 5 3 7l182 91c3 1 6 2 9 -3l2 -4c2 -4 1 -7 -3 -9z" />
    <glyph glyph-name="Lcaron" unicode="&#x13d;" horiz-adv-x="489" 
d="M112 7v686c0 4 3 7 7 7h4c3 0 6 -3 6 -7v-675h349c4 0 7 -3 7 -7v-4c0 -4 -3 -7 -7 -7h-359c-4 0 -7 3 -7 7zM359 688c0 12 10 22 23 22c21 0 52 -25 52 -92c0 -69 -62 -99 -62 -99c-4 -2 -7 -3 -9 1l-3 6c-2 4 -2 7 3 9c0 0 52 25 52 83c0 30 -7 47 -13 57
c-5 -5 -11 -10 -20 -10c-13 0 -23 11 -23 23z" />
    <glyph glyph-name="Lcommaaccent" unicode="&#x13b;" horiz-adv-x="492" 
d="M112 7v686c0 4 3 7 7 7h4c3 0 6 -3 6 -7v-675h349c4 0 7 -3 7 -7v-4c0 -4 -3 -7 -7 -7h-359c-4 0 -7 3 -7 7zM263 -133c0 12 10 22 23 22c21 0 52 -25 52 -92c0 -69 -62 -99 -62 -99c-4 -2 -7 -3 -9 1l-3 6c-2 4 -2 7 3 9c0 0 52 25 52 83c0 30 -7 47 -13 57
c-5 -5 -11 -10 -20 -10c-13 0 -23 11 -23 23z" />
    <glyph glyph-name="Lslash" unicode="&#x141;" horiz-adv-x="498" 
d="M120 7v322l-44 -20c-4 -2 -6 -2 -8 1l-4 8c-1 3 1 6 4 7l52 24v344c0 4 3 7 7 7h4c4 0 7 -3 7 -7v-336l180 85c3 1 7 2 9 -3l3 -6c2 -3 -2 -6 -4 -7l-188 -89v-319h369c4 0 7 -3 7 -7v-4c0 -4 -3 -7 -7 -7h-380c-4 0 -7 3 -7 7z" />
    <glyph glyph-name="Ldot" unicode="&#x13f;" horiz-adv-x="530" 
d="M112 7v686c0 4 3 7 7 7h4c3 0 6 -3 6 -7v-675h349c4 0 7 -3 7 -7v-4c0 -4 -3 -7 -7 -7h-359c-4 0 -7 3 -7 7zM433 282c-13 0 -24 11 -24 24s11 23 24 23c14 0 24 -10 24 -23s-10 -24 -24 -24z" />
    <glyph glyph-name="Nacute" unicode="&#x143;" horiz-adv-x="772" 
d="M112 7v703c0 7 9 10 13 4l517 -689v668c0 4 3 7 7 7h4c4 0 7 -3 7 -7v-701c0 -7 -9 -10 -13 -4l-517 689v-670c0 -4 -3 -7 -7 -7h-4c-4 0 -7 3 -7 7zM329 778c-5 -2 -7 -1 -9 3l-2 5c-1 2 -1 5 3 7l182 91c3 1 6 2 9 -3l2 -4c2 -4 1 -7 -3 -9z" />
    <glyph glyph-name="Ncaron" unicode="&#x147;" horiz-adv-x="772" 
d="M112 7v703c0 7 9 10 13 4l517 -689v668c0 4 3 7 7 7h4c4 0 7 -3 7 -7v-701c0 -7 -9 -10 -13 -4l-517 689v-670c0 -4 -3 -7 -7 -7h-4c-4 0 -7 3 -7 7zM404 771l-129 106c-3 3 -4 5 -2 8l4 5c1 1 3 4 7 1l124 -101l124 101c4 3 6 0 7 -1l4 -5c2 -3 1 -5 -2 -8l-129 -106
c-2 -2 -6 -2 -8 0z" />
    <glyph glyph-name="Ntilde" unicode="&#xd1;" horiz-adv-x="772" 
d="M112 7v703c0 7 9 10 13 4l517 -689v668c0 4 3 7 7 7h4c4 0 7 -3 7 -7v-701c0 -7 -9 -10 -13 -4l-517 689v-670c0 -4 -3 -7 -7 -7h-4c-4 0 -7 3 -7 7zM272 802l-8 2c-4 1 -5 4 -3 9c6 19 27 84 86 84c45 0 59 -37 69 -61c8 -19 21 -46 53 -46c45 0 63 55 68 72
c1 4 4 6 7 5l8 -2c4 -1 5 -4 3 -9c-6 -18 -27 -84 -86 -84c-45 0 -62 38 -71 60c-7 17 -18 48 -51 48c-45 0 -63 -56 -68 -73c-1 -4 -4 -6 -7 -5z" />
    <glyph glyph-name="Ncommaaccent" unicode="&#x145;" horiz-adv-x="772" 
d="M112 7v703c0 7 9 10 13 4l517 -689v668c0 4 3 7 7 7h4c4 0 7 -3 7 -7v-701c0 -7 -9 -10 -13 -4l-517 689v-670c0 -4 -3 -7 -7 -7h-4c-4 0 -7 3 -7 7zM370 -133c0 12 10 22 23 22c21 0 52 -25 52 -92c0 -69 -62 -99 -62 -99c-4 -2 -7 -3 -9 1l-3 6c-2 4 -2 7 3 9
c0 0 52 25 52 83c0 30 -7 47 -13 57c-5 -5 -11 -10 -20 -10c-13 0 -23 11 -23 23z" />
    <glyph glyph-name="Ograve" unicode="&#xd2;" horiz-adv-x="846" 
d="M62 349c0 201 160 361 361 361s362 -160 362 -361s-161 -359 -362 -359s-361 158 -361 359zM80 349c0 -191 152 -341 343 -341s344 150 344 341s-153 343 -344 343s-343 -152 -343 -343zM521 778l-182 90c-4 2 -5 5 -3 9l2 4c3 5 6 4 9 3l182 -91c4 -2 4 -5 3 -7l-2 -5
c-2 -4 -4 -5 -9 -3z" />
    <glyph glyph-name="Oacute" unicode="&#xd3;" horiz-adv-x="846" 
d="M62 349c0 201 160 361 361 361s362 -160 362 -361s-161 -359 -362 -359s-361 158 -361 359zM80 349c0 -191 152 -341 343 -341s344 150 344 341s-153 343 -344 343s-343 -152 -343 -343zM343 778c-5 -2 -7 -1 -9 3l-2 5c-1 2 -1 5 3 7l182 91c3 1 6 2 9 -3l2 -4
c2 -4 1 -7 -3 -9z" />
    <glyph glyph-name="Ocircumflex" unicode="&#xd4;" horiz-adv-x="846" 
d="M62 349c0 201 160 361 361 361s362 -160 362 -361s-161 -359 -362 -359s-361 158 -361 359zM80 349c0 -191 152 -341 343 -341s344 150 344 341s-153 343 -344 343s-343 -152 -343 -343zM298 763c-4 -3 -6 0 -7 1l-4 5c-2 3 -1 5 2 8l129 106c2 2 6 2 8 0l129 -106
c3 -3 4 -5 2 -8l-4 -5c-1 -1 -3 -4 -7 -1l-124 101z" />
    <glyph glyph-name="Otilde" unicode="&#xd5;" horiz-adv-x="846" 
d="M62 349c0 201 160 361 361 361s362 -160 362 -361s-161 -359 -362 -359s-361 158 -361 359zM80 349c0 -191 152 -341 343 -341s344 150 344 341s-153 343 -344 343s-343 -152 -343 -343zM286 802l-8 2c-4 1 -5 4 -3 9c6 19 27 84 86 84c45 0 59 -37 69 -61
c8 -19 21 -46 53 -46c45 0 63 55 68 72c1 4 4 6 7 5l8 -2c4 -1 5 -4 3 -9c-6 -18 -27 -84 -86 -84c-45 0 -62 38 -71 60c-7 17 -18 48 -51 48c-45 0 -63 -56 -68 -73c-1 -4 -4 -6 -7 -5z" />
    <glyph glyph-name="Odieresis" unicode="&#xd6;" horiz-adv-x="846" 
d="M62 349c0 201 160 361 361 361s362 -160 362 -361s-161 -359 -362 -359s-361 158 -361 359zM80 349c0 -191 152 -341 343 -341s344 150 344 341s-153 343 -344 343s-343 -152 -343 -343zM527 810c-12 0 -21 9 -21 20c0 12 9 21 21 21s21 -9 21 -21c0 -11 -9 -20 -21 -20z
M320 810c-12 0 -21 9 -21 20c0 12 9 21 21 21s21 -9 21 -21c0 -11 -9 -20 -21 -20z" />
    <glyph glyph-name="Omacron" unicode="&#x14c;" horiz-adv-x="846" 
d="M62 349c0 201 160 361 361 361s362 -160 362 -361s-161 -359 -362 -359s-361 158 -361 359zM80 349c0 -191 152 -341 343 -341s344 150 344 341s-153 343 -344 343s-343 -152 -343 -343zM279 842c-4 0 -7 3 -7 7v4c0 4 3 7 7 7h288c4 0 7 -3 7 -7v-4c0 -4 -3 -7 -7 -7
h-288z" />
    <glyph glyph-name="Obreve" unicode="&#x14e;" horiz-adv-x="846" 
d="M62 349c0 201 160 361 361 361s362 -160 362 -361s-161 -359 -362 -359s-361 158 -361 359zM80 349c0 -191 152 -341 343 -341s344 150 344 341s-153 343 -344 343s-343 -152 -343 -343zM423 780c-67 0 -118 47 -127 108c-1 3 3 7 6 7h5c3 0 5 -3 5 -6
c8 -53 54 -92 111 -92c56 0 102 39 111 92c0 3 2 6 5 6h5c3 0 7 -4 6 -7c-10 -61 -61 -108 -127 -108z" />
    <glyph glyph-name="Ohungarumlaut" unicode="&#x150;" horiz-adv-x="846" 
d="M62 349c0 201 160 361 361 361s362 -160 362 -361s-161 -359 -362 -359s-361 158 -361 359zM80 349c0 -191 152 -341 343 -341s344 150 344 341s-153 343 -344 343s-343 -152 -343 -343zM507 757l-5 3c-3 2 -5 4 -2 9l108 173c3 4 5 4 9 2l5 -3c3 -2 5 -4 2 -9l-108 -173
c-3 -4 -5 -4 -9 -2zM341 757l-5 3c-3 2 -5 4 -2 9l108 173c3 4 5 4 9 2l5 -3c3 -2 5 -4 2 -9l-108 -173c-3 -4 -5 -4 -9 -2z" />
    <glyph glyph-name="Oslash" unicode="&#xd8;" horiz-adv-x="848" 
d="M88 34c-3 3 -3 7 0 10l66 64c-56 64 -91 148 -91 241c0 201 160 361 361 361c100 0 190 -39 255 -104l68 65c2 3 6 3 9 0l3 -3c3 -3 3 -7 0 -10l-68 -65c58 -65 95 -150 95 -244c0 -201 -161 -359 -362 -359c-102 0 -192 38 -258 104l-66 -63c-2 -3 -6 -3 -9 0zM167 120
l499 474c-63 61 -148 98 -242 98c-191 0 -343 -152 -343 -343c0 -89 32 -169 86 -229zM180 107c62 -63 148 -99 244 -99c191 0 344 150 344 341c0 89 -34 171 -89 232z" />
    <glyph glyph-name="Oslashacute" unicode="&#x1fe;" horiz-adv-x="848" 
d="M88 34c-3 3 -3 7 0 10l66 64c-56 64 -91 148 -91 241c0 201 160 361 361 361c100 0 190 -39 255 -104l68 65c2 3 6 3 9 0l3 -3c3 -3 3 -7 0 -10l-68 -65c58 -65 95 -150 95 -244c0 -201 -161 -359 -362 -359c-102 0 -192 38 -258 104l-66 -63c-2 -3 -6 -3 -9 0zM167 120
l499 474c-63 61 -148 98 -242 98c-191 0 -343 -152 -343 -343c0 -89 32 -169 86 -229zM180 107c62 -63 148 -99 244 -99c191 0 344 150 344 341c0 89 -34 171 -89 232zM344 778c-5 -2 -7 -1 -9 3l-2 5c-1 2 -1 5 3 7l182 91c3 1 6 2 9 -3l2 -4c2 -4 1 -7 -3 -9z" />
    <glyph glyph-name="OE" unicode="&#x152;" horiz-adv-x="992" 
d="M62 349c0 201 159 361 360 361c29 0 56 -4 83 -10h404c4 0 6 -3 6 -7v-4c0 -4 -2 -7 -6 -7h-396v-309h348c3 0 6 -3 6 -7v-4c0 -4 -3 -7 -6 -7h-348v-337h396c4 0 6 -3 6 -7v-4c0 -4 -2 -7 -6 -7h-402c-27 -6 -57 -10 -86 -10c-201 0 -359 158 -359 359zM79 349
c0 -191 151 -341 342 -341c26 0 49 2 74 8v668c-25 5 -47 8 -73 8c-191 0 -343 -152 -343 -343z" />
    <glyph glyph-name="Racute" unicode="&#x154;" horiz-adv-x="648" 
d="M112 7v686c0 4 3 7 7 7h237c125 0 228 -90 228 -214c0 -111 -79 -196 -182 -215l156 -261c2 -3 2 -6 -1 -8l-9 -5c-3 -1 -5 1 -6 3l-159 268c-9 -1 -17 -1 -26 -1h-228v-260c0 -4 -3 -7 -6 -7h-4c-4 0 -7 3 -7 7zM129 284h228c115 0 210 86 210 202
c0 114 -95 196 -211 196h-227v-398zM221 778c-5 -2 -7 -1 -9 3l-2 5c-1 2 -1 5 3 7l182 91c3 1 6 2 9 -3l2 -4c2 -4 1 -7 -3 -9z" />
    <glyph glyph-name="Rcaron" unicode="&#x158;" horiz-adv-x="648" 
d="M112 7v686c0 4 3 7 7 7h237c125 0 228 -90 228 -214c0 -111 -79 -196 -182 -215l156 -261c2 -3 2 -6 -1 -8l-9 -5c-3 -1 -5 1 -6 3l-159 268c-9 -1 -17 -1 -26 -1h-228v-260c0 -4 -3 -7 -6 -7h-4c-4 0 -7 3 -7 7zM129 284h228c115 0 210 86 210 202
c0 114 -95 196 -211 196h-227v-398zM296 771l-129 106c-3 3 -4 5 -2 8l4 5c1 1 3 4 7 1l124 -101l124 101c4 3 6 0 7 -1l4 -5c2 -3 1 -5 -2 -8l-129 -106c-2 -2 -6 -2 -8 0z" />
    <glyph glyph-name="Rcommaaccent" unicode="&#x156;" horiz-adv-x="648" 
d="M112 7v686c0 4 3 7 7 7h237c125 0 228 -90 228 -214c0 -111 -79 -196 -182 -215l156 -261c2 -3 2 -6 -1 -8l-9 -5c-3 -1 -5 1 -6 3l-159 268c-9 -1 -17 -1 -26 -1h-228v-260c0 -4 -3 -7 -6 -7h-4c-4 0 -7 3 -7 7zM129 284h228c115 0 210 86 210 202
c0 114 -95 196 -211 196h-227v-398zM283 -133c0 12 10 22 23 22c21 0 52 -25 52 -92c0 -69 -62 -99 -62 -99c-4 -2 -7 -3 -9 1l-3 6c-2 4 -2 7 3 9c0 0 52 25 52 83c0 30 -7 47 -13 57c-5 -5 -11 -10 -20 -10c-13 0 -23 11 -23 23z" />
    <glyph glyph-name="Sacute" unicode="&#x15a;" horiz-adv-x="556" 
d="M72 73c-3 3 -3 6 0 9l4 4c3 3 6 2 9 -1c13 -11 87 -77 200 -77c107 0 203 71 203 158c0 109 -87 148 -214 182c-121 33 -209 71 -209 187c0 81 61 175 218 175c100 0 173 -51 173 -51c3 -2 4 -5 2 -8l-4 -6c-2 -3 -4 -4 -8 -2c0 0 -71 49 -163 49
c-145 0 -200 -84 -200 -157c0 -102 79 -138 196 -169c140 -39 227 -84 227 -200c0 -96 -104 -176 -221 -176c-119 0 -200 71 -213 83zM209 763c-5 -2 -7 -1 -9 3l-2 5c-1 2 -1 5 3 7l182 91c3 1 6 2 9 -3l2 -4c2 -4 1 -7 -3 -9z" />
    <glyph glyph-name="Scircumflex" unicode="&#x15c;" horiz-adv-x="556" 
d="M72 73c-3 3 -3 6 0 9l4 4c3 3 6 2 9 -1c13 -11 87 -77 200 -77c107 0 203 71 203 158c0 109 -87 148 -214 182c-121 33 -209 71 -209 187c0 81 61 175 218 175c100 0 173 -51 173 -51c3 -2 4 -5 2 -8l-4 -6c-2 -3 -4 -4 -8 -2c0 0 -71 49 -163 49
c-145 0 -200 -84 -200 -157c0 -102 79 -138 196 -169c140 -39 227 -84 227 -200c0 -96 -104 -176 -221 -176c-119 0 -200 71 -213 83zM164 748c-4 -3 -6 0 -7 1l-4 5c-2 3 -1 5 2 8l129 106c2 2 6 2 8 0l129 -106c3 -3 4 -5 2 -8l-4 -5c-1 -1 -3 -4 -7 -1l-124 101z" />
    <glyph glyph-name="Scaron" unicode="&#x160;" horiz-adv-x="556" 
d="M72 73c-3 3 -3 6 0 9l4 4c3 3 6 2 9 -1c13 -11 87 -77 200 -77c107 0 203 71 203 158c0 109 -87 148 -214 182c-121 33 -209 71 -209 187c0 81 61 175 218 175c100 0 173 -51 173 -51c3 -2 4 -5 2 -8l-4 -6c-2 -3 -4 -4 -8 -2c0 0 -71 49 -163 49
c-145 0 -200 -84 -200 -157c0 -102 79 -138 196 -169c140 -39 227 -84 227 -200c0 -96 -104 -176 -221 -176c-119 0 -200 71 -213 83zM284 756l-129 106c-3 3 -4 5 -2 8l4 5c1 1 3 4 7 1l124 -101l124 101c4 3 6 0 7 -1l4 -5c2 -3 1 -5 -2 -8l-129 -106c-2 -2 -6 -2 -8 0z
" />
    <glyph glyph-name="Scedilla" unicode="&#x15e;" horiz-adv-x="557" 
d="M73 73c-3 3 -3 6 0 9l4 4c3 3 6 2 9 -1c13 -11 87 -77 200 -77c107 0 203 71 203 158c0 109 -87 148 -214 182c-121 33 -209 71 -209 187c0 81 61 175 218 175c100 0 173 -51 173 -51c3 -2 4 -5 2 -8l-4 -6c-2 -3 -4 -4 -8 -2c0 0 -71 49 -163 49
c-145 0 -200 -84 -200 -157c0 -102 79 -138 196 -169c140 -39 227 -84 227 -200c0 -96 -104 -176 -221 -176h-8v-44c60 -6 109 -31 109 -91c0 -48 -38 -90 -91 -90c-35 0 -61 16 -78 34c-3 3 -3 6 0 9l6 5c3 2 6 2 9 -1c14 -16 34 -29 63 -29c44 0 72 33 72 72
c0 51 -48 70 -101 74c-3 0 -6 2 -6 6v56c-105 9 -176 71 -188 82z" />
    <glyph glyph-name="Scommaaccent" unicode="&#x218;" horiz-adv-x="556" 
d="M72 73c-3 3 -3 6 0 9l4 4c3 3 6 2 9 -1c13 -11 87 -77 200 -77c107 0 203 71 203 158c0 109 -87 148 -214 182c-121 33 -209 71 -209 187c0 81 61 175 218 175c100 0 173 -51 173 -51c3 -2 4 -5 2 -8l-4 -6c-2 -3 -4 -4 -8 -2c0 0 -71 49 -163 49
c-145 0 -200 -84 -200 -157c0 -102 79 -138 196 -169c140 -39 227 -84 227 -200c0 -96 -104 -176 -221 -176c-119 0 -200 71 -213 83zM260 -148c0 12 10 22 23 22c21 0 52 -25 52 -92c0 -69 -62 -99 -62 -99c-4 -2 -7 -3 -9 1l-3 6c-2 4 -2 7 3 9c0 0 52 25 52 83
c0 30 -7 47 -13 57c-5 -5 -11 -10 -20 -10c-13 0 -23 11 -23 23z" />
    <glyph glyph-name="Tcaron" unicode="&#x164;" horiz-adv-x="462" 
d="M221 7v675h-208c-4 0 -7 3 -7 7v4c0 4 3 7 7 7h436c4 0 7 -3 7 -7v-4c0 -4 -3 -7 -7 -7h-210v-675c0 -4 -3 -7 -7 -7h-4c-4 0 -7 3 -7 7zM226 771l-129 106c-3 3 -4 5 -2 8l4 5c1 1 3 4 7 1l124 -101l124 101c4 3 6 0 7 -1l4 -5c2 -3 1 -5 -2 -8l-129 -106
c-2 -2 -6 -2 -8 0z" />
    <glyph glyph-name="Tcommaaccent" unicode="&#x162;" horiz-adv-x="460" 
d="M221 7v675h-208c-4 0 -7 3 -7 7v4c0 4 3 7 7 7h436c4 0 7 -3 7 -7v-4c0 -4 -3 -7 -7 -7h-210v-675c0 -4 -3 -7 -7 -7h-4c-4 0 -7 3 -7 7zM201 -133c0 12 10 22 23 22c21 0 52 -25 52 -92c0 -69 -62 -99 -62 -99c-4 -2 -7 -3 -9 1l-3 6c-2 4 -2 7 3 9c0 0 52 25 52 83
c0 30 -7 47 -13 57c-5 -5 -11 -10 -20 -10c-13 0 -23 11 -23 23z" />
    <glyph glyph-name="uni021A" unicode="&#x21a;" horiz-adv-x="460" 
d="M221 7v675h-208c-4 0 -7 3 -7 7v4c0 4 3 7 7 7h436c4 0 7 -3 7 -7v-4c0 -4 -3 -7 -7 -7h-210v-675c0 -4 -3 -7 -7 -7h-4c-4 0 -7 3 -7 7zM201 -133c0 12 10 22 23 22c21 0 52 -25 52 -92c0 -69 -62 -99 -62 -99c-4 -2 -7 -3 -9 1l-3 6c-2 4 -2 7 3 9c0 0 52 25 52 83
c0 30 -7 47 -13 57c-5 -5 -11 -10 -20 -10c-13 0 -23 11 -23 23z" />
    <glyph glyph-name="Tbar" unicode="&#x166;" horiz-adv-x="462" 
d="M221 8v304h-147c-4 0 -7 3 -7 7v4c0 3 3 6 7 6h147v353h-208c-4 0 -7 3 -7 7v4c0 4 3 7 7 7h436c4 0 7 -3 7 -7v-4c0 -4 -3 -7 -7 -7h-210v-353h151c4 0 7 -3 7 -6v-4c0 -4 -3 -7 -7 -7h-151v-304c0 -4 -3 -7 -7 -7h-4c-4 0 -7 3 -7 7z" />
    <glyph glyph-name="Thorn" unicode="&#xde;" horiz-adv-x="598" 
d="M112 7v686c0 4 3 7 7 7h4c4 0 7 -3 7 -7v-115h197c126 1 229 -102 229 -225c0 -127 -103 -229 -228 -229h-198v-117c0 -4 -3 -7 -7 -7h-4c-4 0 -7 3 -7 7zM130 141h198c115 0 210 95 210 212c0 114 -95 209 -211 208h-197v-420z" />
    <glyph glyph-name="Ugrave" unicode="&#xd9;" horiz-adv-x="726" 
d="M103 252v441c0 4 3 7 7 7h4c4 0 7 -3 7 -7v-441c0 -144 91 -244 240 -244c150 0 242 100 242 244v441c0 4 3 7 7 7h4c4 0 7 -3 7 -7v-441c0 -154 -100 -262 -260 -262c-159 0 -258 108 -258 262zM460 778l-182 90c-4 2 -5 5 -3 9l2 4c3 5 6 4 9 3l182 -91c4 -2 4 -5 3 -7
l-2 -5c-2 -4 -4 -5 -9 -3z" />
    <glyph glyph-name="Uacute" unicode="&#xda;" horiz-adv-x="726" 
d="M103 252v441c0 4 3 7 7 7h4c4 0 7 -3 7 -7v-441c0 -144 91 -244 240 -244c150 0 242 100 242 244v441c0 4 3 7 7 7h4c4 0 7 -3 7 -7v-441c0 -154 -100 -262 -260 -262c-159 0 -258 108 -258 262zM282 778c-5 -2 -7 -1 -9 3l-2 5c-1 2 -1 5 3 7l182 91c3 1 6 2 9 -3l2 -4
c2 -4 1 -7 -3 -9z" />
    <glyph glyph-name="Ucircumflex" unicode="&#xdb;" horiz-adv-x="726" 
d="M103 252v441c0 4 3 7 7 7h4c4 0 7 -3 7 -7v-441c0 -144 91 -244 240 -244c150 0 242 100 242 244v441c0 4 3 7 7 7h4c4 0 7 -3 7 -7v-441c0 -154 -100 -262 -260 -262c-159 0 -258 108 -258 262zM237 763c-4 -3 -6 0 -7 1l-4 5c-2 3 -1 5 2 8l129 106c2 2 6 2 8 0
l129 -106c3 -3 4 -5 2 -8l-4 -5c-1 -1 -3 -4 -7 -1l-124 101z" />
    <glyph glyph-name="Utilde" unicode="&#x168;" horiz-adv-x="726" 
d="M103 252v441c0 4 3 7 7 7h4c4 0 7 -3 7 -7v-441c0 -144 91 -244 240 -244c150 0 242 100 242 244v441c0 4 3 7 7 7h4c4 0 7 -3 7 -7v-441c0 -154 -100 -262 -260 -262c-159 0 -258 108 -258 262zM225 802l-8 2c-4 1 -5 4 -3 9c6 19 27 84 86 84c45 0 59 -37 69 -61
c8 -19 21 -46 53 -46c45 0 63 55 68 72c1 4 4 6 7 5l8 -2c4 -1 5 -4 3 -9c-6 -18 -27 -84 -86 -84c-45 0 -62 38 -71 60c-7 17 -18 48 -51 48c-45 0 -63 -56 -68 -73c-1 -4 -4 -6 -7 -5z" />
    <glyph glyph-name="Udieresis" unicode="&#xdc;" horiz-adv-x="726" 
d="M103 252v441c0 4 3 7 7 7h4c4 0 7 -3 7 -7v-441c0 -144 91 -244 240 -244c150 0 242 100 242 244v441c0 4 3 7 7 7h4c4 0 7 -3 7 -7v-441c0 -154 -100 -262 -260 -262c-159 0 -258 108 -258 262zM466 810c-12 0 -21 9 -21 20c0 12 9 21 21 21s21 -9 21 -21
c0 -11 -9 -20 -21 -20zM259 810c-12 0 -21 9 -21 20c0 12 9 21 21 21s21 -9 21 -21c0 -11 -9 -20 -21 -20z" />
    <glyph glyph-name="Umacron" unicode="&#x16a;" horiz-adv-x="726" 
d="M103 252v441c0 4 3 7 7 7h4c4 0 7 -3 7 -7v-441c0 -144 91 -244 240 -244c150 0 242 100 242 244v441c0 4 3 7 7 7h4c4 0 7 -3 7 -7v-441c0 -154 -100 -262 -260 -262c-159 0 -258 108 -258 262zM218 842c-4 0 -7 3 -7 7v4c0 4 3 7 7 7h288c4 0 7 -3 7 -7v-4
c0 -4 -3 -7 -7 -7h-288z" />
    <glyph glyph-name="Ubreve" unicode="&#x16c;" horiz-adv-x="726" 
d="M103 252v441c0 4 3 7 7 7h4c4 0 7 -3 7 -7v-441c0 -144 91 -244 240 -244c150 0 242 100 242 244v441c0 4 3 7 7 7h4c4 0 7 -3 7 -7v-441c0 -154 -100 -262 -260 -262c-159 0 -258 108 -258 262zM362 780c-67 0 -118 47 -127 108c-1 3 3 7 6 7h5c3 0 5 -3 5 -6
c8 -53 54 -92 111 -92c56 0 102 39 111 92c0 3 2 6 5 6h5c3 0 7 -4 6 -7c-10 -61 -61 -108 -127 -108z" />
    <glyph glyph-name="Uring" unicode="&#x16e;" horiz-adv-x="726" 
d="M103 252v441c0 4 3 7 7 7h4c4 0 7 -3 7 -7v-441c0 -144 91 -244 240 -244c150 0 242 100 242 244v441c0 4 3 7 7 7h4c4 0 7 -3 7 -7v-441c0 -154 -100 -262 -260 -262c-159 0 -258 108 -258 262zM363 750c-59 0 -104 45 -104 104c0 58 45 104 104 104
c58 0 104 -46 104 -104c0 -59 -46 -104 -104 -104zM363 766c47 0 87 40 87 88c0 47 -40 88 -87 88c-48 0 -87 -41 -87 -88c0 -48 39 -88 87 -88z" />
    <glyph glyph-name="Uhungarumlaut" unicode="&#x170;" horiz-adv-x="726" 
d="M103 252v441c0 4 3 7 7 7h4c4 0 7 -3 7 -7v-441c0 -144 91 -244 240 -244c150 0 242 100 242 244v441c0 4 3 7 7 7h4c4 0 7 -3 7 -7v-441c0 -154 -100 -262 -260 -262c-159 0 -258 108 -258 262zM446 757l-5 3c-3 2 -5 4 -2 9l108 173c3 4 5 4 9 2l5 -3c3 -2 5 -4 2 -9
l-108 -173c-3 -4 -5 -4 -9 -2zM280 757l-5 3c-3 2 -5 4 -2 9l108 173c3 4 5 4 9 2l5 -3c3 -2 5 -4 2 -9l-108 -173c-3 -4 -5 -4 -9 -2z" />
    <glyph glyph-name="Uogonek" unicode="&#x172;" horiz-adv-x="730" 
d="M106 252v441c0 4 3 7 7 7h4c4 0 7 -3 7 -7v-441c0 -144 91 -244 240 -244c150 0 242 100 242 244v441c0 4 3 7 7 7h4c4 0 7 -3 7 -7v-441c0 -153 -99 -260 -256 -262c-9 -4 -90 -49 -90 -125c0 -56 45 -76 91 -76c34 0 60 10 68 14c4 2 6 2 8 -2l3 -6c2 -4 -1 -7 -3 -8
c-11 -5 -38 -16 -76 -16c-56 0 -109 25 -109 94c0 62 47 106 77 127c-143 11 -231 114 -231 260z" />
    <glyph glyph-name="Wacute" unicode="&#x1e82;" horiz-adv-x="889" 
d="M245 -12l-204 705c-1 3 0 5 3 6l8 3c3 1 5 0 6 -3l194 -668l184 677c2 7 12 7 14 0l193 -676l187 667c1 3 3 4 6 3l8 -3c3 -1 4 -3 3 -6l-197 -705c-2 -7 -12 -7 -14 0l-193 676l-184 -676c-2 -7 -12 -7 -14 0zM355 778c-5 -2 -7 -1 -9 3l-2 5c-1 2 -1 5 3 7l182 91
c3 1 6 2 9 -3l2 -4c2 -4 1 -7 -3 -9z" />
    <glyph glyph-name="Wcircumflex" unicode="&#x174;" horiz-adv-x="889" 
d="M245 -12l-204 705c-1 3 0 5 3 6l8 3c3 1 5 0 6 -3l194 -668l184 677c2 7 12 7 14 0l193 -676l187 667c1 3 3 4 6 3l8 -3c3 -1 4 -3 3 -6l-197 -705c-2 -7 -12 -7 -14 0l-193 676l-184 -676c-2 -7 -12 -7 -14 0zM319 763c-4 -3 -6 0 -7 1l-4 5c-2 3 -1 5 2 8l129 106
c2 2 6 2 8 0l129 -106c3 -3 4 -5 2 -8l-4 -5c-1 -1 -3 -4 -7 -1l-124 101z" />
    <glyph glyph-name="Wdieresis" unicode="&#x1e84;" horiz-adv-x="889" 
d="M245 -12l-204 705c-1 3 0 5 3 6l8 3c3 1 5 0 6 -3l194 -668l184 677c2 7 12 7 14 0l193 -676l187 667c1 3 3 4 6 3l8 -3c3 -1 4 -3 3 -6l-197 -705c-2 -7 -12 -7 -14 0l-193 676l-184 -676c-2 -7 -12 -7 -14 0zM547 810c-12 0 -21 9 -21 20c0 12 9 21 21 21s21 -9 21 -21
c0 -11 -9 -20 -21 -20zM340 810c-12 0 -21 9 -21 20c0 12 9 21 21 21s21 -9 21 -21c0 -11 -9 -20 -21 -20z" />
    <glyph glyph-name="Wgrave" unicode="&#x1e80;" horiz-adv-x="889" 
d="M245 -12l-204 705c-1 3 0 5 3 6l8 3c3 1 5 0 6 -3l194 -668l184 677c2 7 12 7 14 0l193 -676l187 667c1 3 3 4 6 3l8 -3c3 -1 4 -3 3 -6l-197 -705c-2 -7 -12 -7 -14 0l-193 676l-184 -676c-2 -7 -12 -7 -14 0zM531 778l-182 90c-4 2 -5 5 -3 9l2 4c3 5 6 4 9 3l182 -91
c4 -2 4 -5 3 -7l-2 -5c-2 -4 -4 -5 -9 -3z" />
    <glyph glyph-name="Yacute" unicode="&#xdd;" horiz-adv-x="544" 
d="M263 7v336l-264 345c-2 3 -3 6 1 9l6 4c4 2 6 -1 8 -3l258 -339l258 339c2 3 5 5 8 3l6 -4c4 -3 3 -6 1 -9l-264 -344v-337c0 -4 -3 -7 -7 -7h-4c-4 0 -7 3 -7 7zM186 778c-5 -2 -7 -1 -9 3l-2 5c-1 2 -1 5 3 7l182 91c3 1 6 2 9 -3l2 -4c2 -4 1 -7 -3 -9z" />
    <glyph glyph-name="Ycircumflex" unicode="&#x176;" horiz-adv-x="544" 
d="M263 7v336l-264 345c-2 3 -3 6 1 9l6 4c4 2 6 -1 8 -3l258 -339l258 339c2 3 5 5 8 3l6 -4c4 -3 3 -6 1 -9l-264 -344v-337c0 -4 -3 -7 -7 -7h-4c-4 0 -7 3 -7 7zM148 763c-4 -3 -6 0 -7 1l-4 5c-2 3 -1 5 2 8l129 106c2 2 6 2 8 0l129 -106c3 -3 4 -5 2 -8l-4 -5
c-1 -1 -3 -4 -7 -1l-124 101z" />
    <glyph glyph-name="Ydieresis" unicode="&#x178;" horiz-adv-x="544" 
d="M263 7v336l-264 345c-2 3 -3 6 1 9l6 4c4 2 6 -1 8 -3l258 -339l258 339c2 3 5 5 8 3l6 -4c4 -3 3 -6 1 -9l-264 -344v-337c0 -4 -3 -7 -7 -7h-4c-4 0 -7 3 -7 7zM377 810c-12 0 -21 9 -21 20c0 12 9 21 21 21s21 -9 21 -21c0 -11 -9 -20 -21 -20zM170 810
c-12 0 -21 9 -21 20c0 12 9 21 21 21s21 -9 21 -21c0 -11 -9 -20 -21 -20z" />
    <glyph glyph-name="Ygrave" unicode="&#x1ef2;" horiz-adv-x="544" 
d="M263 7v336l-264 345c-2 3 -3 6 1 9l6 4c4 2 6 -1 8 -3l258 -339l258 339c2 3 5 5 8 3l6 -4c4 -3 3 -6 1 -9l-264 -344v-337c0 -4 -3 -7 -7 -7h-4c-4 0 -7 3 -7 7zM361 778l-182 90c-4 2 -5 5 -3 9l2 4c3 5 6 4 9 3l182 -91c4 -2 4 -5 3 -7l-2 -5c-2 -4 -4 -5 -9 -3z" />
    <glyph glyph-name="Zacute" unicode="&#x179;" horiz-adv-x="528" 
d="M29 11l439 671h-399c-4 0 -7 3 -7 7v4c0 4 3 7 7 7h419c6 0 9 -6 6 -11l-439 -671h411c4 0 7 -3 7 -7v-4c0 -4 -3 -7 -7 -7h-431c-6 0 -9 6 -6 11zM200 778c-5 -2 -7 -1 -9 3l-2 5c-1 2 -1 5 3 7l182 91c3 1 6 2 9 -3l2 -4c2 -4 1 -7 -3 -9z" />
    <glyph glyph-name="Zcaron" unicode="&#x17d;" horiz-adv-x="528" 
d="M29 11l439 671h-399c-4 0 -7 3 -7 7v4c0 4 3 7 7 7h419c6 0 9 -6 6 -11l-439 -671h411c4 0 7 -3 7 -7v-4c0 -4 -3 -7 -7 -7h-431c-6 0 -9 6 -6 11zM275 771l-129 106c-3 3 -4 5 -2 8l4 5c1 1 3 4 7 1l124 -101l124 101c4 3 6 0 7 -1l4 -5c2 -3 1 -5 -2 -8l-129 -106
c-2 -2 -6 -2 -8 0z" />
    <glyph glyph-name="Zdotaccent" unicode="&#x17b;" horiz-adv-x="528" 
d="M29 11l439 671h-399c-4 0 -7 3 -7 7v4c0 4 3 7 7 7h419c6 0 9 -6 6 -11l-439 -671h411c4 0 7 -3 7 -7v-4c0 -4 -3 -7 -7 -7h-431c-6 0 -9 6 -6 11zM279 825c-10 0 -19 8 -19 18c0 11 9 19 19 19c11 0 19 -8 19 -19c0 -10 -8 -18 -19 -18z" />
    <glyph glyph-name="agrave" unicode="&#xe0;" horiz-adv-x="436" 
d="M47 125c0 79 70 137 176 137c49 0 96 -15 118 -23v37c0 79 -26 116 -111 116c-76 0 -122 -30 -122 -30c-5 -3 -7 -1 -9 2l-3 5c-3 5 0 7 2 8c0 0 50 33 132 33c98 0 129 -43 129 -134v-269c0 -4 -3 -7 -7 -7h-4c-4 0 -7 3 -7 7v45c-31 -27 -89 -62 -155 -62
c-78 0 -139 51 -139 135zM65 125c0 -74 53 -117 121 -117c73 0 135 44 155 69v144c-14 4 -65 23 -118 23c-96 0 -158 -50 -158 -119zM311 560l-182 90c-4 2 -5 5 -3 9l2 4c3 5 6 4 9 3l182 -91c4 -2 4 -5 3 -7l-2 -5c-2 -4 -4 -5 -9 -3z" />
    <glyph glyph-name="aacute" unicode="&#xe1;" horiz-adv-x="436" 
d="M47 125c0 79 70 137 176 137c49 0 96 -15 118 -23v37c0 79 -26 116 -111 116c-76 0 -122 -30 -122 -30c-5 -3 -7 -1 -9 2l-3 5c-3 5 0 7 2 8c0 0 50 33 132 33c98 0 129 -43 129 -134v-269c0 -4 -3 -7 -7 -7h-4c-4 0 -7 3 -7 7v45c-31 -27 -89 -62 -155 -62
c-78 0 -139 51 -139 135zM65 125c0 -74 53 -117 121 -117c73 0 135 44 155 69v144c-14 4 -65 23 -118 23c-96 0 -158 -50 -158 -119zM135 560c-5 -2 -7 -1 -9 3l-2 5c-1 2 -1 5 3 7l182 91c3 1 6 2 9 -3l2 -4c2 -4 1 -7 -3 -9z" />
    <glyph glyph-name="acircumflex" unicode="&#xe2;" horiz-adv-x="436" 
d="M47 125c0 79 70 137 176 137c49 0 96 -15 118 -23v37c0 79 -26 116 -111 116c-76 0 -122 -30 -122 -30c-5 -3 -7 -1 -9 2l-3 5c-3 5 0 7 2 8c0 0 50 33 132 33c98 0 129 -43 129 -134v-269c0 -4 -3 -7 -7 -7h-4c-4 0 -7 3 -7 7v45c-31 -27 -89 -62 -155 -62
c-78 0 -139 51 -139 135zM65 125c0 -74 53 -117 121 -117c73 0 135 44 155 69v144c-14 4 -65 23 -118 23c-96 0 -158 -50 -158 -119zM98 548c-4 -3 -6 0 -7 1l-4 5c-2 3 -1 5 2 8l129 106c2 2 6 2 8 0l129 -106c3 -3 4 -5 2 -8l-4 -5c-1 -1 -3 -4 -7 -1l-124 101z" />
    <glyph glyph-name="atilde" unicode="&#xe3;" horiz-adv-x="436" 
d="M47 125c0 79 70 137 176 137c49 0 96 -15 118 -23v37c0 79 -26 116 -111 116c-76 0 -122 -30 -122 -30c-5 -3 -7 -1 -9 2l-3 5c-3 5 0 7 2 8c0 0 50 33 132 33c98 0 129 -43 129 -134v-269c0 -4 -3 -7 -7 -7h-4c-4 0 -7 3 -7 7v45c-31 -27 -89 -62 -155 -62
c-78 0 -139 51 -139 135zM65 125c0 -74 53 -117 121 -117c73 0 135 44 155 69v144c-14 4 -65 23 -118 23c-96 0 -158 -50 -158 -119zM91 583l-8 2c-4 1 -5 4 -3 9c6 19 27 84 86 84c45 0 59 -37 69 -61c8 -19 21 -46 53 -46c45 0 63 55 68 72c1 4 4 6 7 5l8 -2
c4 -1 5 -4 3 -9c-6 -18 -27 -84 -86 -84c-45 0 -62 38 -71 60c-7 17 -18 48 -51 48c-45 0 -63 -56 -68 -73c-1 -4 -4 -6 -7 -5z" />
    <glyph glyph-name="adieresis" unicode="&#xe4;" horiz-adv-x="436" 
d="M47 125c0 79 70 137 176 137c49 0 96 -15 118 -23v37c0 79 -26 116 -111 116c-76 0 -122 -30 -122 -30c-5 -3 -7 -1 -9 2l-3 5c-3 5 0 7 2 8c0 0 50 33 132 33c98 0 129 -43 129 -134v-269c0 -4 -3 -7 -7 -7h-4c-4 0 -7 3 -7 7v45c-31 -27 -89 -62 -155 -62
c-78 0 -139 51 -139 135zM65 125c0 -74 53 -117 121 -117c73 0 135 44 155 69v144c-14 4 -65 23 -118 23c-96 0 -158 -50 -158 -119zM325 607c-12 0 -20 9 -20 20c0 12 8 21 20 21s21 -9 21 -21c0 -11 -9 -20 -21 -20zM136 607c-12 0 -21 9 -21 20c0 12 9 21 21 21
s20 -9 20 -21c0 -11 -8 -20 -20 -20z" />
    <glyph glyph-name="amacron" unicode="&#x101;" horiz-adv-x="436" 
d="M47 125c0 79 70 137 176 137c49 0 96 -15 118 -23v37c0 79 -26 116 -111 116c-76 0 -122 -30 -122 -30c-5 -3 -7 -1 -9 2l-3 5c-3 5 0 7 2 8c0 0 50 33 132 33c98 0 129 -43 129 -134v-269c0 -4 -3 -7 -7 -7h-4c-4 0 -7 3 -7 7v45c-31 -27 -89 -62 -155 -62
c-78 0 -139 51 -139 135zM65 125c0 -74 53 -117 121 -117c73 0 135 44 155 69v144c-14 4 -65 23 -118 23c-96 0 -158 -50 -158 -119zM79 607c-4 0 -7 3 -7 7v4c0 4 3 7 7 7h288c4 0 7 -3 7 -7v-4c0 -4 -3 -7 -7 -7h-288z" />
    <glyph glyph-name="abreve" unicode="&#x103;" horiz-adv-x="436" 
d="M47 125c0 79 70 137 176 137c49 0 96 -15 118 -23v37c0 79 -26 116 -111 116c-76 0 -122 -30 -122 -30c-5 -3 -7 -1 -9 2l-3 5c-3 5 0 7 2 8c0 0 50 33 132 33c98 0 129 -43 129 -134v-269c0 -4 -3 -7 -7 -7h-4c-4 0 -7 3 -7 7v45c-31 -27 -89 -62 -155 -62
c-78 0 -139 51 -139 135zM65 125c0 -74 53 -117 121 -117c73 0 135 44 155 69v144c-14 4 -65 23 -118 23c-96 0 -158 -50 -158 -119zM223 545c-67 0 -118 47 -127 107c-1 4 3 8 6 8h5c3 0 5 -3 5 -6c8 -54 54 -93 111 -93c56 0 102 39 111 93c0 3 2 6 5 6h5c3 0 7 -4 6 -8
c-10 -60 -61 -107 -127 -107z" />
    <glyph glyph-name="aring" unicode="&#xe5;" horiz-adv-x="436" 
d="M47 125c0 79 70 137 176 137c49 0 96 -15 118 -23v37c0 79 -26 116 -111 116c-76 0 -122 -30 -122 -30c-5 -3 -7 -1 -9 2l-3 5c-3 5 0 7 2 8c0 0 50 33 132 33c98 0 129 -43 129 -134v-269c0 -4 -3 -7 -7 -7h-4c-4 0 -7 3 -7 7v45c-31 -27 -89 -62 -155 -62
c-78 0 -139 51 -139 135zM65 125c0 -74 53 -117 121 -117c73 0 135 44 155 69v144c-14 4 -65 23 -118 23c-96 0 -158 -50 -158 -119zM223 500c-59 0 -104 45 -104 104c0 58 45 104 104 104c58 0 104 -46 104 -104c0 -59 -46 -104 -104 -104zM223 516c47 0 87 40 87 88
c0 47 -40 88 -87 88c-48 0 -87 -41 -87 -88c0 -48 39 -88 87 -88z" />
    <glyph glyph-name="aringacute" unicode="&#x1fb;" horiz-adv-x="436" 
d="M47 125c0 79 70 137 176 137c49 0 96 -15 118 -23v37c0 79 -26 116 -111 116c-76 0 -122 -30 -122 -30c-5 -3 -7 -1 -9 2l-3 5c-3 5 0 7 2 8c0 0 50 33 132 33c98 0 129 -43 129 -134v-269c0 -4 -3 -7 -7 -7h-4c-4 0 -7 3 -7 7v45c-31 -27 -89 -62 -155 -62
c-78 0 -139 51 -139 135zM65 125c0 -74 53 -117 121 -117c73 0 135 44 155 69v144c-14 4 -65 23 -118 23c-96 0 -158 -50 -158 -119zM223 430c-59 0 -104 45 -104 104c0 58 45 104 104 104c58 0 104 -46 104 -104c0 -59 -46 -104 -104 -104zM223 446c47 0 87 40 87 88
c0 47 -40 88 -87 88c-48 0 -87 -41 -87 -88c0 -48 39 -88 87 -88zM135 641c-5 -2 -7 -1 -9 3l-2 5c-1 2 -1 5 3 7l182 91c3 1 6 2 9 -3l2 -4c2 -4 1 -7 -3 -9z" />
    <glyph glyph-name="aogonek" unicode="&#x105;" horiz-adv-x="436" 
d="M47 125c0 79 70 137 176 137c49 0 96 -15 118 -23v37c0 79 -26 116 -111 116c-76 0 -122 -30 -122 -30c-5 -3 -7 -1 -9 2l-3 5c-3 5 0 7 2 8c0 0 50 33 132 33c98 0 129 -43 129 -134v-269c0 -4 -2 -6 -5 -8c0 0 -92 -46 -92 -126c0 -56 45 -76 91 -76c34 0 60 10 68 14
c4 2 6 2 8 -2l3 -6c2 -4 -1 -7 -3 -8c-11 -5 -38 -16 -76 -16c-56 0 -109 25 -109 94c0 80 77 127 97 138v41c-31 -27 -89 -62 -155 -62c-78 0 -139 51 -139 135zM65 125c0 -74 53 -117 121 -117c73 0 135 44 155 69v144c-14 4 -65 23 -118 23c-96 0 -158 -50 -158 -119z
" />
    <glyph glyph-name="ae" unicode="&#xe6;" horiz-adv-x="721" 
d="M47 126c0 79 70 136 176 136c49 0 99 -15 121 -23v37c0 79 -28 116 -113 116c-77 0 -123 -30 -123 -30c-4 -2 -7 -2 -9 2l-3 6c-1 3 0 6 2 7c0 0 50 33 133 33c66 0 104 -21 120 -64c35 40 81 64 142 64c106 0 183 -76 183 -184c0 -7 -2 -25 -5 -30c-1 -2 -4 -4 -6 -4
h-303v-121c30 -34 77 -63 131 -63c63 0 114 25 137 43c4 3 6 1 7 -1l3 -6c2 -3 1 -5 -1 -7c-24 -19 -78 -47 -146 -47c-58 0 -106 27 -140 65c-28 -28 -94 -65 -167 -65c-78 0 -139 52 -139 136zM362 210h295c1 6 1 12 1 16c0 98 -69 166 -165 166c-60 0 -107 -26 -136 -68
c3 -14 5 -30 5 -48v-66zM65 126c0 -74 53 -118 121 -118c72 0 137 38 158 64v149c-14 4 -67 23 -121 23c-96 0 -158 -49 -158 -118z" />
    <glyph glyph-name="aeacute" unicode="&#x1fd;" horiz-adv-x="721" 
d="M47 126c0 79 70 136 176 136c49 0 99 -15 121 -23v37c0 79 -28 116 -113 116c-77 0 -123 -30 -123 -30c-4 -2 -7 -2 -9 2l-3 6c-1 3 0 6 2 7c0 0 50 33 133 33c66 0 104 -21 120 -64c35 40 81 64 142 64c106 0 183 -76 183 -184c0 -7 -2 -25 -5 -30c-1 -2 -4 -4 -6 -4
h-303v-121c30 -34 77 -63 131 -63c63 0 114 25 137 43c4 3 6 1 7 -1l3 -6c2 -3 1 -5 -1 -7c-24 -19 -78 -47 -146 -47c-58 0 -106 27 -140 65c-28 -28 -94 -65 -167 -65c-78 0 -139 52 -139 136zM362 210h295c1 6 1 12 1 16c0 98 -69 166 -165 166c-60 0 -107 -26 -136 -68
c3 -14 5 -30 5 -48v-66zM65 126c0 -74 53 -118 121 -118c72 0 137 38 158 64v149c-14 4 -67 23 -121 23c-96 0 -158 -49 -158 -118zM310 560c-5 -2 -7 -1 -9 3l-2 5c-1 2 -1 5 3 7l182 91c3 1 6 2 9 -3l2 -4c2 -4 1 -7 -3 -9z" />
    <glyph glyph-name="cacute" unicode="&#x107;" horiz-adv-x="476" 
d="M50 202c0 121 97 208 214 208c95 0 153 -55 153 -55c3 -3 2 -6 0 -8l-4 -4c-3 -3 -7 -2 -10 1c0 0 -51 48 -139 48c-107 0 -197 -79 -197 -190c0 -113 93 -194 197 -194c89 0 147 63 147 63c3 3 6 3 8 1l5 -5c2 -2 3 -4 1 -6c0 0 -62 -71 -161 -71
c-114 0 -214 89 -214 212zM169 560c-5 -2 -7 -1 -9 3l-2 5c-1 2 -1 5 3 7l182 91c3 1 6 2 9 -3l2 -4c2 -4 1 -7 -3 -9z" />
    <glyph glyph-name="ccircumflex" unicode="&#x109;" horiz-adv-x="476" 
d="M50 202c0 121 97 208 214 208c95 0 153 -55 153 -55c3 -3 2 -6 0 -8l-4 -4c-3 -3 -7 -2 -10 1c0 0 -51 48 -139 48c-107 0 -197 -79 -197 -190c0 -113 93 -194 197 -194c89 0 147 63 147 63c3 3 6 3 8 1l5 -5c2 -2 3 -4 1 -6c0 0 -62 -71 -161 -71
c-114 0 -214 89 -214 212zM132 548c-4 -3 -6 0 -7 1l-4 5c-2 3 -1 5 2 8l129 106c2 2 6 2 8 0l129 -106c3 -3 4 -5 2 -8l-4 -5c-1 -1 -3 -4 -7 -1l-124 101z" />
    <glyph glyph-name="ccaron" unicode="&#x10d;" horiz-adv-x="476" 
d="M50 202c0 121 97 208 214 208c95 0 153 -55 153 -55c3 -3 2 -6 0 -8l-4 -4c-3 -3 -7 -2 -10 1c0 0 -51 48 -139 48c-107 0 -197 -79 -197 -190c0 -113 93 -194 197 -194c89 0 147 63 147 63c3 3 6 3 8 1l5 -5c2 -2 3 -4 1 -6c0 0 -62 -71 -161 -71
c-114 0 -214 89 -214 212zM252 553l-129 106c-3 3 -4 5 -2 8l4 5c1 1 3 4 7 1l124 -101l124 101c4 3 6 0 7 -1l4 -5c2 -3 1 -5 -2 -8l-129 -106c-2 -2 -6 -2 -8 0z" />
    <glyph glyph-name="cdotaccent" unicode="&#x10b;" horiz-adv-x="476" 
d="M50 202c0 121 97 208 214 208c95 0 153 -55 153 -55c3 -3 2 -6 0 -8l-4 -4c-3 -3 -7 -2 -10 1c0 0 -51 48 -139 48c-107 0 -197 -79 -197 -190c0 -113 93 -194 197 -194c89 0 147 63 147 63c3 3 6 3 8 1l5 -5c2 -2 3 -4 1 -6c0 0 -62 -71 -161 -71
c-114 0 -214 89 -214 212zM256 599c-10 0 -19 9 -19 19s9 18 19 18c11 0 19 -8 19 -18s-8 -19 -19 -19z" />
    <glyph glyph-name="ccedilla" unicode="&#xe7;" horiz-adv-x="479" 
d="M52 202c0 121 97 208 214 208c95 0 153 -55 153 -55c3 -3 2 -6 0 -8l-4 -4c-3 -3 -7 -2 -10 1c0 0 -51 48 -139 48c-107 0 -197 -79 -197 -190c0 -113 93 -194 197 -194c89 0 147 63 147 63c3 3 6 3 8 1l5 -5c2 -2 3 -4 1 -6c0 0 -62 -71 -161 -71c-5 0 -10 0 -14 1v-45
c60 -6 109 -31 109 -91c0 -48 -38 -90 -91 -90c-35 0 -61 16 -78 34c-3 3 -3 6 0 9l6 5c3 2 6 2 9 -1c14 -16 34 -29 63 -29c44 0 72 33 72 72c0 51 -48 70 -101 74c-3 0 -6 2 -6 6v57c-101 14 -183 98 -183 210z" />
    <glyph glyph-name="dcaron" unicode="&#x10f;" horiz-adv-x="521" 
d="M52 201c0 120 84 209 201 209c86 0 140 -53 140 -53v336c0 4 3 7 7 7h4c3 0 6 -3 6 -7v-686c0 -4 -3 -7 -6 -7h-4c-4 0 -7 3 -7 7v48c-24 -27 -75 -65 -154 -65c-105 0 -187 93 -187 211zM69 201c0 -108 75 -193 170 -193c101 0 150 68 154 75v248s-50 61 -140 61
c-107 0 -184 -81 -184 -191zM522 520l-3 6c-2 4 -2 7 3 9c0 0 52 25 52 83c0 30 -7 47 -13 57c-5 -5 -11 -10 -20 -10c-13 0 -23 11 -23 23s10 22 23 22c21 0 52 -25 52 -92c0 -69 -62 -99 -62 -99c-4 -2 -7 -3 -9 1z" />
    <glyph glyph-name="dcroat" unicode="&#x111;" 
d="M52 201c0 120 81 209 198 209c86 0 143 -53 143 -53v191h-228c-4 0 -7 3 -7 7v4c0 4 3 7 7 7h228v127c0 4 3 7 7 7h4c3 0 6 -3 6 -7v-127h44c4 0 7 -3 7 -7v-4c0 -4 -3 -7 -7 -7h-44v-541c0 -4 -3 -7 -6 -7h-4c-4 0 -7 3 -7 7v52c-24 -27 -71 -69 -150 -69
c-105 0 -191 93 -191 211zM69 201c0 -108 79 -193 174 -193c101 0 146 72 150 79v244s-53 61 -143 61c-107 0 -181 -81 -181 -191z" />
    <glyph glyph-name="eth" unicode="&#xf0;" horiz-adv-x="564" 
d="M49 222c0 135 104 221 219 221c118 0 189 -75 221 -118c-15 125 -85 213 -156 272l-134 -77c-3 -2 -7 -1 -9 3l-2 3c-2 3 -1 7 3 9l127 73c-56 43 -112 68 -141 79c-4 2 -5 4 -4 8l2 7c1 3 5 4 8 3c31 -11 92 -39 152 -87l68 39c3 2 7 1 9 -2l2 -3c2 -4 1 -8 -3 -10
l-62 -36c82 -69 160 -176 160 -330c0 -160 -86 -286 -235 -286c-122 0 -225 103 -225 232zM66 222c0 -119 95 -214 208 -214c139 0 218 117 218 268v14c-6 9 -76 135 -224 135c-106 0 -202 -78 -202 -203z" />
    <glyph glyph-name="egrave" unicode="&#xe8;" horiz-adv-x="477" 
d="M71 193c3 -104 69 -185 178 -185c63 0 114 25 136 43c4 3 7 1 8 -1l4 -6c2 -3 0 -5 -2 -7c-25 -19 -79 -47 -146 -47c-122 0 -197 94 -197 212c0 116 75 208 197 208c106 0 182 -75 182 -183c0 -7 -1 -25 -4 -30c-1 -2 -4 -4 -6 -4h-350zM71 210h341c1 6 1 13 1 17
c0 98 -70 165 -164 165c-109 0 -174 -80 -178 -182zM334 560l-182 90c-4 2 -5 5 -3 9l2 4c3 5 6 4 9 3l182 -91c4 -2 4 -5 3 -7l-2 -5c-2 -4 -4 -5 -9 -3z" />
    <glyph glyph-name="eacute" unicode="&#xe9;" horiz-adv-x="477" 
d="M71 193c3 -104 69 -185 178 -185c63 0 114 25 136 43c4 3 7 1 8 -1l4 -6c2 -3 0 -5 -2 -7c-25 -19 -79 -47 -146 -47c-122 0 -197 94 -197 212c0 116 75 208 197 208c106 0 182 -75 182 -183c0 -7 -1 -25 -4 -30c-1 -2 -4 -4 -6 -4h-350zM71 210h341c1 6 1 13 1 17
c0 98 -70 165 -164 165c-109 0 -174 -80 -178 -182zM158 560c-5 -2 -7 -1 -9 3l-2 5c-1 2 -1 5 3 7l182 91c3 1 6 2 9 -3l2 -4c2 -4 1 -7 -3 -9z" />
    <glyph glyph-name="ecircumflex" unicode="&#xea;" horiz-adv-x="477" 
d="M71 193c3 -104 69 -185 178 -185c63 0 114 25 136 43c4 3 7 1 8 -1l4 -6c2 -3 0 -5 -2 -7c-25 -19 -79 -47 -146 -47c-122 0 -197 94 -197 212c0 116 75 208 197 208c106 0 182 -75 182 -183c0 -7 -1 -25 -4 -30c-1 -2 -4 -4 -6 -4h-350zM71 210h341c1 6 1 13 1 17
c0 98 -70 165 -164 165c-109 0 -174 -80 -178 -182zM121 548c-4 -3 -6 0 -7 1l-4 5c-2 3 -1 5 2 8l129 106c2 2 6 2 8 0l129 -106c3 -3 4 -5 2 -8l-4 -5c-1 -1 -3 -4 -7 -1l-124 101z" />
    <glyph glyph-name="ecaron" unicode="&#x11b;" horiz-adv-x="477" 
d="M71 193c3 -104 69 -185 178 -185c63 0 114 25 136 43c4 3 7 1 8 -1l4 -6c2 -3 0 -5 -2 -7c-25 -19 -79 -47 -146 -47c-122 0 -197 94 -197 212c0 116 75 208 197 208c106 0 182 -75 182 -183c0 -7 -1 -25 -4 -30c-1 -2 -4 -4 -6 -4h-350zM71 210h341c1 6 1 13 1 17
c0 98 -70 165 -164 165c-109 0 -174 -80 -178 -182zM241 553l-129 106c-3 3 -4 5 -2 8l4 5c1 1 3 4 7 1l124 -101l124 101c4 3 6 0 7 -1l4 -5c2 -3 1 -5 -2 -8l-129 -106c-2 -2 -6 -2 -8 0z" />
    <glyph glyph-name="edieresis" unicode="&#xeb;" horiz-adv-x="477" 
d="M71 193c3 -104 69 -185 178 -185c63 0 114 25 136 43c4 3 7 1 8 -1l4 -6c2 -3 0 -5 -2 -7c-25 -19 -79 -47 -146 -47c-122 0 -197 94 -197 212c0 116 75 208 197 208c106 0 182 -75 182 -183c0 -7 -1 -25 -4 -30c-1 -2 -4 -4 -6 -4h-350zM71 210h341c1 6 1 13 1 17
c0 98 -70 165 -164 165c-109 0 -174 -80 -178 -182zM358 607c-12 0 -20 9 -20 20c0 12 8 21 20 21s21 -9 21 -21c0 -11 -9 -20 -21 -20zM169 607c-12 0 -21 9 -21 20c0 12 9 21 21 21s20 -9 20 -21c0 -11 -8 -20 -20 -20z" />
    <glyph glyph-name="emacron" unicode="&#x113;" horiz-adv-x="477" 
d="M71 193c3 -104 69 -185 178 -185c63 0 114 25 136 43c4 3 7 1 8 -1l4 -6c2 -3 0 -5 -2 -7c-25 -19 -79 -47 -146 -47c-122 0 -197 94 -197 212c0 116 75 208 197 208c106 0 182 -75 182 -183c0 -7 -1 -25 -4 -30c-1 -2 -4 -4 -6 -4h-350zM71 210h341c1 6 1 13 1 17
c0 98 -70 165 -164 165c-109 0 -174 -80 -178 -182zM102 607c-4 0 -7 3 -7 7v4c0 4 3 7 7 7h288c4 0 7 -3 7 -7v-4c0 -4 -3 -7 -7 -7h-288z" />
    <glyph glyph-name="ebreve" unicode="&#x115;" horiz-adv-x="477" 
d="M71 193c3 -104 69 -185 178 -185c63 0 114 25 136 43c4 3 7 1 8 -1l4 -6c2 -3 0 -5 -2 -7c-25 -19 -79 -47 -146 -47c-122 0 -197 94 -197 212c0 116 75 208 197 208c106 0 182 -75 182 -183c0 -7 -1 -25 -4 -30c-1 -2 -4 -4 -6 -4h-350zM71 210h341c1 6 1 13 1 17
c0 98 -70 165 -164 165c-109 0 -174 -80 -178 -182zM246 545c-67 0 -118 47 -127 107c-1 4 3 8 6 8h5c3 0 5 -3 5 -6c8 -54 54 -93 111 -93c56 0 102 39 111 93c0 3 2 6 5 6h5c3 0 7 -4 6 -8c-10 -60 -61 -107 -127 -107z" />
    <glyph glyph-name="edotaccent" unicode="&#x117;" horiz-adv-x="477" 
d="M71 193c3 -104 69 -185 178 -185c63 0 114 25 136 43c4 3 7 1 8 -1l4 -6c2 -3 0 -5 -2 -7c-25 -19 -79 -47 -146 -47c-122 0 -197 94 -197 212c0 116 75 208 197 208c106 0 182 -75 182 -183c0 -7 -1 -25 -4 -30c-1 -2 -4 -4 -6 -4h-350zM71 210h341c1 6 1 13 1 17
c0 98 -70 165 -164 165c-109 0 -174 -80 -178 -182zM245 599c-10 0 -19 9 -19 19s9 18 19 18c11 0 19 -8 19 -18s-8 -19 -19 -19z" />
    <glyph glyph-name="eogonek" unicode="&#x119;" horiz-adv-x="479" 
d="M72 193c3 -104 69 -185 178 -185c63 0 114 25 136 43c4 3 7 1 8 -1l4 -6c2 -3 0 -5 -2 -7c-22 -17 -66 -40 -122 -46c-8 -4 -89 -51 -89 -128c0 -56 45 -76 91 -76c34 0 60 10 68 14c4 2 6 2 8 -2l3 -6c2 -4 -1 -7 -3 -8c-11 -5 -38 -16 -76 -16c-56 0 -109 25 -109 94
c0 63 48 106 78 127c-119 3 -192 95 -192 212c0 116 75 208 197 208c106 0 182 -75 182 -183c0 -7 -1 -25 -4 -30c-1 -2 -4 -4 -6 -4h-350zM72 210h341c1 6 1 13 1 17c0 98 -70 165 -164 165c-109 0 -174 -80 -178 -182z" />
    <glyph glyph-name="gcircumflex" unicode="&#x11d;" horiz-adv-x="464" 
d="M40 50c0 58 42 87 64 98c-21 28 -30 64 -30 101c0 88 64 161 166 161h31h1h143c4 0 7 -3 7 -7v-4c0 -4 -3 -7 -7 -7h-91c38 -20 80 -56 80 -143s-64 -162 -164 -162c-57 0 -98 19 -124 47c-15 -7 -58 -31 -58 -84c0 -43 33 -68 66 -68h184c87 0 146 -37 146 -128
c0 -86 -79 -164 -202 -164c-137 0 -198 89 -198 158c0 58 36 97 68 117c-40 1 -82 33 -82 85zM240 105c90 0 146 67 146 144c0 135 -116 143 -116 143h-30c-92 0 -148 -65 -148 -143c0 -75 42 -144 148 -144zM72 -152c0 -61 54 -140 180 -140c114 0 184 69 184 146
c0 79 -51 111 -128 111h-142c-19 -2 -94 -39 -94 -117zM131 548c-4 -3 -6 0 -7 1l-4 5c-2 3 -1 5 2 8l129 106c2 2 6 2 8 0l129 -106c3 -3 4 -5 2 -8l-4 -5c-1 -1 -3 -4 -7 -1l-124 101z" />
    <glyph glyph-name="gbreve" unicode="&#x11f;" horiz-adv-x="464" 
d="M40 50c0 58 42 87 64 98c-21 28 -30 64 -30 101c0 88 64 161 166 161h31h1h143c4 0 7 -3 7 -7v-4c0 -4 -3 -7 -7 -7h-91c38 -20 80 -56 80 -143s-64 -162 -164 -162c-57 0 -98 19 -124 47c-15 -7 -58 -31 -58 -84c0 -43 33 -68 66 -68h184c87 0 146 -37 146 -128
c0 -86 -79 -164 -202 -164c-137 0 -198 89 -198 158c0 58 36 97 68 117c-40 1 -82 33 -82 85zM240 105c90 0 146 67 146 144c0 135 -116 143 -116 143h-30c-92 0 -148 -65 -148 -143c0 -75 42 -144 148 -144zM72 -152c0 -61 54 -140 180 -140c114 0 184 69 184 146
c0 79 -51 111 -128 111h-142c-19 -2 -94 -39 -94 -117zM256 545c-67 0 -118 47 -127 107c-1 4 3 8 6 8h5c3 0 5 -3 5 -6c8 -54 54 -93 111 -93c56 0 102 39 111 93c0 3 2 6 5 6h5c3 0 7 -4 6 -8c-10 -60 -61 -107 -127 -107z" />
    <glyph glyph-name="gdotaccent" unicode="&#x121;" horiz-adv-x="464" 
d="M40 50c0 58 42 87 64 98c-21 28 -30 64 -30 101c0 88 64 161 166 161h31h1h143c4 0 7 -3 7 -7v-4c0 -4 -3 -7 -7 -7h-91c38 -20 80 -56 80 -143s-64 -162 -164 -162c-57 0 -98 19 -124 47c-15 -7 -58 -31 -58 -84c0 -43 33 -68 66 -68h184c87 0 146 -37 146 -128
c0 -86 -79 -164 -202 -164c-137 0 -198 89 -198 158c0 58 36 97 68 117c-40 1 -82 33 -82 85zM240 105c90 0 146 67 146 144c0 135 -116 143 -116 143h-30c-92 0 -148 -65 -148 -143c0 -75 42 -144 148 -144zM72 -152c0 -61 54 -140 180 -140c114 0 184 69 184 146
c0 79 -51 111 -128 111h-142c-19 -2 -94 -39 -94 -117zM255 599c-10 0 -19 9 -19 19s9 18 19 18c11 0 19 -8 19 -18s-8 -19 -19 -19z" />
    <glyph glyph-name="gcommaaccent" unicode="&#x123;" horiz-adv-x="464" 
d="M263 545c-21 0 -52 25 -52 92c0 69 62 99 62 99c4 2 7 3 9 -1l3 -6c2 -4 2 -7 -3 -9c0 0 -52 -25 -52 -83c0 -30 7 -47 13 -57c5 5 11 10 20 10c13 0 23 -11 23 -23s-10 -22 -23 -22zM40 50c0 58 42 87 64 98c-21 28 -30 64 -30 101c0 88 64 161 166 161h31h1h143
c4 0 7 -3 7 -7v-4c0 -4 -3 -7 -7 -7h-91c38 -20 80 -56 80 -143s-64 -162 -164 -162c-57 0 -98 19 -124 47c-15 -7 -58 -31 -58 -84c0 -43 33 -68 66 -68h184c87 0 146 -37 146 -128c0 -86 -79 -164 -202 -164c-137 0 -198 89 -198 158c0 58 36 97 68 117
c-40 1 -82 33 -82 85zM240 105c90 0 146 67 146 144c0 135 -116 143 -116 143h-30c-92 0 -148 -65 -148 -143c0 -75 42 -144 148 -144zM72 -152c0 -61 54 -140 180 -140c114 0 184 69 184 146c0 79 -51 111 -128 111h-142c-19 -2 -94 -39 -94 -117z" />
    <glyph glyph-name="hcircumflex" unicode="&#x125;" horiz-adv-x="496" 
d="M81 7v686c0 4 3 7 7 7h4c4 0 7 -3 7 -7v-358c25 27 78 75 156 75c108 0 166 -65 166 -186v-217c0 -4 -3 -7 -7 -7h-4c-4 0 -7 3 -7 7v217c0 109 -52 168 -148 168c-89 0 -148 -74 -156 -85v-300c0 -4 -3 -7 -7 -7h-4c-4 0 -7 3 -7 7zM-34 765c-4 -3 -6 0 -7 1l-4 5
c-2 3 -1 5 2 8l129 106c2 2 6 2 8 0l129 -106c3 -3 4 -5 2 -8l-4 -5c-1 -1 -3 -4 -7 -1l-124 101z" />
    <glyph glyph-name="hbar" unicode="&#x127;" horiz-adv-x="505" 
d="M81 7v541h-44c-4 0 -7 3 -7 7v4c0 4 3 7 7 7h44v127c0 4 3 7 7 7h4c4 0 7 -3 7 -7v-127h227c4 0 7 -3 7 -7v-4c0 -4 -3 -7 -7 -7h-227v-213c24 27 78 75 156 75c106 0 175 -65 175 -186v-217c0 -4 -3 -7 -7 -7h-4c-4 0 -7 3 -7 7v217c0 109 -60 168 -157 168
c-90 0 -149 -74 -156 -85v-300c0 -4 -3 -7 -7 -7h-4c-4 0 -7 3 -7 7z" />
    <glyph glyph-name="dotlessi" unicode="&#x131;" horiz-adv-x="180" 
d="M81 7v386c0 4 3 7 7 7h4c4 0 7 -3 7 -7v-386c0 -4 -3 -7 -7 -7h-4c-4 0 -7 3 -7 7z" />
    <glyph glyph-name="igrave" unicode="&#xec;" horiz-adv-x="180" 
d="M81 7v386c0 4 3 7 7 7h4c4 0 7 -3 7 -7v-386c0 -4 -3 -7 -7 -7h-4c-4 0 -7 3 -7 7zM178 560l-182 90c-4 2 -5 5 -3 9l2 4c3 5 6 4 9 3l182 -91c4 -2 4 -5 3 -7l-2 -5c-2 -4 -4 -5 -9 -3z" />
    <glyph glyph-name="iacute" unicode="&#xed;" horiz-adv-x="180" 
d="M81 7v386c0 4 3 7 7 7h4c4 0 7 -3 7 -7v-386c0 -4 -3 -7 -7 -7h-4c-4 0 -7 3 -7 7zM2 560c-5 -2 -7 -1 -9 3l-2 5c-1 2 -1 5 3 7l182 91c3 1 6 2 9 -3l2 -4c2 -4 1 -7 -3 -9z" />
    <glyph glyph-name="ibreve" unicode="&#x12d;" horiz-adv-x="180" 
d="M81 7v386c0 4 3 7 7 7h4c4 0 7 -3 7 -7v-386c0 -4 -3 -7 -7 -7h-4c-4 0 -7 3 -7 7zM90 545c-67 0 -118 47 -127 107c-1 4 3 8 6 8h5c3 0 5 -3 5 -6c8 -54 54 -93 111 -93c56 0 102 39 111 93c0 3 2 6 5 6h5c3 0 7 -4 6 -8c-10 -60 -61 -107 -127 -107z" />
    <glyph glyph-name="icircumflex" unicode="&#xee;" horiz-adv-x="180" 
d="M81 7v386c0 4 3 7 7 7h4c4 0 7 -3 7 -7v-386c0 -4 -3 -7 -7 -7h-4c-4 0 -7 3 -7 7zM-34 548c-4 -3 -6 0 -7 1l-4 5c-2 3 -1 5 2 8l129 106c2 2 6 2 8 0l129 -106c3 -3 4 -5 2 -8l-4 -5c-1 -1 -3 -4 -7 -1l-124 101z" />
    <glyph glyph-name="itilde" unicode="&#x129;" horiz-adv-x="180" 
d="M81 7v386c0 4 3 7 7 7h4c4 0 7 -3 7 -7v-386c0 -4 -3 -7 -7 -7h-4c-4 0 -7 3 -7 7zM-46 583l-8 2c-4 1 -5 4 -3 9c6 19 27 84 86 84c45 0 59 -37 69 -61c8 -19 21 -46 53 -46c45 0 63 55 68 72c1 4 4 6 7 5l8 -2c4 -1 5 -4 3 -9c-6 -18 -27 -84 -86 -84
c-45 0 -62 38 -71 60c-7 17 -18 48 -51 48c-45 0 -63 -56 -68 -73c-1 -4 -4 -6 -7 -5z" />
    <glyph glyph-name="idieresis" unicode="&#xef;" horiz-adv-x="180" 
d="M81 7v386c0 4 3 7 7 7h4c4 0 7 -3 7 -7v-386c0 -4 -3 -7 -7 -7h-4c-4 0 -7 3 -7 7zM185 607c-12 0 -20 9 -20 20c0 12 8 21 20 21s21 -9 21 -21c0 -11 -9 -20 -21 -20zM-4 607c-12 0 -21 9 -21 20c0 12 9 21 21 21s20 -9 20 -21c0 -11 -8 -20 -20 -20z" />
    <glyph glyph-name="imacron" unicode="&#x12b;" horiz-adv-x="180" 
d="M81 7v386c0 4 3 7 7 7h4c4 0 7 -3 7 -7v-386c0 -4 -3 -7 -7 -7h-4c-4 0 -7 3 -7 7zM-54 607c-4 0 -7 3 -7 7v4c0 4 3 7 7 7h288c4 0 7 -3 7 -7v-4c0 -4 -3 -7 -7 -7h-288z" />
    <glyph glyph-name="iogonek" unicode="&#x12f;" horiz-adv-x="180" 
d="M-13 -127c0 76 70 124 94 137v383c0 4 3 7 7 7h4c4 0 7 -3 7 -7v-388c0 -2 -2 -5 -4 -6c0 0 -90 -46 -90 -126c0 -56 45 -76 91 -76c34 0 60 10 68 14c4 2 6 2 8 -2l3 -6c2 -4 -1 -7 -3 -8c-11 -5 -38 -16 -76 -16c-56 0 -109 25 -109 94zM91 607c-12 0 -20 9 -20 20
s8 21 20 21c11 0 20 -10 20 -21s-9 -20 -20 -20z" />
    <glyph glyph-name="dotlessj" unicode="&#x237;" horiz-adv-x="180" 
d="M81 -134v527c0 4 3 7 7 7h4c4 0 7 -3 7 -7v-527c0 -120 -49 -176 -140 -176c-55 0 -95 25 -113 43c-3 3 -3 7 0 10l3 3c3 3 6 3 9 0c17 -16 50 -38 101 -38c79 0 122 50 122 158z" />
    <glyph glyph-name="jcircumflex" unicode="&#x135;" horiz-adv-x="180" 
d="M81 -134v527c0 4 3 7 7 7h4c4 0 7 -3 7 -7v-527c0 -120 -49 -176 -140 -176c-55 0 -95 25 -113 43c-3 3 -3 7 0 10l3 3c3 3 6 3 9 0c17 -16 50 -38 101 -38c79 0 122 50 122 158zM-35 548c-4 -3 -6 0 -7 1l-4 5c-2 3 -1 5 2 8l129 106c2 2 6 2 8 0l129 -106
c3 -3 4 -5 2 -8l-4 -5c-1 -1 -3 -4 -7 -1l-124 101z" />
    <glyph glyph-name="kcommaaccent" unicode="&#x137;" horiz-adv-x="413" 
d="M81 7v686c0 4 3 7 7 7h4c4 0 7 -3 7 -7v-462l261 174c3 2 6 2 8 -1l4 -7c2 -3 1 -6 -2 -8l-252 -167l268 -210c3 -3 4 -6 1 -9l-5 -6c-2 -3 -5 -3 -7 -1l-276 218v-207c0 -4 -3 -7 -7 -7h-4c-4 0 -7 3 -7 7zM181 -133c0 12 10 22 23 22c21 0 52 -25 52 -92
c0 -69 -62 -99 -62 -99c-4 -2 -7 -3 -9 1l-3 6c-2 4 -2 7 3 9c0 0 52 25 52 83c0 30 -7 47 -13 57c-5 -5 -11 -10 -20 -10c-13 0 -23 11 -23 23z" />
    <glyph glyph-name="kgreenlandic" unicode="&#x138;" horiz-adv-x="413" 
d="M81 7v386c0 4 3 7 7 7h4c4 0 7 -3 7 -7v-185l260 197c3 2 6 2 8 -1l5 -7c2 -3 1 -6 -2 -8l-252 -190l268 -187c3 -2 4 -6 1 -9l-5 -6c-2 -3 -5 -3 -7 -1l-276 195v-184c0 -4 -3 -7 -7 -7h-4c-4 0 -7 3 -7 7z" />
    <glyph glyph-name="lacute" unicode="&#x13a;" horiz-adv-x="180" 
d="M81 7v686c0 4 3 7 7 7h4c4 0 7 -3 7 -7v-686c0 -4 -3 -7 -7 -7h-4c-4 0 -7 3 -7 7zM2 777c-5 -2 -7 -1 -9 3l-2 5c-1 2 -1 5 3 7l182 91c3 1 6 2 9 -3l2 -4c2 -4 1 -7 -3 -9z" />
    <glyph glyph-name="lcaron" unicode="&#x13e;" horiz-adv-x="210" 
d="M81 7v686c0 4 3 7 7 7h4c4 0 7 -3 7 -7v-686c0 -4 -3 -7 -7 -7h-4c-4 0 -7 3 -7 7zM227 689c0 12 10 22 23 22c21 0 52 -25 52 -92c0 -69 -62 -99 -62 -99c-4 -2 -7 -3 -9 1l-3 6c-2 4 -2 7 3 9c0 0 52 25 52 83c0 30 -7 47 -13 57c-5 -5 -11 -10 -20 -10
c-13 0 -23 11 -23 23z" />
    <glyph glyph-name="lcommaaccent" unicode="&#x13c;" horiz-adv-x="180" 
d="M81 7v686c0 4 3 7 7 7h4c4 0 7 -3 7 -7v-686c0 -4 -3 -7 -7 -7h-4c-4 0 -7 3 -7 7zM64 -133c0 12 10 22 23 22c21 0 52 -25 52 -92c0 -69 -62 -99 -62 -99c-4 -2 -7 -3 -9 1l-3 6c-2 4 -2 7 3 9c0 0 52 25 52 83c0 30 -7 47 -13 57c-5 -5 -11 -10 -20 -10
c-13 0 -23 11 -23 23z" />
    <glyph glyph-name="lslash" unicode="&#x142;" horiz-adv-x="226" 
d="M101 7v341l-85 -39c-3 -1 -5 -1 -7 2l-3 6c-2 4 1 7 3 8l92 43v325c0 4 3 7 7 7h4c3 0 6 -3 6 -7v-318l141 67c3 2 5 1 7 -3l3 -6c1 -2 1 -5 -3 -7l-148 -69v-350c0 -4 -3 -7 -6 -7h-4c-4 0 -7 3 -7 7z" />
    <glyph glyph-name="ldot" unicode="&#x140;" horiz-adv-x="325" 
d="M81 7v686c0 4 3 7 7 7h4c4 0 7 -3 7 -7v-686c0 -4 -3 -7 -7 -7h-4c-4 0 -7 3 -7 7zM263 281c-13 0 -24 11 -24 24s11 23 24 23c14 0 24 -10 24 -23s-10 -24 -24 -24z" />
    <glyph glyph-name="nacute" unicode="&#x144;" horiz-adv-x="495" 
d="M81 7v386c0 4 3 7 7 7h4c4 0 7 -3 7 -7v-55c25 27 78 72 156 72c108 0 166 -65 166 -186v-217c0 -4 -3 -7 -7 -7h-4c-4 0 -7 3 -7 7v217c0 109 -52 168 -148 168c-89 0 -148 -71 -156 -82v-303c0 -4 -3 -7 -7 -7h-4c-4 0 -7 3 -7 7zM165 561c-5 -2 -7 -1 -9 3l-2 5
c-1 2 -1 5 3 7l182 91c3 1 6 2 9 -3l2 -4c2 -4 1 -7 -3 -9z" />
    <glyph glyph-name="ncaron" unicode="&#x148;" horiz-adv-x="495" 
d="M81 7v386c0 4 3 7 7 7h4c4 0 7 -3 7 -7v-55c25 27 78 72 156 72c108 0 166 -65 166 -186v-217c0 -4 -3 -7 -7 -7h-4c-4 0 -7 3 -7 7v217c0 109 -52 168 -148 168c-89 0 -148 -71 -156 -82v-303c0 -4 -3 -7 -7 -7h-4c-4 0 -7 3 -7 7zM248 554l-129 106c-3 3 -4 5 -2 8l4 5
c1 1 3 4 7 1l124 -101l124 101c4 3 6 0 7 -1l4 -5c2 -3 1 -5 -2 -8l-129 -106c-2 -2 -6 -2 -8 0z" />
    <glyph glyph-name="ntilde" unicode="&#xf1;" horiz-adv-x="495" 
d="M81 7v386c0 4 3 7 7 7h4c4 0 7 -3 7 -7v-55c25 27 78 72 156 72c108 0 166 -65 166 -186v-217c0 -4 -3 -7 -7 -7h-4c-4 0 -7 3 -7 7v217c0 109 -52 168 -148 168c-89 0 -148 -71 -156 -82v-303c0 -4 -3 -7 -7 -7h-4c-4 0 -7 3 -7 7zM107 584l-8 2c-4 1 -5 4 -3 9
c6 19 27 84 86 84c45 0 59 -37 69 -61c8 -19 21 -46 53 -46c45 0 63 55 68 72c1 4 4 6 7 5l8 -2c4 -1 5 -4 3 -9c-6 -18 -27 -84 -86 -84c-45 0 -62 38 -71 60c-7 17 -18 48 -51 48c-45 0 -63 -56 -68 -73c-1 -4 -4 -6 -7 -5z" />
    <glyph glyph-name="ncommaaccent" unicode="&#x146;" horiz-adv-x="496" 
d="M81 7v386c0 4 3 7 7 7h4c4 0 7 -3 7 -7v-55c25 27 78 72 156 72c108 0 166 -65 166 -186v-217c0 -4 -3 -7 -7 -7h-4c-4 0 -7 3 -7 7v217c0 109 -52 168 -148 168c-89 0 -148 -71 -156 -82v-303c0 -4 -3 -7 -7 -7h-4c-4 0 -7 3 -7 7zM226 -132c0 12 10 22 23 22
c21 0 52 -25 52 -92c0 -69 -62 -99 -62 -99c-4 -2 -7 -3 -9 1l-3 6c-2 4 -2 7 3 9c0 0 52 25 52 83c0 30 -7 47 -13 57c-5 -5 -11 -10 -20 -10c-13 0 -23 11 -23 23z" />
    <glyph glyph-name="napostrophe" unicode="&#x149;" horiz-adv-x="495" 
d="M82 7v386c0 4 3 7 7 7h4c4 0 7 -3 7 -7v-55c25 27 78 72 156 72c108 0 166 -65 166 -186v-217c0 -4 -3 -7 -7 -7h-4c-4 0 -7 3 -7 7v217c0 109 -52 168 -148 168c-89 0 -148 -71 -156 -82v-303c0 -4 -3 -7 -7 -7h-4c-4 0 -7 3 -7 7zM-48 688c0 12 10 22 23 22
c21 0 52 -25 52 -92c0 -69 -62 -99 -62 -99c-4 -2 -7 -3 -9 1l-3 6c-2 4 -2 7 3 9c0 0 52 25 52 83c0 30 -7 47 -13 57c-5 -5 -11 -10 -20 -10c-13 0 -23 11 -23 23z" />
    <glyph glyph-name="ograve" unicode="&#xf2;" horiz-adv-x="508" 
d="M51 201c0 116 89 209 203 209s203 -93 203 -209c0 -118 -89 -211 -203 -211s-203 93 -203 211zM69 201c0 -108 81 -193 185 -193s185 85 185 193c0 106 -81 191 -185 191s-185 -85 -185 -191zM342 560l-182 90c-4 2 -5 5 -3 9l2 4c3 5 6 4 9 3l182 -91c4 -2 4 -5 3 -7
l-2 -5c-2 -4 -4 -5 -9 -3z" />
    <glyph glyph-name="oacute" unicode="&#xf3;" horiz-adv-x="508" 
d="M51 201c0 116 89 209 203 209s203 -93 203 -209c0 -118 -89 -211 -203 -211s-203 93 -203 211zM69 201c0 -108 81 -193 185 -193s185 85 185 193c0 106 -81 191 -185 191s-185 -85 -185 -191zM166 560c-5 -2 -7 -1 -9 3l-2 5c-1 2 -1 5 3 7l182 91c3 1 6 2 9 -3l2 -4
c2 -4 1 -7 -3 -9z" />
    <glyph glyph-name="ocircumflex" unicode="&#xf4;" horiz-adv-x="508" 
d="M51 201c0 116 89 209 203 209s203 -93 203 -209c0 -118 -89 -211 -203 -211s-203 93 -203 211zM69 201c0 -108 81 -193 185 -193s185 85 185 193c0 106 -81 191 -185 191s-185 -85 -185 -191zM129 548c-4 -3 -6 0 -7 1l-4 5c-2 3 -1 5 2 8l129 106c2 2 6 2 8 0l129 -106
c3 -3 4 -5 2 -8l-4 -5c-1 -1 -3 -4 -7 -1l-124 101z" />
    <glyph glyph-name="otilde" unicode="&#xf5;" horiz-adv-x="508" 
d="M51 201c0 116 89 209 203 209s203 -93 203 -209c0 -118 -89 -211 -203 -211s-203 93 -203 211zM69 201c0 -108 81 -193 185 -193s185 85 185 193c0 106 -81 191 -185 191s-185 -85 -185 -191zM118 583l-8 2c-4 1 -5 4 -3 9c6 19 27 84 86 84c45 0 59 -37 69 -61
c8 -19 21 -46 53 -46c45 0 63 55 68 72c1 4 4 6 7 5l8 -2c4 -1 5 -4 3 -9c-6 -18 -27 -84 -86 -84c-45 0 -62 38 -71 60c-7 17 -18 48 -51 48c-45 0 -63 -56 -68 -73c-1 -4 -4 -6 -7 -5z" />
    <glyph glyph-name="odieresis" unicode="&#xf6;" horiz-adv-x="508" 
d="M51 201c0 116 89 209 203 209s203 -93 203 -209c0 -118 -89 -211 -203 -211s-203 93 -203 211zM69 201c0 -108 81 -193 185 -193s185 85 185 193c0 106 -81 191 -185 191s-185 -85 -185 -191zM347 607c-12 0 -20 9 -20 20c0 12 8 21 20 21s21 -9 21 -21
c0 -11 -9 -20 -21 -20zM158 607c-12 0 -21 9 -21 20c0 12 9 21 21 21s20 -9 20 -21c0 -11 -8 -20 -20 -20z" />
    <glyph glyph-name="omacron" unicode="&#x14d;" horiz-adv-x="508" 
d="M51 201c0 116 89 209 203 209s203 -93 203 -209c0 -118 -89 -211 -203 -211s-203 93 -203 211zM69 201c0 -108 81 -193 185 -193s185 85 185 193c0 106 -81 191 -185 191s-185 -85 -185 -191zM110 607c-4 0 -7 3 -7 7v4c0 4 3 7 7 7h288c4 0 7 -3 7 -7v-4
c0 -4 -3 -7 -7 -7h-288z" />
    <glyph glyph-name="obreve" unicode="&#x14f;" horiz-adv-x="508" 
d="M51 201c0 116 89 209 203 209s203 -93 203 -209c0 -118 -89 -211 -203 -211s-203 93 -203 211zM69 201c0 -108 81 -193 185 -193s185 85 185 193c0 106 -81 191 -185 191s-185 -85 -185 -191zM254 545c-67 0 -118 47 -127 107c-1 4 3 8 6 8h5c3 0 5 -3 5 -6
c8 -54 54 -93 111 -93c56 0 102 39 111 93c0 3 2 6 5 6h5c3 0 7 -4 6 -8c-10 -60 -61 -107 -127 -107z" />
    <glyph glyph-name="ohungarumlaut" unicode="&#x151;" horiz-adv-x="508" 
d="M51 201c0 116 89 209 203 209s203 -93 203 -209c0 -118 -89 -211 -203 -211s-203 93 -203 211zM69 201c0 -108 81 -193 185 -193s185 85 185 193c0 106 -81 191 -185 191s-185 -85 -185 -191zM342 513l-5 3c-3 2 -5 4 -2 9l108 173c3 4 5 4 9 2l5 -3c3 -2 5 -4 2 -9
l-108 -173c-3 -4 -5 -4 -9 -2zM176 513l-5 3c-3 2 -5 4 -2 9l108 173c3 4 5 4 9 2l5 -3c3 -2 5 -4 2 -9l-108 -173c-3 -4 -5 -4 -9 -2z" />
    <glyph glyph-name="oslash" unicode="&#xf8;" horiz-adv-x="510" 
d="M72 43c-3 3 -3 7 0 10l20 20c-26 36 -40 75 -40 125c0 116 89 212 203 212c65 0 112 -26 148 -66l26 23c2 2 6 2 9 0l3 -3c3 -3 3 -7 0 -10l-26 -24c27 -37 43 -83 43 -132c0 -118 -89 -208 -203 -208c-60 0 -114 26 -151 68l-20 -19c-3 -3 -7 -2 -10 1zM107 85l281 246
c-33 38 -80 61 -133 61c-104 0 -185 -88 -185 -194c0 -45 12 -79 37 -113zM119 71c33 -39 82 -63 136 -63c104 0 185 82 185 190c0 45 -14 86 -39 120z" />
    <glyph glyph-name="oslashacute" unicode="&#x1ff;" horiz-adv-x="510" 
d="M72 43c-3 3 -3 7 0 10l20 20c-26 36 -40 75 -40 125c0 116 89 212 203 212c65 0 112 -26 148 -66l26 23c2 2 6 2 9 0l3 -3c3 -3 3 -7 0 -10l-26 -24c27 -37 43 -83 43 -132c0 -118 -89 -208 -203 -208c-60 0 -114 26 -151 68l-20 -19c-3 -3 -7 -2 -10 1zM107 85l281 246
c-33 38 -80 61 -133 61c-104 0 -185 -88 -185 -194c0 -45 12 -79 37 -113zM119 71c33 -39 82 -63 136 -63c104 0 185 82 185 190c0 45 -14 86 -39 120zM165 560c-5 -2 -7 -1 -9 3l-2 5c-1 2 -1 5 3 7l182 91c3 1 6 2 9 -3l2 -4c2 -4 1 -7 -3 -9z" />
    <glyph glyph-name="oe" unicode="&#x153;" horiz-adv-x="797" 
d="M51 200c0 116 89 210 203 210c64 0 120 -33 157 -81c33 48 88 81 158 81c106 0 182 -81 182 -189c0 -7 -1 -25 -4 -30c-1 -2 -4 -4 -6 -4h-320v-98c30 -48 81 -81 148 -81c62 0 113 25 136 43c3 3 6 1 8 -2l3 -4c2 -3 1 -6 -1 -8c-25 -19 -79 -47 -146 -47
c-70 0 -125 32 -158 80c-37 -49 -92 -80 -157 -80c-114 0 -203 92 -203 210zM421 205h311c1 6 1 12 1 16c0 98 -68 171 -164 171c-67 0 -118 -35 -148 -83v-104zM69 200c0 -108 81 -192 185 -192c59 0 116 37 149 82v219c-33 45 -91 83 -149 83c-104 0 -185 -86 -185 -192z
" />
    <glyph glyph-name="racute" unicode="&#x155;" horiz-adv-x="314" 
d="M81 7v386c0 4 3 7 7 7h4c4 0 7 -3 7 -7v-53c20 28 64 70 130 70c49 0 74 -18 74 -18c3 -2 4 -6 2 -9l-3 -5c-1 -2 -5 -4 -9 -2c0 0 -23 16 -64 16c-80 0 -123 -70 -130 -82v-303c0 -4 -3 -7 -7 -7h-4c-4 0 -7 3 -7 7zM76 560c-5 -2 -7 -1 -9 3l-2 5c-1 2 -1 5 3 7l182 91
c3 1 6 2 9 -3l2 -4c2 -4 1 -7 -3 -9z" />
    <glyph glyph-name="rcaron" unicode="&#x159;" horiz-adv-x="314" 
d="M81 7v386c0 4 3 7 7 7h4c4 0 7 -3 7 -7v-53c20 28 64 70 130 70c49 0 74 -18 74 -18c3 -2 4 -6 2 -9l-3 -5c-1 -2 -5 -4 -9 -2c0 0 -23 16 -64 16c-80 0 -123 -70 -130 -82v-303c0 -4 -3 -7 -7 -7h-4c-4 0 -7 3 -7 7zM160 553l-129 106c-3 3 -4 5 -2 8l4 5c1 1 3 4 7 1
l124 -101l124 101c4 3 6 0 7 -1l4 -5c2 -3 1 -5 -2 -8l-129 -106c-2 -2 -6 -2 -8 0z" />
    <glyph glyph-name="rcommaaccent" unicode="&#x157;" horiz-adv-x="315" 
d="M81 7v386c0 4 3 7 7 7h4c4 0 7 -3 7 -7v-53c20 28 64 70 130 70c49 0 74 -18 74 -18c3 -2 4 -6 2 -9l-3 -5c-1 -2 -5 -4 -9 -2c0 0 -23 16 -64 16c-80 0 -123 -70 -130 -82v-303c0 -4 -3 -7 -7 -7h-4c-4 0 -7 3 -7 7zM66 -133c0 12 10 22 23 22c21 0 52 -25 52 -92
c0 -69 -62 -99 -62 -99c-4 -2 -7 -3 -9 1l-3 6c-2 4 -2 7 3 9c0 0 52 25 52 83c0 30 -7 47 -13 57c-5 -5 -11 -10 -20 -10c-13 0 -23 11 -23 23z" />
    <glyph glyph-name="sacute" unicode="&#x15b;" horiz-adv-x="381" 
d="M61 35c-3 2 -4 4 -3 7l5 7c2 3 5 3 9 0c20 -16 59 -41 121 -41c72 0 126 40 126 92c0 57 -60 78 -135 99c-89 25 -132 52 -132 108c0 45 41 103 135 103c54 0 94 -19 114 -32c3 -2 4 -5 2 -8l-3 -5c-2 -3 -4 -5 -9 -2c-19 12 -56 29 -104 29c-82 0 -116 -48 -116 -85
c0 -47 40 -69 117 -91c80 -23 151 -43 151 -116c0 -62 -65 -110 -146 -110c-69 0 -110 28 -132 45zM103 563c-5 -2 -7 -1 -9 3l-2 5c-1 2 -1 5 3 7l182 91c3 1 6 2 9 -3l2 -4c2 -4 1 -7 -3 -9z" />
    <glyph glyph-name="scircumflex" unicode="&#x15d;" horiz-adv-x="381" 
d="M61 35c-3 2 -4 4 -3 7l5 7c2 3 5 3 9 0c20 -16 59 -41 121 -41c72 0 126 40 126 92c0 57 -60 78 -135 99c-89 25 -132 52 -132 108c0 45 41 103 135 103c54 0 94 -19 114 -32c3 -2 4 -5 2 -8l-3 -5c-2 -3 -4 -5 -9 -2c-19 12 -56 29 -104 29c-82 0 -116 -48 -116 -85
c0 -47 40 -69 117 -91c80 -23 151 -43 151 -116c0 -62 -65 -110 -146 -110c-69 0 -110 28 -132 45zM66 551c-4 -3 -6 0 -7 1l-4 5c-2 3 -1 5 2 8l129 106c2 2 6 2 8 0l129 -106c3 -3 4 -5 2 -8l-4 -5c-1 -1 -3 -4 -7 -1l-124 101z" />
    <glyph glyph-name="scaron" unicode="&#x161;" horiz-adv-x="381" 
d="M61 35c-3 2 -4 4 -3 7l5 7c2 3 5 3 9 0c20 -16 59 -41 121 -41c72 0 126 40 126 92c0 57 -60 78 -135 99c-89 25 -132 52 -132 108c0 45 41 103 135 103c54 0 94 -19 114 -32c3 -2 4 -5 2 -8l-3 -5c-2 -3 -4 -5 -9 -2c-19 12 -56 29 -104 29c-82 0 -116 -48 -116 -85
c0 -47 40 -69 117 -91c80 -23 151 -43 151 -116c0 -62 -65 -110 -146 -110c-69 0 -110 28 -132 45zM186 556l-129 106c-3 3 -4 5 -2 8l4 5c1 1 3 4 7 1l124 -101l124 101c4 3 6 0 7 -1l4 -5c2 -3 1 -5 -2 -8l-129 -106c-2 -2 -6 -2 -8 0z" />
    <glyph glyph-name="scedilla" unicode="&#x15f;" horiz-adv-x="383" 
d="M62 35c-3 2 -4 4 -3 7l5 7c2 3 5 3 9 0c20 -16 59 -41 121 -41c72 0 126 40 126 92c0 57 -60 78 -135 99c-89 25 -132 52 -132 108c0 45 41 103 135 103c54 0 94 -19 114 -32c3 -2 4 -5 2 -8l-3 -5c-2 -3 -4 -5 -9 -2c-19 12 -56 29 -104 29c-82 0 -116 -48 -116 -85
c0 -47 40 -69 117 -91c80 -23 151 -43 151 -116c0 -62 -65 -110 -146 -110h-12v-44c60 -6 109 -31 109 -91c0 -48 -38 -90 -91 -90c-35 0 -61 16 -78 34c-3 3 -3 6 0 9l6 5c3 2 6 2 9 -1c14 -16 34 -29 63 -29c44 0 72 33 72 72c0 51 -48 70 -101 74c-3 0 -6 2 -6 6v57
c-52 6 -85 28 -103 43z" />
    <glyph glyph-name="scommaaccent" unicode="&#x219;" horiz-adv-x="382" 
d="M61 35c-3 2 -4 4 -3 7l5 7c2 3 5 3 9 0c20 -16 59 -41 121 -41c72 0 126 40 126 92c0 57 -60 78 -135 99c-89 25 -132 52 -132 108c0 45 41 103 135 103c54 0 94 -19 114 -32c3 -2 4 -5 2 -8l-3 -5c-2 -3 -4 -5 -9 -2c-19 12 -56 29 -104 29c-82 0 -116 -48 -116 -85
c0 -47 40 -69 117 -91c80 -23 151 -43 151 -116c0 -62 -65 -110 -146 -110c-69 0 -110 28 -132 45zM162 -130c0 12 10 22 23 22c21 0 52 -25 52 -92c0 -69 -62 -99 -62 -99c-4 -2 -7 -3 -9 1l-3 6c-2 4 -2 7 3 9c0 0 52 25 52 83c0 30 -7 47 -13 57c-5 -5 -11 -10 -20 -10
c-13 0 -23 11 -23 23z" />
    <glyph glyph-name="germandbls" unicode="&#xdf;" horiz-adv-x="569" 
d="M81 7v403c0 200 76 300 215 300c89 0 174 -45 174 -157c0 -89 -86 -159 -86 -200c0 -12 16 -27 39 -46c44 -37 103 -86 103 -168c0 -105 -84 -149 -170 -149c-47 0 -88 15 -99 20c-3 1 -4 4 -3 7l3 6c2 4 3 5 8 3c9 -5 48 -18 91 -18c76 0 152 38 152 131
c0 68 -57 119 -97 154c-24 21 -46 40 -46 59c0 46 87 115 87 201c0 100 -76 139 -156 139c-127 0 -197 -94 -197 -282v-403c0 -4 -3 -7 -7 -7h-4c-4 0 -7 3 -7 7z" />
    <glyph glyph-name="tcaron" unicode="&#x165;" horiz-adv-x="315" 
d="M87 107v275h-42c-3 0 -6 3 -6 7v4c0 4 3 7 6 7h42v108c0 4 3 7 6 7h4c4 0 7 -3 7 -7v-108h163c4 0 7 -3 7 -7v-4c0 -4 -3 -7 -7 -7h-163v-275c0 -56 2 -99 72 -99c43 0 95 23 108 32c4 3 7 1 8 -2l3 -6c1 -3 0 -5 -2 -7c-13 -9 -68 -35 -117 -35c-87 0 -89 51 -89 117z
M381 520l-3 6c-2 4 -2 7 3 9c0 0 52 25 52 83c0 30 -7 47 -13 57c-5 -5 -11 -10 -20 -10c-13 0 -23 11 -23 23s10 22 23 22c21 0 52 -25 52 -92c0 -69 -62 -99 -62 -99c-4 -2 -7 -3 -9 1z" />
    <glyph glyph-name="tcommaaccent" unicode="&#x163;" horiz-adv-x="311" 
d="M87 107v275h-42c-3 0 -6 3 -6 7v4c0 4 3 7 6 7h42v108c0 4 3 7 6 7h4c4 0 7 -3 7 -7v-108h163c4 0 7 -3 7 -7v-4c0 -4 -3 -7 -7 -7h-163v-275c0 -56 2 -99 72 -99c43 0 95 23 108 32c4 3 7 1 8 -2l3 -6c1 -3 0 -5 -2 -7c-13 -9 -68 -35 -117 -35c-87 0 -89 51 -89 117z
M144 -133c0 12 10 22 23 22c21 0 52 -25 52 -92c0 -69 -62 -99 -62 -99c-4 -2 -7 -3 -9 1l-3 6c-2 4 -2 7 3 9c0 0 52 25 52 83c0 30 -7 47 -13 57c-5 -5 -11 -10 -20 -10c-13 0 -23 11 -23 23z" />
    <glyph glyph-name="uni021B" unicode="&#x21b;" horiz-adv-x="311" 
d="M87 107v275h-42c-3 0 -6 3 -6 7v4c0 4 3 7 6 7h42v108c0 4 3 7 6 7h4c4 0 7 -3 7 -7v-108h163c4 0 7 -3 7 -7v-4c0 -4 -3 -7 -7 -7h-163v-275c0 -56 2 -99 72 -99c43 0 95 23 108 32c4 3 7 1 8 -2l3 -6c1 -3 0 -5 -2 -7c-13 -9 -68 -35 -117 -35c-87 0 -89 51 -89 117z
M144 -133c0 12 10 22 23 22c21 0 52 -25 52 -92c0 -69 -62 -99 -62 -99c-4 -2 -7 -3 -9 1l-3 6c-2 4 -2 7 3 9c0 0 52 25 52 83c0 30 -7 47 -13 57c-5 -5 -11 -10 -20 -10c-13 0 -23 11 -23 23z" />
    <glyph glyph-name="tbar" unicode="&#x167;" horiz-adv-x="315" 
d="M87 107v92h-31c-4 0 -7 3 -7 7v4c0 3 3 6 7 6h31v166h-42c-3 0 -6 3 -6 7v4c0 4 3 7 6 7h42v108c0 4 3 7 6 7h4c4 0 7 -3 7 -7v-108h163c4 0 7 -3 7 -7v-4c0 -4 -3 -7 -7 -7h-163v-166h143c4 0 7 -3 7 -6v-4c0 -4 -3 -7 -7 -7h-143v-92c0 -56 2 -99 72 -99
c43 0 95 23 108 32c4 3 7 1 8 -2l3 -6c1 -3 0 -5 -2 -7c-13 -9 -68 -35 -117 -35c-87 0 -89 51 -89 117z" />
    <glyph glyph-name="thorn" unicode="&#xfe;" 
d="M98 41v-334c0 -4 -3 -7 -7 -7h-4c-3 0 -6 3 -6 7v986c0 4 3 7 6 7h4c4 0 7 -3 7 -7v-339c23 21 71 56 146 56c113 0 195 -93 195 -211c0 -120 -84 -209 -211 -209c-65 0 -108 31 -130 51zM98 68c5 -7 48 -60 130 -60c117 0 194 81 194 191c0 108 -75 193 -178 193
c-91 0 -140 -56 -146 -65v-259z" />
    <glyph glyph-name="ugrave" unicode="&#xf9;" horiz-adv-x="486" 
d="M75 174v219c0 4 3 7 7 7h4c4 0 7 -3 7 -7v-219c0 -109 52 -166 148 -166c90 0 140 73 146 82v303c0 4 3 7 7 7h4c4 0 7 -3 7 -7v-386c0 -4 -3 -7 -7 -7h-4c-4 0 -7 3 -7 7v53c-23 -28 -72 -70 -146 -70c-108 0 -166 63 -166 184zM331 560l-182 90c-4 2 -5 5 -3 9l2 4
c3 5 6 4 9 3l182 -91c4 -2 4 -5 3 -7l-2 -5c-2 -4 -4 -5 -9 -3z" />
    <glyph glyph-name="uacute" unicode="&#xfa;" horiz-adv-x="486" 
d="M75 174v219c0 4 3 7 7 7h4c4 0 7 -3 7 -7v-219c0 -109 52 -166 148 -166c90 0 140 73 146 82v303c0 4 3 7 7 7h4c4 0 7 -3 7 -7v-386c0 -4 -3 -7 -7 -7h-4c-4 0 -7 3 -7 7v53c-23 -28 -72 -70 -146 -70c-108 0 -166 63 -166 184zM155 560c-5 -2 -7 -1 -9 3l-2 5
c-1 2 -1 5 3 7l182 91c3 1 6 2 9 -3l2 -4c2 -4 1 -7 -3 -9z" />
    <glyph glyph-name="ucircumflex" unicode="&#xfb;" horiz-adv-x="486" 
d="M75 174v219c0 4 3 7 7 7h4c4 0 7 -3 7 -7v-219c0 -109 52 -166 148 -166c90 0 140 73 146 82v303c0 4 3 7 7 7h4c4 0 7 -3 7 -7v-386c0 -4 -3 -7 -7 -7h-4c-4 0 -7 3 -7 7v53c-23 -28 -72 -70 -146 -70c-108 0 -166 63 -166 184zM118 548c-4 -3 -6 0 -7 1l-4 5
c-2 3 -1 5 2 8l129 106c2 2 6 2 8 0l129 -106c3 -3 4 -5 2 -8l-4 -5c-1 -1 -3 -4 -7 -1l-124 101z" />
    <glyph glyph-name="utilde" unicode="&#x169;" horiz-adv-x="486" 
d="M75 174v219c0 4 3 7 7 7h4c4 0 7 -3 7 -7v-219c0 -109 52 -166 148 -166c90 0 140 73 146 82v303c0 4 3 7 7 7h4c4 0 7 -3 7 -7v-386c0 -4 -3 -7 -7 -7h-4c-4 0 -7 3 -7 7v53c-23 -28 -72 -70 -146 -70c-108 0 -166 63 -166 184zM107 583l-8 2c-4 1 -5 4 -3 9
c6 19 27 84 86 84c45 0 59 -37 69 -61c8 -19 21 -46 53 -46c45 0 63 55 68 72c1 4 4 6 7 5l8 -2c4 -1 5 -4 3 -9c-6 -18 -27 -84 -86 -84c-45 0 -62 38 -71 60c-7 17 -18 48 -51 48c-45 0 -63 -56 -68 -73c-1 -4 -4 -6 -7 -5z" />
    <glyph glyph-name="udieresis" unicode="&#xfc;" horiz-adv-x="486" 
d="M75 174v219c0 4 3 7 7 7h4c4 0 7 -3 7 -7v-219c0 -109 52 -166 148 -166c90 0 140 73 146 82v303c0 4 3 7 7 7h4c4 0 7 -3 7 -7v-386c0 -4 -3 -7 -7 -7h-4c-4 0 -7 3 -7 7v53c-23 -28 -72 -70 -146 -70c-108 0 -166 63 -166 184zM340 607c-12 0 -20 9 -20 20
c0 12 8 21 20 21s21 -9 21 -21c0 -11 -9 -20 -21 -20zM151 607c-12 0 -21 9 -21 20c0 12 9 21 21 21s20 -9 20 -21c0 -11 -8 -20 -20 -20z" />
    <glyph glyph-name="umacron" unicode="&#x16b;" horiz-adv-x="486" 
d="M75 174v219c0 4 3 7 7 7h4c4 0 7 -3 7 -7v-219c0 -109 52 -166 148 -166c90 0 140 73 146 82v303c0 4 3 7 7 7h4c4 0 7 -3 7 -7v-386c0 -4 -3 -7 -7 -7h-4c-4 0 -7 3 -7 7v53c-23 -28 -72 -70 -146 -70c-108 0 -166 63 -166 184zM99 607c-4 0 -7 3 -7 7v4c0 4 3 7 7 7
h288c4 0 7 -3 7 -7v-4c0 -4 -3 -7 -7 -7h-288z" />
    <glyph glyph-name="ubreve" unicode="&#x16d;" horiz-adv-x="486" 
d="M75 174v219c0 4 3 7 7 7h4c4 0 7 -3 7 -7v-219c0 -109 52 -166 148 -166c90 0 140 73 146 82v303c0 4 3 7 7 7h4c4 0 7 -3 7 -7v-386c0 -4 -3 -7 -7 -7h-4c-4 0 -7 3 -7 7v53c-23 -28 -72 -70 -146 -70c-108 0 -166 63 -166 184zM243 545c-67 0 -118 47 -127 107
c-1 4 3 8 6 8h5c3 0 5 -3 5 -6c8 -54 54 -93 111 -93c56 0 102 39 111 93c0 3 2 6 5 6h5c3 0 7 -4 6 -8c-10 -60 -61 -107 -127 -107z" />
    <glyph glyph-name="uring" unicode="&#x16f;" horiz-adv-x="486" 
d="M75 174v219c0 4 3 7 7 7h4c4 0 7 -3 7 -7v-219c0 -109 52 -166 148 -166c90 0 140 73 146 82v303c0 4 3 7 7 7h4c4 0 7 -3 7 -7v-386c0 -4 -3 -7 -7 -7h-4c-4 0 -7 3 -7 7v53c-23 -28 -72 -70 -146 -70c-108 0 -166 63 -166 184zM243 500c-59 0 -104 45 -104 104
c0 58 45 104 104 104c58 0 104 -46 104 -104c0 -59 -46 -104 -104 -104zM243 516c47 0 87 40 87 88c0 47 -40 88 -87 88c-48 0 -87 -41 -87 -88c0 -48 39 -88 87 -88z" />
    <glyph glyph-name="uhungarumlaut" unicode="&#x171;" horiz-adv-x="486" 
d="M75 174v219c0 4 3 7 7 7h4c4 0 7 -3 7 -7v-219c0 -109 52 -166 148 -166c90 0 140 73 146 82v303c0 4 3 7 7 7h4c4 0 7 -3 7 -7v-386c0 -4 -3 -7 -7 -7h-4c-4 0 -7 3 -7 7v53c-23 -28 -72 -70 -146 -70c-108 0 -166 63 -166 184zM321 513l-5 3c-3 2 -5 4 -2 9l108 173
c3 4 5 4 9 2l5 -3c3 -2 5 -4 2 -9l-108 -173c-3 -4 -5 -4 -9 -2zM155 513l-5 3c-3 2 -5 4 -2 9l108 173c3 4 5 4 9 2l5 -3c3 -2 5 -4 2 -9l-108 -173c-3 -4 -5 -4 -9 -2z" />
    <glyph glyph-name="uogonek" unicode="&#x173;" horiz-adv-x="486" 
d="M75 174v219c0 4 3 7 7 7h4c4 0 7 -3 7 -7v-219c0 -109 52 -166 148 -166c90 0 140 73 146 82v303c0 4 3 7 7 7h4c4 0 7 -3 7 -7v-386c0 -4 -2 -6 -5 -8c0 0 -92 -46 -92 -126c0 -56 45 -76 91 -76c34 0 60 10 68 14c4 2 6 2 8 -2l3 -6c2 -4 -1 -7 -3 -8
c-11 -5 -38 -16 -76 -16c-56 0 -109 25 -109 94c0 80 77 127 97 138v49c-23 -28 -72 -70 -146 -70c-108 0 -166 63 -166 184z" />
    <glyph glyph-name="wacute" unicode="&#x1e83;" horiz-adv-x="596" 
d="M165 -12l-134 408c-1 4 -2 6 3 8l6 2c4 1 6 0 7 -3l125 -376l119 388c2 7 12 7 14 0l119 -388l125 376c1 3 3 4 7 3l6 -2c5 -2 4 -4 3 -8l-134 -408c-2 -7 -12 -7 -14 0l-119 387l-119 -387c-2 -7 -12 -7 -14 0zM212 560c-5 -2 -7 -1 -9 3l-2 5c-1 2 -1 5 3 7l182 91
c3 1 6 2 9 -3l2 -4c2 -4 1 -7 -3 -9z" />
    <glyph glyph-name="wcircumflex" unicode="&#x175;" horiz-adv-x="596" 
d="M165 -12l-134 408c-1 4 -2 6 3 8l6 2c4 1 6 0 7 -3l125 -376l119 388c2 7 12 7 14 0l119 -388l125 376c1 3 3 4 7 3l6 -2c5 -2 4 -4 3 -8l-134 -408c-2 -7 -12 -7 -14 0l-119 387l-119 -387c-2 -7 -12 -7 -14 0zM175 548c-4 -3 -6 0 -7 1l-4 5c-2 3 -1 5 2 8l129 106
c2 2 6 2 8 0l129 -106c3 -3 4 -5 2 -8l-4 -5c-1 -1 -3 -4 -7 -1l-124 101z" />
    <glyph glyph-name="wdieresis" unicode="&#x1e85;" horiz-adv-x="596" 
d="M165 -12l-134 408c-1 4 -2 6 3 8l6 2c4 1 6 0 7 -3l125 -376l119 388c2 7 12 7 14 0l119 -388l125 376c1 3 3 4 7 3l6 -2c5 -2 4 -4 3 -8l-134 -408c-2 -7 -12 -7 -14 0l-119 387l-119 -387c-2 -7 -12 -7 -14 0zM393 607c-12 0 -20 9 -20 20c0 12 8 21 20 21
s21 -9 21 -21c0 -11 -9 -20 -21 -20zM204 607c-12 0 -21 9 -21 20c0 12 9 21 21 21s20 -9 20 -21c0 -11 -8 -20 -20 -20z" />
    <glyph glyph-name="wgrave" unicode="&#x1e81;" horiz-adv-x="596" 
d="M165 -12l-134 408c-1 4 -2 6 3 8l6 2c4 1 6 0 7 -3l125 -376l119 388c2 7 12 7 14 0l119 -388l125 376c1 3 3 4 7 3l6 -2c5 -2 4 -4 3 -8l-134 -408c-2 -7 -12 -7 -14 0l-119 387l-119 -387c-2 -7 -12 -7 -14 0zM386 560l-182 90c-4 2 -5 5 -3 9l2 4c3 5 6 4 9 3l182 -91
c4 -2 4 -5 3 -7l-2 -5c-2 -4 -4 -5 -9 -3z" />
    <glyph glyph-name="yacute" unicode="&#xfd;" horiz-adv-x="422" 
d="M207 8l-194 387c-2 4 -2 7 1 8l7 3c4 2 6 -1 7 -3l188 -376l176 376c1 2 3 5 7 3l7 -3c3 -1 3 -4 1 -8l-326 -696c-2 -4 -4 -5 -8 -3l-5 3c-3 2 -4 3 -2 8zM128 560c-5 -2 -7 -1 -9 3l-2 5c-1 2 -1 5 3 7l182 91c3 1 6 2 9 -3l2 -4c2 -4 1 -7 -3 -9z" />
    <glyph glyph-name="ycircumflex" unicode="&#x177;" horiz-adv-x="422" 
d="M207 8l-194 387c-2 4 -2 7 1 8l7 3c4 2 6 -1 7 -3l188 -376l176 376c1 2 3 5 7 3l7 -3c3 -1 3 -4 1 -8l-326 -696c-2 -4 -4 -5 -8 -3l-5 3c-3 2 -4 3 -2 8zM91 548c-4 -3 -6 0 -7 1l-4 5c-2 3 -1 5 2 8l129 106c2 2 6 2 8 0l129 -106c3 -3 4 -5 2 -8l-4 -5
c-1 -1 -3 -4 -7 -1l-124 101z" />
    <glyph glyph-name="ydieresis" unicode="&#xff;" horiz-adv-x="422" 
d="M207 8l-194 387c-2 4 -2 7 1 8l7 3c4 2 6 -1 7 -3l188 -376l176 376c1 2 3 5 7 3l7 -3c3 -1 3 -4 1 -8l-326 -696c-2 -4 -4 -5 -8 -3l-5 3c-3 2 -4 3 -2 8zM310 607c-12 0 -20 9 -20 20c0 12 8 21 20 21s21 -9 21 -21c0 -11 -9 -20 -21 -20zM121 607c-12 0 -21 9 -21 20
c0 12 9 21 21 21s20 -9 20 -21c0 -11 -8 -20 -20 -20z" />
    <glyph glyph-name="ygrave" unicode="&#x1ef3;" horiz-adv-x="422" 
d="M207 8l-194 387c-2 4 -2 7 1 8l7 3c4 2 6 -1 7 -3l188 -376l176 376c1 2 3 5 7 3l7 -3c3 -1 3 -4 1 -8l-326 -696c-2 -4 -4 -5 -8 -3l-5 3c-3 2 -4 3 -2 8zM304 560l-182 90c-4 2 -5 5 -3 9l2 4c3 5 6 4 9 3l182 -91c4 -2 4 -5 3 -7l-2 -5c-2 -4 -4 -5 -9 -3z" />
    <glyph glyph-name="zacute" unicode="&#x17a;" horiz-adv-x="377" 
d="M31 11l277 371h-243c-4 0 -6 3 -6 7v4c0 4 2 7 6 7h267c6 0 10 -6 6 -11l-279 -371h262c4 0 7 -3 7 -7v-4c0 -4 -3 -7 -7 -7h-284c-6 0 -10 6 -6 11zM116 560c-5 -2 -7 -1 -9 3l-2 5c-1 2 -1 5 3 7l182 91c3 1 6 2 9 -3l2 -4c2 -4 1 -7 -3 -9z" />
    <glyph glyph-name="zcaron" unicode="&#x17e;" horiz-adv-x="377" 
d="M31 11l277 371h-243c-4 0 -6 3 -6 7v4c0 4 2 7 6 7h267c6 0 10 -6 6 -11l-279 -371h262c4 0 7 -3 7 -7v-4c0 -4 -3 -7 -7 -7h-284c-6 0 -10 6 -6 11zM194 553l-129 106c-3 3 -4 5 -2 8l4 5c1 1 3 4 7 1l124 -101l124 101c4 3 6 0 7 -1l4 -5c2 -3 1 -5 -2 -8l-129 -106
c-2 -2 -6 -2 -8 0z" />
    <glyph glyph-name="zdotaccent" unicode="&#x17c;" horiz-adv-x="377" 
d="M31 11l277 371h-243c-4 0 -6 3 -6 7v4c0 4 2 7 6 7h267c6 0 10 -6 6 -11l-279 -371h262c4 0 7 -3 7 -7v-4c0 -4 -3 -7 -7 -7h-284c-6 0 -10 6 -6 11zM200 599c-10 0 -19 9 -19 19s9 18 19 18c11 0 19 -8 19 -18s-8 -19 -19 -19z" />
    <glyph glyph-name="IJ" unicode="&#x132;" horiz-adv-x="624" 
d="M112 7v686c0 4 3 7 7 7h4c4 0 7 -3 7 -7v-686c0 -4 -3 -7 -7 -7h-4c-4 0 -7 3 -7 7zM215 67c-2 3 -3 6 1 9l4 3c3 2 6 1 8 -2c16 -20 61 -69 142 -69c110 0 169 74 169 206v479c0 4 3 7 7 7h3c4 0 7 -3 7 -7v-479c0 -141 -66 -224 -186 -224c-89 0 -138 55 -155 77z" />
    <glyph glyph-name="ij" unicode="&#x133;" horiz-adv-x="417" 
d="M91 607c-12 0 -20 9 -20 20s8 21 20 21c11 0 20 -10 20 -21s-9 -20 -20 -20zM81 7v386c0 4 3 7 7 7h4c4 0 7 -3 7 -7v-386c0 -4 -3 -7 -7 -7h-4c-4 0 -7 3 -7 7zM327 607c-12 0 -21 9 -21 20s9 21 21 21c11 0 20 -10 20 -21s-9 -20 -20 -20zM318 -134v527c0 4 3 7 7 7h4
c4 0 7 -3 7 -7v-527c0 -120 -49 -176 -140 -176c-55 0 -95 25 -113 43c-3 3 -3 7 0 10l3 3c3 3 6 3 9 0c17 -16 50 -38 101 -38c79 0 122 50 122 158z" />
    <glyph glyph-name="grave.cap" horiz-adv-x="302" 
d="M249 778l-182 90c-4 2 -5 5 -3 9l2 4c3 5 6 4 9 3l182 -91c4 -2 4 -5 3 -7l-2 -5c-2 -4 -4 -5 -9 -3z" />
    <glyph glyph-name="acute" unicode="&#xb4;" horiz-adv-x="302" 
d="M63 560c-5 -2 -7 -1 -9 3l-2 5c-1 2 -1 5 3 7l182 91c3 1 6 2 9 -3l2 -4c2 -4 1 -7 -3 -9z" />
    <glyph glyph-name="acute.cap" horiz-adv-x="302" 
d="M71 778c-5 -2 -7 -1 -9 3l-2 5c-1 2 -1 5 3 7l182 91c3 1 6 2 9 -3l2 -4c2 -4 1 -7 -3 -9z" />
    <glyph glyph-name="circumflex" unicode="&#x2c6;" horiz-adv-x="373" 
d="M62 548c-4 -3 -6 0 -7 1l-4 5c-2 3 -1 5 2 8l129 106c2 2 6 2 8 0l129 -106c3 -3 4 -5 2 -8l-4 -5c-1 -1 -3 -4 -7 -1l-124 101z" />
    <glyph glyph-name="circumflex.cap" horiz-adv-x="373" 
d="M62 763c-4 -3 -6 0 -7 1l-4 5c-2 3 -1 5 2 8l129 106c2 2 6 2 8 0l129 -106c3 -3 4 -5 2 -8l-4 -5c-1 -1 -3 -4 -7 -1l-124 101z" />
    <glyph glyph-name="caron" unicode="&#x2c7;" horiz-adv-x="373" 
d="M182 553l-129 106c-3 3 -4 5 -2 8l4 5c1 1 3 4 7 1l124 -101l124 101c4 3 6 0 7 -1l4 -5c2 -3 1 -5 -2 -8l-129 -106c-2 -2 -6 -2 -8 0z" />
    <glyph glyph-name="caron.cap" horiz-adv-x="373" 
d="M182 771l-129 106c-3 3 -4 5 -2 8l4 5c1 1 3 4 7 1l124 -101l124 101c4 3 6 0 7 -1l4 -5c2 -3 1 -5 -2 -8l-129 -106c-2 -2 -6 -2 -8 0z" />
    <glyph glyph-name="caron.alt" horiz-adv-x="373" 
d="M143 689c0 12 10 22 23 22c21 0 52 -25 52 -92c0 -69 -62 -99 -62 -99c-4 -2 -7 -3 -9 1l-3 6c-2 4 -2 7 3 9c0 0 52 25 52 83c0 30 -7 47 -13 57c-5 -5 -11 -10 -20 -10c-13 0 -23 11 -23 23z" />
    <glyph glyph-name="tilde" unicode="&#x2dc;" horiz-adv-x="380" 
d="M44 583l-8 2c-4 1 -5 4 -3 9c6 19 27 84 86 84c45 0 59 -37 69 -61c8 -19 21 -46 53 -46c45 0 63 55 68 72c1 4 4 6 7 5l8 -2c4 -1 5 -4 3 -9c-6 -18 -27 -84 -86 -84c-45 0 -62 38 -71 60c-7 17 -18 48 -51 48c-45 0 -63 -56 -68 -73c-1 -4 -4 -6 -7 -5z" />
    <glyph glyph-name="tilde.cap" horiz-adv-x="380" 
d="M53 802l-8 2c-4 1 -5 4 -3 9c6 19 27 84 86 84c45 0 59 -37 69 -61c8 -19 21 -46 53 -46c45 0 63 55 68 72c1 4 4 6 7 5l8 -2c4 -1 5 -4 3 -9c-6 -18 -27 -84 -86 -84c-45 0 -62 38 -71 60c-7 17 -18 48 -51 48c-45 0 -63 -56 -68 -73c-1 -4 -4 -6 -7 -5z" />
    <glyph glyph-name="dieresis" unicode="&#xa8;" horiz-adv-x="414" 
d="M319 607c-12 0 -20 9 -20 20c0 12 8 21 20 21s21 -9 21 -21c0 -11 -9 -20 -21 -20zM130 607c-12 0 -21 9 -21 20c0 12 9 21 21 21s20 -9 20 -21c0 -11 -8 -20 -20 -20z" />
    <glyph glyph-name="dieresis.cap" horiz-adv-x="474" 
d="M341 810c-12 0 -21 9 -21 20c0 12 9 21 21 21s21 -9 21 -21c0 -11 -9 -20 -21 -20zM134 810c-12 0 -21 9 -21 20c0 12 9 21 21 21s21 -9 21 -21c0 -11 -9 -20 -21 -20z" />
    <glyph glyph-name="macron" unicode="&#xaf;" horiz-adv-x="414" 
d="M63 607c-4 0 -7 3 -7 7v4c0 4 3 7 7 7h288c4 0 7 -3 7 -7v-4c0 -4 -3 -7 -7 -7h-288z" />
    <glyph glyph-name="macron.cap" horiz-adv-x="414" 
d="M63 842c-4 0 -7 3 -7 7v4c0 4 3 7 7 7h288c4 0 7 -3 7 -7v-4c0 -4 -3 -7 -7 -7h-288z" />
    <glyph glyph-name="uni02C9" unicode="&#x2c9;" horiz-adv-x="414" 
d="M63 607c-4 0 -7 3 -7 7v4c0 4 3 7 7 7h288c4 0 7 -3 7 -7v-4c0 -4 -3 -7 -7 -7h-288z" />
    <glyph glyph-name="breve" unicode="&#x2d8;" horiz-adv-x="346" 
d="M173 545c-67 0 -118 47 -127 107c-1 4 3 8 6 8h5c3 0 5 -3 5 -6c8 -54 54 -93 111 -93c56 0 102 39 111 93c0 3 2 6 5 6h5c3 0 7 -4 6 -8c-10 -60 -61 -107 -127 -107z" />
    <glyph glyph-name="breve.cap" horiz-adv-x="346" 
d="M173 780c-67 0 -118 47 -127 108c-1 3 3 7 6 7h5c3 0 5 -3 5 -6c8 -53 54 -92 111 -92c56 0 102 39 111 92c0 3 2 6 5 6h5c3 0 7 -4 6 -7c-10 -61 -61 -108 -127 -108z" />
    <glyph glyph-name="ring" unicode="&#x2da;" horiz-adv-x="290" 
d="M145 500c-59 0 -104 45 -104 104c0 58 45 104 104 104c58 0 104 -46 104 -104c0 -59 -46 -104 -104 -104zM145 516c47 0 87 40 87 88c0 47 -40 88 -87 88c-48 0 -87 -41 -87 -88c0 -48 39 -88 87 -88z" />
    <glyph glyph-name="ring.cap" horiz-adv-x="290" 
d="M146 750c-59 0 -104 45 -104 104c0 58 45 104 104 104c58 0 104 -46 104 -104c0 -59 -46 -104 -104 -104zM146 766c47 0 87 40 87 88c0 47 -40 88 -87 88c-48 0 -87 -41 -87 -88c0 -48 39 -88 87 -88z" />
    <glyph glyph-name="hungarumlaut" unicode="&#x2dd;" horiz-adv-x="392" 
d="M234 513l-5 3c-3 2 -5 4 -2 9l108 173c3 4 5 4 9 2l5 -3c3 -2 5 -4 2 -9l-108 -173c-3 -4 -5 -4 -9 -2zM68 513l-5 3c-3 2 -5 4 -2 9l108 173c3 4 5 4 9 2l5 -3c3 -2 5 -4 2 -9l-108 -173c-3 -4 -5 -4 -9 -2z" />
    <glyph glyph-name="hungarumlaut.cap" horiz-adv-x="392" 
d="M221 757l-5 3c-3 2 -5 4 -2 9l108 173c3 4 5 4 9 2l5 -3c3 -2 5 -4 2 -9l-108 -173c-3 -4 -5 -4 -9 -2zM55 757l-5 3c-3 2 -5 4 -2 9l108 173c3 4 5 4 9 2l5 -3c3 -2 5 -4 2 -9l-108 -173c-3 -4 -5 -4 -9 -2z" />
    <glyph glyph-name="dotaccent" unicode="&#x2d9;" horiz-adv-x="219" 
d="M108 599c-10 0 -19 9 -19 19s9 18 19 18c11 0 19 -8 19 -18s-8 -19 -19 -19z" />
    <glyph glyph-name="dotaccent.cap" horiz-adv-x="219" 
d="M108 825c-10 0 -19 8 -19 18c0 11 9 19 19 19c11 0 19 -8 19 -19c0 -10 -8 -18 -19 -18z" />
    <glyph glyph-name="cedilla" unicode="&#xb8;" horiz-adv-x="247" 
d="M88 -6c0 3 3 6 6 6h6c3 0 5 -3 5 -6v-48c60 -6 109 -31 109 -91c0 -48 -38 -90 -91 -90c-35 0 -61 16 -78 34c-3 3 -3 6 0 9l6 5c3 2 6 2 9 -1c14 -16 34 -29 63 -29c44 0 72 33 72 72c0 51 -48 70 -101 74c-3 0 -6 2 -6 6v59z" />
    <glyph glyph-name="cedilla.cap" horiz-adv-x="247" 
d="M88 -6c0 3 3 6 6 6h6c3 0 5 -3 5 -6v-48c60 -6 109 -31 109 -91c0 -48 -38 -90 -91 -90c-35 0 -61 16 -78 34c-3 3 -3 6 0 9l6 5c3 2 6 2 9 -1c14 -16 34 -29 63 -29c44 0 72 33 72 72c0 51 -48 70 -101 74c-3 0 -6 2 -6 6v59z" />
    <glyph glyph-name="ogonek" unicode="&#x2db;" horiz-adv-x="276" 
d="M34 -127c0 91 102 141 102 141c3 2 7 0 9 -2l3 -7c0 -2 -2 -5 -4 -6c0 0 -92 -46 -92 -126c0 -56 45 -76 91 -76c34 0 60 10 68 14c4 2 6 2 8 -2l3 -6c2 -4 -1 -7 -3 -8c-11 -5 -38 -16 -76 -16c-56 0 -109 25 -109 94z" />
    <glyph glyph-name="ogonek.cap" horiz-adv-x="276" 
d="M34 -127c0 91 102 141 102 141c3 2 7 0 9 -2l3 -7c0 -2 -2 -5 -4 -6c0 0 -92 -46 -92 -126c0 -56 45 -76 91 -76c34 0 60 10 68 14c4 2 6 2 8 -2l3 -6c2 -4 -1 -7 -3 -8c-11 -5 -38 -16 -76 -16c-56 0 -109 25 -109 94z" />
    <glyph glyph-name="commaaccent" horiz-adv-x="292" 
d="M113 -133c0 12 10 22 23 22c21 0 52 -25 52 -92c0 -69 -62 -99 -62 -99c-4 -2 -7 -3 -9 1l-3 6c-2 4 -2 7 3 9c0 0 52 25 52 83c0 30 -7 47 -13 57c-5 -5 -11 -10 -20 -10c-13 0 -23 11 -23 23z" />
    <glyph glyph-name="commaaccent.alt" horiz-adv-x="292" 
d="M113 -133c0 12 10 22 23 22c21 0 52 -25 52 -92c0 -69 -62 -99 -62 -99c-4 -2 -7 -3 -9 1l-3 6c-2 4 -2 7 3 9c0 0 52 25 52 83c0 30 -7 47 -13 57c-5 -5 -11 -10 -20 -10c-13 0 -23 11 -23 23z" />
    <glyph glyph-name="commaaccent.cap" horiz-adv-x="292" 
d="M113 -133c0 12 10 22 23 22c21 0 52 -25 52 -92c0 -69 -62 -99 -62 -99c-4 -2 -7 -3 -9 1l-3 6c-2 4 -2 7 3 9c0 0 52 25 52 83c0 30 -7 47 -13 57c-5 -5 -11 -10 -20 -10c-13 0 -23 11 -23 23z" />
    <glyph glyph-name="ellipsis" unicode="&#x2026;" horiz-adv-x="624" 
d="M480 21c0 13 10 23 23 23c14 0 24 -10 24 -23s-10 -24 -24 -24c-13 0 -23 11 -23 24zM287 21c0 13 10 23 23 23c14 0 24 -10 24 -23s-10 -24 -24 -24c-13 0 -23 11 -23 24zM97 21c0 13 11 23 24 23c14 0 23 -10 23 -23s-9 -24 -23 -24c-13 0 -24 11 -24 24z" />
    <glyph glyph-name="uni00AD" unicode="&#xad;" horiz-adv-x="347" 
d="M52 243c-4 0 -6 3 -6 7v4c0 4 2 7 6 7h243c3 0 6 -3 6 -7v-4c0 -4 -3 -7 -6 -7h-243z" />
    <glyph glyph-name="exclamdown" unicode="&#xa1;" horiz-adv-x="222" 
d="M111 365c-14 0 -24 10 -24 23s10 24 24 24c13 0 24 -11 24 -24s-11 -23 -24 -23zM102 133c0 4 3 7 7 7h4c4 0 7 -3 7 -7v-419c0 -4 -3 -7 -7 -7h-4c-4 0 -7 3 -7 7v419z" />
    <glyph glyph-name="questiondown" unicode="&#xbf;" horiz-adv-x="241" 
d="M131 364c-14 0 -24 10 -24 23s10 24 24 24c13 0 23 -11 23 -24s-10 -23 -23 -23zM78 13c19 10 48 25 48 64v60c0 4 3 7 7 7h4c4 0 7 -3 7 -7v-60c0 -49 -38 -68 -58 -80c-45 -24 -127 -77 -127 -159c0 -73 65 -129 162 -129c119 0 172 82 172 82c2 3 6 4 8 2l5 -4
c2 -2 5 -3 2 -8c0 0 -58 -90 -187 -90c-107 0 -179 64 -179 147c0 92 89 148 136 175z" />
    <glyph glyph-name="quoteleft" unicode="&#x2018;" horiz-adv-x="174" 
d="M99 516c-21 0 -52 25 -52 92c0 69 62 99 62 99c4 2 7 3 9 -1l3 -6c2 -4 2 -7 -3 -9c0 0 -52 -25 -52 -83c0 -30 7 -47 13 -57c5 5 11 10 20 10c13 0 23 -11 23 -23s-10 -22 -23 -22z" />
    <glyph glyph-name="quoteright" unicode="&#x2019;" horiz-adv-x="173" 
d="M59 520l-3 6c-2 4 -2 7 3 9c0 0 52 25 52 83c0 30 -7 47 -13 57c-5 -5 -11 -10 -20 -10c-13 0 -23 11 -23 23s10 22 23 22c21 0 52 -25 52 -92c0 -69 -62 -99 -62 -99c-4 -2 -7 -3 -9 1z" />
    <glyph glyph-name="quotedblleft" unicode="&#x201c;" horiz-adv-x="352" 
d="M277 516c-21 0 -52 25 -52 92c0 69 62 99 62 99c4 2 7 3 9 -1l3 -6c2 -4 2 -7 -3 -9c0 0 -52 -25 -52 -83c0 -30 7 -47 13 -57c5 5 11 10 20 10c13 0 23 -11 23 -23s-10 -22 -23 -22zM99 516c-21 0 -52 25 -52 92c0 69 62 99 62 99c4 2 7 3 9 -1l3 -6c2 -4 2 -7 -3 -9
c0 0 -52 -25 -52 -83c0 -30 7 -47 13 -57c5 5 11 10 20 10c13 0 23 -11 23 -23s-10 -22 -23 -22z" />
    <glyph glyph-name="quotedblright" unicode="&#x201d;" horiz-adv-x="351" 
d="M237 520l-3 6c-2 4 -2 7 3 9c0 0 52 25 52 83c0 30 -7 47 -13 57c-5 -5 -11 -10 -20 -10c-13 0 -23 11 -23 23s10 22 23 22c21 0 52 -25 52 -92c0 -69 -62 -99 -62 -99c-4 -2 -7 -3 -9 1zM59 520l-3 6c-2 4 -2 7 3 9c0 0 52 25 52 83c0 30 -7 47 -13 57
c-5 -5 -11 -10 -20 -10c-13 0 -23 11 -23 23s10 22 23 22c21 0 52 -25 52 -92c0 -69 -62 -99 -62 -99c-4 -2 -7 -3 -9 1z" />
    <glyph glyph-name="quotesinglbase" unicode="&#x201a;" horiz-adv-x="262" 
d="M103 13c0 12 10 22 23 22c21 0 52 -25 52 -92c0 -69 -62 -99 -62 -99c-4 -2 -7 -3 -9 1l-3 6c-2 4 -2 7 3 9c0 0 52 25 52 83c0 30 -7 47 -13 57c-5 -5 -11 -10 -20 -10c-13 0 -23 11 -23 23z" />
    <glyph glyph-name="quotedblbase" unicode="&#x201e;" horiz-adv-x="440" 
d="M281 13c0 12 10 22 23 22c21 0 52 -25 52 -92c0 -69 -62 -99 -62 -99c-4 -2 -7 -3 -9 1l-3 6c-2 4 -2 7 3 9c0 0 52 25 52 83c0 30 -7 47 -13 57c-5 -5 -11 -10 -20 -10c-13 0 -23 11 -23 23zM103 13c0 12 10 22 23 22c21 0 52 -25 52 -92c0 -69 -62 -99 -62 -99
c-4 -2 -7 -3 -9 1l-3 6c-2 4 -2 7 3 9c0 0 52 25 52 83c0 30 -7 47 -13 57c-5 -5 -11 -10 -20 -10c-13 0 -23 11 -23 23z" />
    <glyph glyph-name="guilsinglleft" unicode="&#x2039;" horiz-adv-x="230" 
d="M158 32l-122 172c-2 3 -2 5 0 8l122 170c2 3 5 4 9 2l5 -3c4 -2 4 -5 2 -8l-117 -165l117 -167c2 -3 2 -6 -2 -8l-5 -3c-4 -2 -7 -1 -9 2z" />
    <glyph glyph-name="guilsinglright" unicode="&#x203a;" horiz-adv-x="230" 
d="M58 33c-4 2 -4 5 -2 8l117 167l-117 165c-2 3 -2 6 2 8l5 3c4 2 7 1 9 -2l122 -170c2 -3 2 -5 0 -8l-122 -172c-2 -3 -5 -4 -9 -2z" />
    <glyph glyph-name="guillemotleft" unicode="&#xab;" horiz-adv-x="390" 
d="M196 204c-2 3 -2 5 0 8l122 170c2 3 5 4 9 2l5 -3c4 -2 4 -5 2 -8l-117 -165l117 -167c2 -3 2 -6 -2 -8l-5 -3c-4 -2 -7 -1 -9 2zM158 32l-122 172c-2 3 -2 5 0 8l122 170c2 3 5 4 9 2l5 -3c4 -2 4 -5 2 -8l-117 -165l117 -167c2 -3 2 -6 -2 -8l-5 -3c-4 -2 -7 -1 -9 2z
" />
    <glyph glyph-name="guillemotright" unicode="&#xbb;" horiz-adv-x="390" 
d="M216 41l117 167l-117 165c-2 3 -2 6 2 8l5 3c4 2 7 1 9 -2l122 -170c2 -3 2 -5 0 -8l-122 -172c-2 -3 -5 -4 -9 -2l-5 3c-4 2 -4 5 -2 8zM58 33c-4 2 -4 5 -2 8l117 167l-117 165c-2 3 -2 6 2 8l5 3c4 2 7 1 9 -2l122 -170c2 -3 2 -5 0 -8l-122 -172c-2 -3 -5 -4 -9 -2z
" />
    <glyph glyph-name="endash" unicode="&#x2013;" horiz-adv-x="739" 
d="M170 243c-4 0 -7 3 -7 7v4c0 4 3 7 7 7h399c4 0 7 -3 7 -7v-4c0 -4 -3 -7 -7 -7h-399z" />
    <glyph glyph-name="emdash" unicode="&#x2014;" horiz-adv-x="955" 
d="M170 243c-4 0 -7 3 -7 7v4c0 4 3 7 7 7h615c4 0 7 -3 7 -7v-4c0 -4 -3 -7 -7 -7h-615z" />
    <glyph glyph-name="bullet" unicode="&#x2022;" horiz-adv-x="354" 
d="M176 189c-21 0 -37 17 -37 37c0 22 16 39 37 39c22 0 39 -17 39 -39c0 -20 -17 -37 -39 -37z" />
    <glyph glyph-name="periodcentered" unicode="&#xb7;" horiz-adv-x="258" 
d="M129 238c-13 0 -24 11 -24 24s11 23 24 23c14 0 24 -10 24 -23s-10 -24 -24 -24z" />
    <glyph glyph-name="uni2219" unicode="&#x2219;" horiz-adv-x="354" 
d="M177 238c-13 0 -24 11 -24 24s11 23 24 23c14 0 24 -10 24 -23s-10 -24 -24 -24z" />
    <glyph glyph-name="dagger" unicode="&#x2020;" horiz-adv-x="523" 
d="M37 382c-4 0 -7 3 -7 7v4c0 4 3 7 7 7h215v293c0 4 3 7 7 7h4c4 0 7 -3 7 -7v-293h216c4 0 7 -3 7 -7v-4c0 -4 -3 -7 -7 -7h-216v-675c0 -4 -3 -7 -7 -7h-4c-4 0 -7 3 -7 7v675h-215z" />
    <glyph glyph-name="daggerdbl" unicode="&#x2021;" horiz-adv-x="523" 
d="M60 7v4c0 4 3 7 7 7h185v382h-215c-4 0 -7 3 -7 7v4c0 4 3 7 7 7h215v275c0 4 3 7 7 7h4c4 0 7 -3 7 -7v-275h216c4 0 7 -3 7 -7v-4c0 -4 -3 -7 -7 -7h-216v-382h186c4 0 7 -3 7 -7v-4c0 -4 -3 -7 -7 -7h-186v-293c0 -4 -3 -7 -7 -7h-4c-4 0 -7 3 -7 7v293h-185
c-4 0 -7 3 -7 7z" />
    <glyph glyph-name="section" unicode="&#xa7;" horiz-adv-x="541" 
d="M79 -120c2 2 5 2 8 -1c12 -12 82 -74 188 -74c100 0 190 65 190 144c0 101 -83 141 -202 171c-116 29 -209 74 -209 187c0 39 14 79 49 112c-30 28 -47 65 -47 115c0 81 61 176 217 176c100 0 170 -51 170 -51c2 -1 3 -4 1 -7l-4 -7c-1 -2 -4 -6 -8 -3
c0 0 -67 50 -159 50c-145 0 -200 -85 -200 -158c0 -97 80 -144 194 -171c129 -33 217 -74 217 -186c0 -38 -27 -79 -56 -108c34 -28 54 -65 54 -120c0 -89 -98 -161 -207 -161c-111 0 -188 65 -201 77c-3 3 -4 6 -1 9zM267 137c59 -15 109 -32 146 -57c27 25 52 63 52 97
c0 99 -83 139 -202 169c-58 14 -109 33 -146 62c-31 -29 -44 -65 -44 -101c0 -96 80 -143 194 -170z" />
    <glyph glyph-name="paragraph" unicode="&#xb6;" horiz-adv-x="669" 
d="M241 274c-116 0 -213 94 -213 214c0 117 87 212 199 212h414c4 0 7 -3 7 -7v-4c0 -4 -3 -7 -7 -7h-100v-975c0 -4 -3 -7 -7 -7h-4c-4 0 -7 3 -7 7v975h-193v-975c0 -4 -3 -7 -7 -7h-4c-4 0 -6 3 -6 7v975h-86c-102 0 -181 -87 -181 -194c0 -111 89 -197 195 -197
c4 0 7 -3 7 -7v-4c0 -4 -3 -6 -7 -6z" />
    <glyph glyph-name="brokenbar.case" horiz-adv-x="358" 
d="M177 504c-4 0 -7 3 -7 7v361c0 4 3 7 7 7h4c4 0 7 -3 7 -7v-361c0 -4 -3 -7 -7 -7h-4zM170 189c0 3 3 6 7 6h4c4 0 7 -3 7 -6v-361c0 -4 -3 -7 -7 -7h-4c-4 0 -7 3 -7 7v361z" />
    <glyph glyph-name="copyright" unicode="&#xa9;" horiz-adv-x="845" 
d="M61 350c0 199 162 360 361 360s362 -161 362 -360s-163 -360 -362 -360s-361 161 -361 360zM79 350c0 -189 154 -342 343 -342s344 153 344 342s-155 342 -344 342s-343 -153 -343 -342zM239 348c0 108 86 193 192 193c41 0 83 -13 117 -39c3 -2 4 -5 2 -8l-4 -5
c-2 -3 -4 -3 -7 -1c-32 25 -71 36 -108 36c-96 0 -175 -78 -175 -176c0 -96 79 -174 175 -174c39 0 75 10 109 39c3 3 6 3 9 -2l3 -5c2 -3 1 -5 -1 -7c-35 -30 -75 -43 -120 -43c-106 0 -192 86 -192 192z" />
    <glyph glyph-name="registered" unicode="&#xae;" horiz-adv-x="845" 
d="M61 350c0 199 162 360 361 360s362 -161 362 -360s-163 -360 -362 -360s-361 161 -361 360zM79 350c0 -189 154 -342 343 -342s344 153 344 342s-155 342 -344 342s-343 -153 -343 -342zM291 173v359c0 4 3 7 6 7h150c66 0 130 -34 130 -114c0 -70 -54 -107 -109 -115
l78 -134c2 -3 1 -5 -2 -7l-6 -3c-3 -2 -6 0 -8 3l-81 140h-2h-139v-136c0 -4 -3 -7 -7 -7h-4c-3 0 -6 3 -6 7zM308 326h139c53 0 112 32 112 99c0 68 -56 97 -112 97h-139v-196z" />
    <glyph glyph-name="trademark" unicode="&#x2122;" horiz-adv-x="721" 
d="M289 389c-5 2 -5 4 -4 8l83 309c2 7 12 7 13 0l92 -281l91 281c2 7 12 7 14 0l82 -309c1 -5 1 -7 -4 -8l-8 -2c-3 -1 -5 1 -6 4l-72 270l-90 -278c-2 -7 -12 -7 -14 0l-90 278l-73 -270c-1 -5 -4 -5 -8 -4zM117 389c-4 0 -7 3 -7 7v286h-104c-4 0 -7 3 -7 7v4
c0 4 3 7 7 7h224c4 0 7 -3 7 -7v-4c0 -4 -3 -7 -7 -7h-102v-286c0 -4 -3 -7 -7 -7h-4z" />
    <glyph glyph-name="currency" unicode="&#xa4;" horiz-adv-x="449" 
d="M108 311c0 -63 52 -116 116 -116c62 0 117 53 117 117c0 62 -52 116 -116 116s-117 -53 -117 -117zM65 151l-2 2c-2 3 -2 7 0 10l60 61c-21 25 -32 56 -32 86c0 33 10 65 33 91l-61 62c-2 3 -2 7 0 10l2 2c3 2 7 2 10 0l62 -62c25 22 56 32 88 32c31 0 63 -11 87 -32
l63 62c3 2 7 2 10 0l2 -2c2 -3 2 -7 0 -10l-62 -63c22 -25 34 -57 34 -88c0 -32 -11 -63 -32 -88l60 -61c2 -3 2 -7 0 -10l-2 -2c-3 -2 -7 -2 -10 0l-61 60c-26 -23 -57 -33 -89 -33s-64 11 -89 33l-61 -60c-3 -2 -7 -2 -10 0z" />
    <glyph glyph-name="Euro" unicode="&#x20ac;" horiz-adv-x="743" 
d="M26 265c-3 0 -6 3 -6 6v4c0 4 3 8 6 7h54c-4 21 -6 44 -6 67c0 11 0 22 1 33h-49c-3 0 -6 3 -6 7v4c0 4 3 7 6 7h51c25 176 176 310 360 310c102 0 175 -36 243 -93c2 -2 3 -5 1 -8l-5 -6c-3 -3 -6 -2 -8 0c-65 56 -135 89 -231 89c-174 0 -317 -126 -341 -292h366
c4 0 7 -3 7 -7v-4c0 -4 -3 -7 -7 -7h-369c-1 -11 -1 -22 -1 -33c0 -23 2 -46 6 -67h325c3 0 6 -3 6 -7v-4c0 -3 -3 -6 -6 -6h-321c38 -150 173 -257 335 -257c85 0 164 32 231 93c2 2 6 3 8 0l5 -6c2 -2 2 -5 0 -7c-69 -66 -155 -98 -244 -98c-172 0 -315 116 -353 275h-58z
" />
    <glyph glyph-name="cent" unicode="&#xa2;" horiz-adv-x="461" 
d="M158 -81l22 84c-80 29 -140 103 -140 199c0 121 97 208 214 208c12 0 24 -1 35 -3l10 38c1 4 4 6 8 5l4 -1c4 -1 6 -5 5 -9l-10 -36c64 -14 101 -49 101 -49c3 -3 2 -6 0 -8l-4 -4c-3 -3 -7 -2 -10 1c0 0 -34 30 -91 43l-100 -373c17 -4 34 -6 52 -6c89 0 147 63 147 63
c3 3 6 3 8 1l5 -5c2 -2 3 -4 1 -6c0 0 -62 -71 -161 -71c-20 0 -39 3 -57 8l-22 -84c-1 -4 -4 -6 -8 -5l-4 1c-4 1 -6 5 -5 9zM185 20l99 370c-10 1 -19 2 -30 2c-107 0 -197 -79 -197 -190c0 -87 55 -156 128 -182z" />
    <glyph glyph-name="sterling" unicode="&#xa3;" horiz-adv-x="536" 
d="M82 10c38 92 51 160 51 217c0 29 -4 57 -9 84h-43c-4 0 -7 3 -7 7v4c0 3 3 6 7 6h40c-15 61 -31 114 -31 183c0 119 94 199 196 199c106 0 162 -49 187 -72c3 -3 2 -7 0 -9l-4 -4c-2 -2 -5 -4 -8 -1c-23 21 -76 68 -175 68c-92 0 -179 -71 -179 -181
c0 -64 16 -121 32 -183h240c4 0 7 -3 7 -6v-4c0 -4 -3 -7 -7 -7h-236c4 -26 7 -53 7 -84c0 -57 -11 -121 -47 -209h350c4 0 7 -3 7 -7v-4c0 -4 -3 -7 -7 -7h-365c-5 0 -8 5 -6 10z" />
    <glyph glyph-name="florin" unicode="&#x192;" horiz-adv-x="345" 
d="M130 -134v516h-110c-4 0 -7 3 -7 7v4c0 4 3 7 7 7h110v134c0 120 60 176 149 176c56 0 95 -25 114 -43c3 -3 3 -7 0 -10l-3 -3c-3 -3 -7 -3 -10 0c-17 16 -50 38 -101 38c-79 0 -131 -50 -131 -158v-134h181c4 0 7 -3 7 -7v-4c0 -4 -3 -7 -7 -7h-181v-516
c0 -120 -60 -176 -149 -176c-56 0 -95 25 -114 43c-3 3 -3 7 0 10l3 3c3 3 7 3 10 0c17 -16 50 -38 101 -38c79 0 131 50 131 158z" />
    <glyph glyph-name="yen" unicode="&#xa5;" horiz-adv-x="606" 
d="M125 155c-3 0 -6 3 -6 6v4c0 4 3 8 6 7h169v101h-169c-3 0 -6 3 -6 6v4c0 4 3 8 6 7h169v53l-264 345c-2 3 -3 6 1 9l6 4c4 2 6 -1 8 -3l258 -339l258 339c2 3 5 5 8 3l6 -4c4 -3 3 -6 1 -9l-264 -344v-54h170c3 0 6 -3 6 -7v-4c0 -3 -3 -6 -6 -6h-170v-101h170
c3 0 6 -3 6 -7v-4c0 -3 -3 -6 -6 -6h-170v-148c0 -4 -3 -7 -7 -7h-4c-4 0 -7 3 -7 7v148h-169z" />
    <glyph glyph-name="ordfeminine" unicode="&#xaa;" horiz-adv-x="336" 
d="M147 401c-58 0 -102 39 -102 101c0 56 51 98 128 98c32 0 64 -7 81 -13v26c0 55 -18 79 -75 79c-55 0 -87 -21 -87 -21c-3 -1 -6 0 -7 1l-3 6c-2 2 -1 6 2 8c0 0 35 24 95 24c70 0 93 -33 93 -97v-196c0 -4 -3 -7 -7 -7h-4c-4 0 -7 3 -7 7v25c-22 -18 -63 -41 -107 -41z
M147 419c49 0 92 29 107 48v102c-12 4 -45 15 -81 15c-67 0 -110 -36 -110 -82c0 -53 36 -83 84 -83z" />
    <glyph glyph-name="ordmasculine" unicode="&#xba;" horiz-adv-x="337" 
d="M168 394c-76 0 -121 61 -121 158c0 98 45 158 121 158s122 -60 122 -158c0 -97 -46 -158 -122 -158zM168 412c66 0 104 53 104 140c0 88 -38 141 -104 141c-65 0 -104 -53 -104 -141c0 -87 39 -140 104 -140z" />
    <glyph glyph-name="onesuperior" unicode="&#xb9;" horiz-adv-x="181" 
d="M103 504c-4 0 -7 3 -7 7v266l-55 -41c-3 -2 -6 -2 -8 1l-5 7c-1 2 -2 4 2 7l73 53c5 4 11 0 11 -6v-287c0 -4 -3 -7 -7 -7h-4z" />
    <glyph glyph-name="twosuperior" unicode="&#xb2;" horiz-adv-x="330" 
d="M69 504c-7 0 -10 8 -5 12l132 110c30 25 56 55 56 93c0 37 -31 73 -86 73c-53 0 -74 -36 -74 -36c-2 -4 -6 -5 -9 -3l-5 4c-1 1 -5 3 -2 8c0 0 27 45 90 45c67 0 104 -44 104 -91c0 -40 -26 -74 -62 -104l-112 -93h165c3 0 6 -3 6 -7v-4c0 -4 -3 -7 -6 -7h-192z" />
    <glyph glyph-name="threesuperior" unicode="&#xb3;" horiz-adv-x="334" 
d="M170 494c-61 0 -95 31 -107 42c-3 3 -3 7 0 10l3 3c3 3 7 3 10 0c10 -9 36 -37 95 -37c58 0 94 29 94 69c0 35 -31 65 -83 65h-65c-4 0 -7 3 -7 7v4c0 4 3 7 7 7h65c43 0 74 29 74 65c0 39 -31 63 -81 63c-59 0 -87 -36 -87 -36c-2 -2 -5 -3 -7 -1l-5 4c-5 4 -4 6 -2 9
c0 0 34 42 101 42c60 0 100 -30 100 -81c0 -31 -25 -61 -52 -73c36 -12 61 -43 61 -75c0 -50 -46 -87 -114 -87z" />
    <glyph glyph-name="fraction" unicode="&#x2044;" horiz-adv-x="157" 
d="M-112 2c-2 -3 -4 -5 -7 -3l-8 5c-3 2 -3 5 -1 8l417 686c2 3 5 3 8 1l6 -3c2 -1 5 -3 2 -8z" />
    <glyph glyph-name="uni2215" unicode="&#x2215;" horiz-adv-x="157" 
d="M-112 2c-2 -3 -4 -5 -7 -3l-8 5c-3 2 -3 5 -1 8l417 686c2 3 5 3 8 1l6 -3c2 -1 5 -3 2 -8z" />
    <glyph glyph-name="onehalf" unicode="&#xbd;" horiz-adv-x="625" 
d="M130 404c-4 0 -7 3 -7 7v266l-55 -41c-3 -2 -6 -2 -8 1l-5 7c-1 2 -2 4 2 7l73 53c5 4 11 0 11 -6v-287c0 -4 -3 -7 -7 -7h-4zM66 12l417 686c2 3 5 3 8 1l6 -3c2 -1 5 -3 2 -8l-417 -686c-2 -3 -4 -5 -7 -3l-8 5c-3 2 -3 5 -1 8zM347 12l132 110c30 25 56 55 56 93
c0 37 -31 73 -86 73c-53 0 -74 -36 -74 -36c-2 -4 -6 -5 -9 -3l-5 4c-1 1 -5 3 -2 8c0 0 27 45 90 45c67 0 104 -44 104 -91c0 -40 -26 -74 -62 -104l-112 -93h165c3 0 6 -3 6 -7v-4c0 -4 -3 -7 -6 -7h-192c-7 0 -10 8 -5 12z" />
    <glyph glyph-name="onethird" unicode="&#x2153;" horiz-adv-x="599" 
d="M126 404c-4 0 -7 3 -7 7v266l-55 -41c-3 -2 -6 -2 -8 1l-5 7c-1 2 -2 4 2 7l73 53c5 4 11 0 11 -6v-287c0 -4 -3 -7 -7 -7h-4zM63 4c-3 2 -3 5 -1 8l417 686c2 3 5 3 8 1l6 -3c2 -1 5 -3 2 -8l-417 -686c-2 -3 -4 -5 -7 -3zM353 32c-3 3 -3 7 0 10l3 3c3 3 7 3 10 0
c10 -9 36 -37 95 -37c58 0 94 29 94 69c0 35 -31 65 -83 65h-65c-4 0 -7 3 -7 7v4c0 4 3 7 7 7h65c43 0 74 29 74 65c0 39 -31 63 -81 63c-59 0 -87 -36 -87 -36c-2 -2 -5 -3 -7 -1l-5 4c-5 4 -4 6 -2 9c0 0 34 42 101 42c60 0 100 -30 100 -81c0 -31 -25 -61 -52 -73
c36 -12 61 -43 61 -75c0 -50 -46 -87 -114 -87c-61 0 -95 31 -107 42z" />
    <glyph glyph-name="onequarter" unicode="&#xbc;" horiz-adv-x="637" 
d="M130 404c-4 0 -7 3 -7 7v266l-55 -41c-3 -2 -6 -2 -8 1l-5 7c-1 2 -2 4 2 7l73 53c5 4 11 0 11 -6v-287c0 -4 -3 -7 -7 -7h-4zM66 12l417 686c2 3 5 3 8 1l6 -3c2 -1 5 -3 2 -8l-417 -686c-2 -3 -4 -5 -7 -3l-8 5c-3 2 -3 5 -1 8zM306 79l203 223c5 4 12 2 12 -5v-212h50
c4 0 7 -3 7 -7v-4c0 -3 -3 -6 -7 -6h-50v-61c0 -4 -3 -7 -7 -7h-4c-4 0 -7 3 -7 7v61h-192c-6 0 -9 6 -5 11zM333 85h170v185z" />
    <glyph glyph-name="oneeighth" unicode="&#x215b;" horiz-adv-x="624" 
d="M126 404c-4 0 -7 3 -7 7v266l-55 -41c-3 -2 -6 -2 -8 1l-5 7c-1 2 -2 4 2 7l73 53c5 4 11 0 11 -6v-287c0 -4 -3 -7 -7 -7h-4zM63 4c-3 2 -3 5 -1 8l417 686c2 3 5 3 8 1l6 -3c2 -1 5 -3 2 -8l-417 -686c-2 -3 -4 -5 -7 -3zM360 74c0 38 28 67 75 78
c-39 11 -65 37 -65 71c0 43 29 83 103 83c73 0 105 -40 105 -83c0 -34 -26 -60 -66 -71c48 -11 75 -40 75 -78c0 -59 -52 -84 -113 -84c-62 0 -114 25 -114 84zM389 223c0 -34 35 -57 85 -59c50 2 85 25 85 59c0 35 -28 67 -86 67c-59 0 -84 -32 -84 -67zM381 74
c0 -47 43 -68 93 -68s93 21 93 68c0 38 -35 63 -93 66c-58 -3 -93 -28 -93 -66z" />
    <glyph glyph-name="twothirds" unicode="&#x2154;" horiz-adv-x="599" 
d="M-14 404c-7 0 -10 8 -5 12l132 110c30 25 56 55 56 93c0 37 -31 73 -86 73c-53 0 -74 -36 -74 -36c-2 -4 -6 -5 -9 -3l-5 4c-1 1 -5 3 -2 8c0 0 27 45 90 45c67 0 104 -44 104 -91c0 -40 -26 -74 -62 -104l-112 -93h165c3 0 6 -3 6 -7v-4c0 -4 -3 -7 -6 -7h-192zM63 4
c-3 2 -3 5 -1 8l417 686c2 3 5 3 8 1l6 -3c2 -1 5 -3 2 -8l-417 -686c-2 -3 -4 -5 -7 -3zM353 32c-3 3 -3 7 0 10l3 3c3 3 7 3 10 0c10 -9 36 -37 95 -37c58 0 94 29 94 69c0 35 -31 65 -83 65h-65c-4 0 -7 3 -7 7v4c0 4 3 7 7 7h65c43 0 74 29 74 65c0 39 -31 63 -81 63
c-59 0 -87 -36 -87 -36c-2 -2 -5 -3 -7 -1l-5 4c-5 4 -4 6 -2 9c0 0 34 42 101 42c60 0 100 -30 100 -81c0 -31 -25 -61 -52 -73c36 -12 61 -43 61 -75c0 -50 -46 -87 -114 -87c-61 0 -95 31 -107 42z" />
    <glyph glyph-name="threequarters" unicode="&#xbe;" horiz-adv-x="695" 
d="M162 394c-61 0 -95 31 -107 42c-3 3 -3 7 0 10l3 3c3 3 7 3 10 0c10 -9 36 -37 95 -37c58 0 94 29 94 69c0 35 -31 65 -83 65h-65c-4 0 -7 3 -7 7v4c0 4 3 7 7 7h65c43 0 74 29 74 65c0 39 -31 63 -81 63c-59 0 -87 -36 -87 -36c-2 -2 -5 -3 -7 -1l-5 4c-5 4 -4 6 -2 9
c0 0 34 42 101 42c60 0 100 -30 100 -81c0 -31 -25 -61 -52 -73c36 -12 61 -43 61 -75c0 -50 -46 -87 -114 -87zM124 12l417 686c2 3 5 3 8 1l6 -3c2 -1 5 -3 2 -8l-417 -686c-2 -3 -4 -5 -7 -3l-8 5c-3 2 -3 5 -1 8zM364 79l203 223c5 4 12 2 12 -5v-212h50c4 0 7 -3 7 -7
v-4c0 -3 -3 -6 -7 -6h-50v-61c0 -4 -3 -7 -7 -7h-4c-4 0 -7 3 -7 7v61h-192c-6 0 -9 6 -5 11zM391 85h170v185z" />
    <glyph glyph-name="threeeighths" unicode="&#x215c;" horiz-adv-x="684" 
d="M160 394c-61 0 -95 31 -107 42c-3 3 -3 7 0 10l3 3c3 3 7 3 10 0c10 -9 36 -37 95 -37c58 0 94 29 94 69c0 35 -31 65 -83 65h-65c-4 0 -7 3 -7 7v4c0 4 3 7 7 7h65c43 0 74 29 74 65c0 39 -31 63 -81 63c-59 0 -87 -36 -87 -36c-2 -2 -5 -3 -7 -1l-5 4c-5 4 -4 6 -2 9
c0 0 34 42 101 42c60 0 100 -30 100 -81c0 -31 -25 -61 -52 -73c36 -12 61 -43 61 -75c0 -50 -46 -87 -114 -87zM122 12l417 686c2 3 5 3 8 1l6 -3c2 -1 5 -3 2 -8l-417 -686c-2 -3 -4 -5 -7 -3l-8 5c-3 2 -3 5 -1 8zM410 74c0 38 28 67 75 78c-39 11 -65 37 -65 71
c0 43 29 83 103 83c73 0 105 -40 105 -83c0 -34 -26 -60 -66 -71c48 -11 75 -40 75 -78c0 -59 -52 -84 -113 -84c-62 0 -114 25 -114 84zM439 223c0 -34 35 -57 85 -59c50 2 85 25 85 59c0 35 -28 67 -86 67c-59 0 -84 -32 -84 -67zM431 74c0 -47 43 -68 93 -68s93 21 93 68
c0 38 -35 63 -93 66c-58 -3 -93 -28 -93 -66z" />
    <glyph glyph-name="fiveeighths" unicode="&#x215d;" horiz-adv-x="684" 
d="M163 394c-58 0 -85 26 -99 39c-3 3 -3 7 0 10l4 4c3 3 7 3 10 0c11 -12 33 -35 85 -35c61 0 104 40 104 87c0 49 -35 79 -104 78h-86c-4 0 -7 3 -7 7v109c0 4 3 7 7 7h160c4 0 7 -3 7 -7v-4c0 -4 -3 -7 -7 -7h-149v-87h75c80 1 122 -36 122 -96c0 -57 -52 -105 -122 -105
zM122 12l417 686c2 3 5 3 8 1l6 -3c2 -1 5 -3 2 -8l-417 -686c-2 -3 -4 -5 -7 -3l-8 5c-3 2 -3 5 -1 8zM410 74c0 38 28 67 75 78c-39 11 -65 37 -65 71c0 43 29 83 103 83c73 0 105 -40 105 -83c0 -34 -26 -60 -66 -71c48 -11 75 -40 75 -78c0 -59 -52 -84 -113 -84
c-62 0 -114 25 -114 84zM439 223c0 -34 35 -57 85 -59c50 2 85 25 85 59c0 35 -28 67 -86 67c-59 0 -84 -32 -84 -67zM431 74c0 -47 43 -68 93 -68s93 21 93 68c0 38 -35 63 -93 66c-58 -3 -93 -28 -93 -66z" />
    <glyph glyph-name="seveneighths" unicode="&#x215e;" horiz-adv-x="684" 
d="M152 402l-7 4c-3 1 -3 4 -1 8l148 268h-176c-3 0 -6 3 -6 7v4c0 4 3 7 6 7h195c6 0 8 -5 6 -10l-157 -285c-2 -4 -4 -5 -8 -3zM122 12l417 686c2 3 5 3 8 1l6 -3c2 -1 5 -3 2 -8l-417 -686c-2 -3 -4 -5 -7 -3l-8 5c-3 2 -3 5 -1 8zM410 74c0 38 28 67 75 78
c-39 11 -65 37 -65 71c0 43 29 83 103 83c73 0 105 -40 105 -83c0 -34 -26 -60 -66 -71c48 -11 75 -40 75 -78c0 -59 -52 -84 -113 -84c-62 0 -114 25 -114 84zM439 223c0 -34 35 -57 85 -59c50 2 85 25 85 59c0 35 -28 67 -86 67c-59 0 -84 -32 -84 -67zM431 74
c0 -47 43 -68 93 -68s93 21 93 68c0 38 -35 63 -93 66c-58 -3 -93 -28 -93 -66z" />
    <glyph glyph-name="perthousand" unicode="&#x2030;" horiz-adv-x="1018" 
d="M191 427c-78 0 -141 63 -141 142c0 78 63 141 141 141s142 -63 142 -141c0 -79 -64 -142 -142 -142zM191 445c68 0 124 55 124 124c0 68 -56 123 -124 123s-123 -55 -123 -123c0 -69 55 -124 123 -124zM683 131c0 79 63 142 142 142c77 0 141 -63 141 -142
c0 -78 -64 -141 -141 -141c-79 0 -142 63 -142 141zM360 131c0 79 63 142 141 142s141 -63 141 -142c0 -78 -63 -141 -141 -141s-141 63 -141 141zM701 131c0 -68 55 -123 124 -123c67 0 123 55 123 123c0 69 -56 124 -123 124c-69 0 -124 -55 -124 -124zM378 131
c0 -68 55 -123 123 -123s124 55 124 123c0 69 -56 124 -124 124s-123 -55 -123 -124zM120 12l417 686c2 3 5 3 8 1l6 -3c2 -1 5 -3 2 -8l-417 -686c-2 -3 -4 -5 -7 -3l-8 5c-3 2 -3 5 -1 8z" />
    <glyph glyph-name="minus" unicode="&#x2212;" horiz-adv-x="503" 
d="M57 340c-4 0 -7 3 -7 7v4c0 4 3 7 7 7h389c4 0 7 -3 7 -7v-4c0 -4 -3 -7 -7 -7h-389z" />
    <glyph glyph-name="plusminus" unicode="&#xb1;" horiz-adv-x="632" 
d="M306 225v156h-186c-4 0 -7 3 -7 7v4c0 4 3 7 7 7h186v185c0 4 3 7 7 7h4c4 0 7 -3 7 -7v-185h185c4 0 7 -3 7 -7v-4c0 -4 -3 -7 -7 -7h-185v-156c0 -4 -3 -7 -7 -7h-4c-4 0 -7 3 -7 7zM116 92v4c0 4 3 7 7 7h389c4 0 7 -3 7 -7v-4c0 -4 -3 -7 -7 -7h-389c-4 0 -7 3 -7 7z
" />
    <glyph glyph-name="multiply" unicode="&#xd7;" horiz-adv-x="432" 
d="M75 204l-3 3c-3 2 -3 7 0 9l131 132l-131 131c-2 3 -2 7 0 10l3 3c3 2 7 2 10 0l131 -131l131 131c3 2 7 2 10 0l3 -3c2 -3 2 -7 0 -10l-131 -131l131 -132c3 -2 3 -7 0 -9l-3 -3c-2 -3 -7 -3 -9 0l-132 131l-132 -131c-2 -3 -7 -3 -9 0z" />
    <glyph glyph-name="divide" unicode="&#xf7;" horiz-adv-x="713" 
d="M352 465c-13 0 -24 11 -24 24s11 23 24 23c14 0 24 -10 24 -23s-10 -24 -24 -24zM161 340c-4 0 -7 3 -7 7v4c0 4 3 7 7 7h389c4 0 7 -3 7 -7v-4c0 -4 -3 -7 -7 -7h-389zM328 209c0 13 11 23 24 23c14 0 24 -10 24 -23s-10 -24 -24 -24c-13 0 -24 11 -24 24z" />
    <glyph glyph-name="notequal" unicode="&#x2260;" horiz-adv-x="445" 
d="M115 83c-3 2 -4 6 -2 9l48 84h-104c-4 0 -7 3 -7 7v4c0 4 3 7 7 7h115l108 188h-223c-4 0 -7 3 -7 7v4c0 4 3 7 7 7h233l38 66c2 3 6 4 10 2l3 -2c4 -2 5 -6 3 -9l-33 -57h77c4 0 7 -3 7 -7v-4c0 -4 -3 -7 -7 -7h-88l-108 -188h196c4 0 7 -3 7 -7v-4c0 -4 -3 -7 -7 -7
h-207l-53 -93c-2 -3 -6 -4 -9 -2z" />
    <glyph glyph-name="approxequal" unicode="&#x2248;" horiz-adv-x="559" 
d="M46 345l-6 4c-2 1 -3 2 -1 6c0 0 37 80 108 80c39 0 64 -28 82 -50c16 -21 37 -45 69 -45c62 0 92 71 92 71c2 4 4 4 6 3l7 -4c3 -2 3 -5 1 -8c0 0 -35 -78 -106 -78c-40 0 -63 28 -81 50c-15 20 -37 44 -70 44c-62 0 -94 -70 -94 -70c-2 -3 -4 -5 -7 -3zM46 179l-6 4
c-2 1 -3 2 -1 6c0 0 37 80 108 80c39 0 64 -28 82 -50c16 -21 37 -45 69 -45c62 0 92 71 92 71c2 4 4 4 6 3l7 -4c3 -2 3 -5 1 -8c0 0 -35 -78 -106 -78c-40 0 -63 28 -81 50c-15 20 -37 44 -70 44c-62 0 -94 -70 -94 -70c-2 -3 -4 -5 -7 -3z" />
    <glyph glyph-name="lessequal" unicode="&#x2264;" horiz-adv-x="448" 
d="M35 393c-5 3 -5 9 0 12l385 205c4 2 7 2 9 -2l3 -5c2 -3 2 -7 -2 -9l-370 -195l370 -188c4 -2 4 -6 2 -9l-3 -5c-2 -4 -5 -4 -9 -2zM41 85c-4 0 -7 3 -7 7v4c0 4 3 7 7 7h389c4 0 7 -3 7 -7v-4c0 -4 -3 -7 -7 -7h-389z" />
    <glyph glyph-name="greaterequal" unicode="&#x2265;" horiz-adv-x="448" 
d="M47 195c-4 -2 -7 -2 -9 2l-3 5c-2 3 -2 7 2 9l370 188l-370 195c-4 2 -4 6 -2 9l3 5c2 4 5 4 9 2l385 -205c5 -3 5 -9 0 -12zM37 85c-4 0 -7 3 -7 7v4c0 4 3 7 7 7h389c4 0 7 -3 7 -7v-4c0 -4 -3 -7 -7 -7h-389z" />
    <glyph glyph-name="logicalnot" unicode="&#xac;" horiz-adv-x="565" 
d="M88 340c-4 0 -7 3 -7 7v4c0 4 3 7 7 7h389c5 0 7 -3 7 -7v-197c0 -4 -3 -7 -7 -7h-4c-4 0 -7 3 -7 7v186h-378z" />
    <glyph glyph-name="Delta" unicode="&#x2206;" horiz-adv-x="658" 
d="M24 19l302 698c1 2 3 4 5 4h2c2 0 4 -2 5 -4l298 -700c7 -17 -7 -17 -13 -17h-588c-7 0 -20 -1 -11 19zM41 18h575l-284 667z" />
    <glyph glyph-name="uni0394" unicode="&#x394;" horiz-adv-x="658" 
d="M24 19l302 698c1 2 3 4 5 4h2c2 0 4 -2 5 -4l298 -700c7 -17 -7 -17 -13 -17h-588c-7 0 -20 -1 -11 19zM41 18h575l-284 667z" />
    <glyph glyph-name="Omega" unicode="&#x2126;" horiz-adv-x="781" 
d="M58 7v4c0 4 3 7 7 7h186c-131 54 -222 180 -222 331c0 201 160 361 361 361s362 -160 362 -361c0 -149 -90 -276 -218 -331h185c4 0 7 -3 7 -7v-4c0 -4 -3 -7 -7 -7h-238c-4 0 -7 3 -7 7v4c0 4 3 7 7 7c146 39 253 172 253 331c0 191 -153 343 -344 343
s-343 -152 -343 -343c0 -161 107 -294 256 -331c4 0 7 -3 7 -7v-4c0 -4 -3 -7 -7 -7h-238c-4 0 -7 3 -7 7z" />
    <glyph glyph-name="uni03A9" unicode="&#x3a9;" horiz-adv-x="781" 
d="M58 7v4c0 4 3 7 7 7h186c-131 54 -222 180 -222 331c0 201 160 361 361 361s362 -160 362 -361c0 -149 -90 -276 -218 -331h185c4 0 7 -3 7 -7v-4c0 -4 -3 -7 -7 -7h-238c-4 0 -7 3 -7 7v4c0 4 3 7 7 7c146 39 253 172 253 331c0 191 -153 343 -344 343
s-343 -152 -343 -343c0 -161 107 -294 256 -331c4 0 7 -3 7 -7v-4c0 -4 -3 -7 -7 -7h-238c-4 0 -7 3 -7 7z" />
    <glyph glyph-name="mu" unicode="&#xb5;" horiz-adv-x="504" 
d="M100 78v-371c0 -4 -3 -7 -7 -7h-4c-4 0 -7 3 -7 7v686c0 4 3 7 7 7h4c4 0 7 -3 7 -7v-219c0 -109 52 -166 148 -166c90 0 140 73 146 82v303c0 4 3 7 7 7h4c4 0 7 -3 7 -7v-386c0 -4 -3 -7 -7 -7h-4c-4 0 -7 3 -7 7v53c-23 -28 -72 -70 -146 -70c-73 0 -127 29 -148 88z
" />
    <glyph glyph-name="uni03BC" unicode="&#x3bc;" horiz-adv-x="504" 
d="M100 78v-371c0 -4 -3 -7 -7 -7h-4c-4 0 -7 3 -7 7v686c0 4 3 7 7 7h4c4 0 7 -3 7 -7v-219c0 -109 52 -166 148 -166c90 0 140 73 146 82v303c0 4 3 7 7 7h4c4 0 7 -3 7 -7v-386c0 -4 -3 -7 -7 -7h-4c-4 0 -7 3 -7 7v53c-23 -28 -72 -70 -146 -70c-73 0 -127 29 -148 88z
" />
    <glyph glyph-name="pi" unicode="&#x3c0;" horiz-adv-x="773" 
d="M228 7v375h-125c-4 0 -7 3 -7 7v4c0 4 3 7 7 7h545c4 0 7 -3 7 -7v-4c0 -4 -3 -7 -7 -7h-126v-375c0 -4 -3 -7 -7 -7h-3c-4 0 -7 3 -7 7v375h-259v-375c0 -4 -3 -7 -7 -7h-4c-4 0 -7 3 -7 7z" />
    <glyph glyph-name="degree" unicode="&#xb0;" horiz-adv-x="365" 
d="M183 427c-78 0 -141 63 -141 142c0 78 63 141 141 141c77 0 141 -63 141 -141c0 -79 -64 -142 -141 -142zM183 445c68 0 122 55 122 124c0 68 -54 123 -122 123c-69 0 -123 -55 -123 -123c0 -69 54 -124 123 -124z" />
    <glyph glyph-name="afii61289" unicode="&#x2113;" horiz-adv-x="505" 
d="M61 217c-5 -1 -7 2 -8 5l-2 8c-1 4 1 7 6 8c26 5 54 12 81 21l21 105c45 220 102 346 197 346c62 0 99 -48 99 -121c0 -180 -146 -289 -299 -344l-6 -28c-16 -79 -20 -207 99 -207c106 0 165 43 171 47c3 2 8 2 10 -1l3 -4c2 -3 3 -7 0 -10c-5 -4 -72 -52 -184 -52
c-133 0 -140 128 -119 231l3 16c-24 -8 -52 -16 -72 -20zM160 266c143 53 274 159 274 323c0 61 -28 101 -78 101c-86 0 -134 -124 -176 -328z" />
    <glyph glyph-name="estimated" unicode="&#x212e;" horiz-adv-x="823" 
d="M157 118c62 -68 153 -110 254 -110c85 0 164 32 231 93c2 2 6 3 8 0l5 -6c2 -2 2 -5 0 -7c-69 -66 -155 -98 -244 -98c-201 0 -361 158 -361 359s160 361 361 361c200 0 360 -158 362 -358v-1v-4c0 -4 -3 -7 -7 -7h-633v-193c7 -10 15 -20 24 -29zM133 358h558v191
c-62 86 -164 143 -280 143c-115 0 -216 -55 -278 -141v-193z" />
    <glyph glyph-name="eng" unicode="&#x14b;" horiz-adv-x="496" 
d="M81 7v386c0 4 3 7 7 7h4c4 0 7 -3 7 -7v-55c25 27 78 72 156 72c108 0 166 -65 166 -186v-357c0 -120 -49 -176 -140 -176c-55 0 -95 25 -113 43c-3 3 -3 7 0 10l3 3c3 3 6 3 9 0c17 -16 50 -38 101 -38c79 0 122 50 122 158v357c0 109 -52 168 -148 168
c-89 0 -148 -71 -156 -82v-303c0 -4 -3 -7 -7 -7h-4c-4 0 -7 3 -7 7z" />
    <glyph glyph-name="Eng" unicode="&#x14a;" horiz-adv-x="772" 
d="M112 7v703c0 7 9 10 13 4l517 -689v668c0 4 3 7 7 7h4c4 0 7 -3 7 -7v-826c0 -120 -49 -176 -140 -176c-55 0 -95 25 -113 43c-3 3 -3 7 0 10l3 3c3 3 6 3 9 0c17 -16 50 -38 101 -38c79 0 122 50 122 158v128l-512 682v-670c0 -4 -3 -7 -7 -7h-4c-4 0 -7 3 -7 7z" />
    <glyph glyph-name="infinity" unicode="&#x221e;" horiz-adv-x="648" 
d="M191 155c-78 0 -141 63 -141 141c0 79 63 142 141 142c61 0 113 -39 132 -93c20 54 72 93 134 93c77 0 141 -63 141 -142c0 -78 -64 -141 -141 -141c-62 0 -114 38 -134 92c-19 -54 -71 -92 -132 -92zM333 296c0 -68 55 -123 124 -123c67 0 123 55 123 123
c0 69 -56 124 -123 124c-69 0 -124 -55 -124 -124zM191 173c68 0 124 55 124 123c0 69 -56 124 -124 124s-123 -55 -123 -124c0 -68 55 -123 123 -123z" />
    <glyph glyph-name="partialdiff" unicode="&#x2202;" horiz-adv-x="600" 
d="M70 222c0 135 104 221 219 221c118 0 189 -75 221 -118c-28 232 -242 337 -312 362c-4 2 -5 4 -4 8l2 7c1 3 5 4 8 3c76 -27 326 -152 326 -429c0 -160 -86 -286 -235 -286c-122 0 -225 103 -225 232zM87 222c0 -119 95 -214 208 -214c139 0 218 117 218 268v14
c-6 9 -76 135 -224 135c-106 0 -202 -78 -202 -203z" />
    <glyph glyph-name="integral" unicode="&#x222b;" horiz-adv-x="314" 
d="M103 -134v668c0 120 60 176 149 176c56 0 95 -25 114 -43c3 -3 3 -7 0 -10l-3 -3c-3 -3 -7 -3 -10 0c-17 16 -50 38 -101 38c-79 0 -131 -50 -131 -158v-668c0 -120 -60 -176 -149 -176c-56 0 -95 25 -114 43c-3 3 -3 7 0 10l3 3c3 3 7 3 10 0c17 -16 50 -38 101 -38
c79 0 131 50 131 158z" />
    <glyph glyph-name="radical" unicode="&#x221a;" horiz-adv-x="638" 
d="M310 -16l-174 411c-1 3 0 5 3 6l9 3c3 1 4 -1 5 -3l163 -385l294 676c3 7 6 8 11 8h112c4 0 7 -3 7 -7v-4c0 -4 -3 -7 -7 -7h-108l-303 -698c-3 -6 -9 -6 -12 0z" />
    <glyph glyph-name="summation" unicode="&#x2211;" horiz-adv-x="515" 
d="M47 18l350 347l-350 317c-6 6 -4 18 7 18h407c4 0 7 -3 7 -7v-4c0 -4 -3 -7 -7 -7h-385l337 -306c3 -3 7 -6 7 -10v-4c0 -4 -4 -7 -7 -10l-341 -334h389c4 0 7 -3 7 -7v-4c0 -4 -3 -7 -7 -7h-407c-10 0 -12 13 -7 18z" />
    <glyph glyph-name="product" unicode="&#x220f;" horiz-adv-x="624" 
d="M48 7v686c0 4 3 7 7 7h514c4 0 7 -3 7 -7v-686c0 -4 -3 -7 -7 -7h-4c-4 0 -7 3 -7 7v675h-492v-675c0 -4 -3 -7 -7 -7h-4c-4 0 -7 3 -7 7z" />
    <glyph glyph-name="lozenge" unicode="&#x25ca;" horiz-adv-x="658" 
d="M326 3l-216 335c-14 22 -14 22 0 43l216 336c1 2 3 4 5 4h2c2 0 4 -2 5 -4l212 -334c15 -23 15 -23 0 -46l-212 -334c-1 -2 -3 -4 -5 -4h-2c-2 0 -4 2 -5 4zM332 28l212 332l-212 331l-216 -331z" />
    <glyph glyph-name="uniF8FF" unicode="&#xf8ff;" horiz-adv-x="599" 
d="M50 30v640c0 21 9 30 30 30h439c21 0 30 -9 30 -30v-640c0 -21 -9 -30 -30 -30h-439c-21 0 -30 9 -30 30zM262 314c0 -7 7 -12 14 -12h36c9 0 15 4 15 13v26c0 48 105 63 105 150c0 65 -54 111 -125 111c-87 0 -130 -61 -130 -61c-4 -6 -6 -13 0 -18l22 -22
c6 -4 11 -4 17 0c13 12 36 41 84 41c40 0 61 -25 61 -52c0 -63 -99 -72 -99 -147v-29zM245 156c0 -26 22 -48 48 -48c27 0 49 22 49 48s-22 48 -49 48c-26 0 -48 -22 -48 -48z" />
    <glyph glyph-name="zero.tf" horiz-adv-x="604" 
d="M302 -11c-157 0 -247 133 -247 352c0 220 90 352 247 352s247 -132 247 -352c0 -219 -90 -352 -247 -352zM302 7c147 0 229 124 229 334s-82 334 -229 334s-229 -124 -229 -334s82 -334 229 -334z" />
    <glyph glyph-name="one.tf" horiz-adv-x="604" 
d="M126 0c-4 0 -6 3 -6 7v4c0 4 2 7 6 7h211v638l-196 -153c-3 -2 -6 -2 -8 1l-5 7c-1 2 -2 4 2 7l214 165c5 4 11 0 11 -6v-659h158c3 0 6 -3 6 -7v-4c0 -4 -3 -7 -6 -7h-387z" />
    <glyph glyph-name="two.tf" horiz-adv-x="604" 
d="M75 12l285 266c71 66 120 133 120 216c0 95 -69 181 -203 181c-112 0 -158 -93 -158 -93c-2 -4 -5 -4 -7 -3l-7 4c-3 2 -5 4 -2 9c0 0 52 100 174 100c146 0 221 -93 221 -198c0 -88 -51 -158 -126 -228l-265 -248h379c4 0 7 -3 7 -7v-4c0 -4 -3 -7 -7 -7h-406
c-7 0 -10 8 -5 12z" />
    <glyph glyph-name="three.tf" horiz-adv-x="604" 
d="M78 80c-3 4 -3 6 0 9l5 4c4 3 7 1 9 -1c22 -23 75 -84 190 -84c131 0 210 76 210 178c0 80 -70 159 -177 159h-135c-4 0 -7 3 -7 7v4c0 4 3 7 7 7h135c83 0 159 64 159 156c0 90 -69 156 -174 156c-121 0 -183 -83 -183 -83c-2 -3 -5 -4 -8 -2l-6 4c-3 2 -4 5 -2 8
c0 0 68 90 199 90c115 0 192 -73 192 -173c0 -79 -55 -143 -122 -164c83 -21 140 -95 140 -169c0 -111 -88 -196 -228 -196c-124 0 -181 65 -204 90z" />
    <glyph glyph-name="four.tf" horiz-adv-x="604" 
d="M32 159c-6 0 -9 6 -5 11l433 524c3 5 11 3 11 -4v-514h71c4 0 7 -2 7 -6v-4c0 -4 -3 -7 -7 -7h-71v-152c0 -4 -3 -7 -7 -7h-3c-4 0 -7 3 -7 7v152h-422zM55 176h399v484z" />
    <glyph glyph-name="five.tf" horiz-adv-x="604" 
d="M96 76c-3 4 -3 6 0 9l5 4c4 3 7 0 9 -2c24 -28 77 -79 182 -79c128 0 219 96 219 214c0 123 -75 190 -218 188h-181c-4 0 -7 3 -7 7v258c0 4 3 7 7 7h326c4 0 7 -3 7 -7v-3c0 -4 -3 -7 -7 -7h-315v-238h170c154 2 236 -72 236 -205c0 -128 -99 -232 -237 -232
c-112 0 -170 55 -196 86z" />
    <glyph glyph-name="six.tf" horiz-adv-x="604" 
d="M77 276c0 277 250 402 326 429c3 1 7 0 8 -3l2 -7c1 -4 0 -6 -4 -8c-70 -25 -284 -130 -312 -362c32 43 103 118 221 118c115 0 219 -86 219 -221c0 -129 -103 -232 -225 -232c-149 0 -235 126 -235 286zM94 276c0 -151 79 -268 218 -268c113 0 208 95 208 214
c0 125 -96 203 -202 203c-148 0 -218 -126 -224 -135v-14z" />
    <glyph glyph-name="seven.tf" horiz-adv-x="604" 
d="M212 9l288 656h-410c-4 0 -7 3 -7 7v3c0 4 3 7 7 7h426c5 0 8 -5 6 -9l-295 -672c-2 -4 -4 -5 -8 -3l-5 2c-4 2 -4 4 -2 9z" />
    <glyph glyph-name="eight.tf" horiz-adv-x="604" 
d="M79 175c0 89 69 153 180 172c-96 19 -162 80 -162 163c0 88 56 178 203 178s207 -90 207 -178c0 -83 -65 -144 -161 -163c111 -19 179 -78 179 -172c0 -129 -99 -185 -224 -185c-124 0 -222 56 -222 185zM302 359c106 6 187 60 187 151c0 80 -56 162 -189 162
s-185 -82 -185 -162c0 -91 81 -145 187 -151zM96 175c0 -117 90 -169 205 -169s207 52 207 169c0 87 -81 152 -206 161c-125 -9 -206 -67 -206 -161z" />
    <glyph glyph-name="nine.tf" horiz-adv-x="604" 
d="M191 -8c-1 4 0 6 4 8c70 25 284 130 312 362c-32 -43 -103 -118 -221 -118c-115 0 -219 86 -219 221c0 129 103 232 225 232c149 0 235 -126 235 -286c0 -277 -250 -402 -326 -429c-3 -1 -7 0 -8 3zM286 262c148 0 218 126 224 135v14c0 151 -79 268 -218 268
c-113 0 -208 -95 -208 -214c0 -125 96 -203 202 -203z" />
    <glyph glyph-name="zerosuperior" unicode="&#x2070;" horiz-adv-x="343" 
d="M171 494c-76 0 -121 61 -121 158c0 98 45 158 121 158s122 -60 122 -158c0 -97 -46 -158 -122 -158zM171 512c66 0 104 53 104 140c0 88 -38 141 -104 141c-65 0 -104 -53 -104 -141c0 -87 39 -140 104 -140z" />
    <glyph glyph-name="foursuperior" unicode="&#x2074;" horiz-adv-x="374" 
d="M255 504c-4 0 -7 3 -7 7v61h-192c-6 0 -9 6 -5 11l203 223c5 4 12 2 12 -5v-212h50c4 0 7 -3 7 -7v-4c0 -3 -3 -6 -7 -6h-50v-61c0 -4 -3 -7 -7 -7h-4zM78 589h170v185z" />
    <glyph glyph-name="fivesuperior" unicode="&#x2075;" horiz-adv-x="324" 
d="M152 494c-58 0 -85 26 -99 39c-3 3 -3 7 0 10l4 4c3 3 7 3 10 0c11 -12 33 -35 85 -35c61 0 104 40 104 87c0 49 -35 79 -104 78h-86c-4 0 -7 3 -7 7v109c0 4 3 7 7 7h160c4 0 7 -3 7 -7v-4c0 -4 -3 -7 -7 -7h-149v-87h75c80 1 122 -36 122 -96c0 -57 -52 -105 -122 -105
z" />
    <glyph glyph-name="sixsuperior" unicode="&#x2076;" horiz-adv-x="330" 
d="M169 494c-75 0 -119 59 -119 132c0 125 123 180 161 193c3 1 7 -1 8 -4l2 -7c0 -3 -1 -6 -4 -7c-32 -11 -124 -52 -145 -139c19 18 50 42 100 42c57 0 108 -40 108 -103c0 -59 -50 -107 -111 -107zM169 512c50 0 93 40 93 89c0 52 -43 84 -90 84c-71 0 -102 -54 -102 -54
v-2c0 -64 35 -117 99 -117z" />
    <glyph glyph-name="sevensuperior" unicode="&#x2077;" horiz-adv-x="308" 
d="M92 502l-7 4c-3 1 -3 4 -1 8l148 268h-176c-3 0 -6 3 -6 7v4c0 4 3 7 6 7h195c6 0 8 -5 6 -10l-157 -285c-2 -4 -4 -5 -8 -3z" />
    <glyph glyph-name="eightsuperior" unicode="&#x2078;" horiz-adv-x="327" 
d="M164 494c-62 0 -114 25 -114 84c0 38 28 67 75 78c-39 11 -65 37 -65 71c0 43 29 83 103 83c73 0 105 -40 105 -83c0 -34 -26 -60 -66 -71c48 -11 75 -40 75 -78c0 -59 -52 -84 -113 -84zM164 668c50 2 85 25 85 59c0 35 -28 67 -86 67c-59 0 -84 -32 -84 -67
c0 -34 35 -57 85 -59zM164 510c50 0 93 21 93 68c0 38 -35 63 -93 66c-58 -3 -93 -28 -93 -66c0 -47 43 -68 93 -68z" />
    <glyph glyph-name="ninesuperior" unicode="&#x2079;" horiz-adv-x="330" 
d="M119 485c-3 -1 -7 1 -8 4l-2 7c0 3 1 6 4 7c32 11 124 52 145 139c-19 -18 -50 -42 -100 -42c-57 0 -108 40 -108 103c0 59 50 107 111 107c75 0 119 -59 119 -132c0 -125 -123 -180 -161 -193zM158 619c71 0 102 54 102 54v2c0 64 -35 117 -99 117
c-50 0 -93 -40 -93 -89c0 -52 43 -84 90 -84z" />
    <glyph glyph-name="zeroinferior" unicode="&#x2080;" horiz-adv-x="343" 
d="M50 -2c0 98 45 158 121 158s122 -60 122 -158c0 -97 -46 -158 -122 -158s-121 61 -121 158zM67 -2c0 -87 39 -140 104 -140c66 0 104 53 104 140c0 88 -38 141 -104 141c-65 0 -104 -53 -104 -141z" />
    <glyph glyph-name="oneinferior" unicode="&#x2081;" horiz-adv-x="187" 
d="M56 83l-5 7c-1 2 -2 4 2 7l73 53c5 4 11 0 11 -6v-287c0 -4 -3 -7 -7 -7h-4c-4 0 -7 3 -7 7v266l-55 -41c-3 -2 -6 -2 -8 1z" />
    <glyph glyph-name="twoinferior" unicode="&#x2082;" horiz-adv-x="309" 
d="M72 99l-5 4c-1 1 -5 3 -2 8c0 0 27 45 90 45c67 0 104 -44 104 -91c0 -40 -26 -74 -62 -104l-112 -93h165c3 0 6 -3 6 -7v-4c0 -4 -3 -7 -6 -7h-192c-7 0 -10 8 -5 12l132 110c30 25 56 55 56 93c0 37 -31 73 -86 73c-53 0 -74 -36 -74 -36c-2 -4 -6 -5 -9 -3z" />
    <glyph glyph-name="threeinferior" unicode="&#x2083;" horiz-adv-x="324" 
d="M100 -1v4c0 4 3 7 7 7h65c43 0 74 29 74 65c0 39 -31 63 -81 63c-59 0 -87 -36 -87 -36c-2 -2 -5 -3 -7 -1l-5 4c-5 4 -4 6 -2 9c0 0 34 42 101 42c60 0 100 -30 100 -81c0 -31 -25 -61 -52 -73c36 -12 61 -43 61 -75c0 -50 -46 -87 -114 -87c-61 0 -95 31 -107 42
c-3 3 -3 7 0 10l3 3c3 3 7 3 10 0c10 -9 36 -37 95 -37c58 0 94 29 94 69c0 35 -31 65 -83 65h-65c-4 0 -7 3 -7 7z" />
    <glyph glyph-name="fourinferior" unicode="&#x2084;" horiz-adv-x="374" 
d="M51 -71l203 223c5 4 12 2 12 -5v-212h50c4 0 7 -3 7 -7v-4c0 -3 -3 -6 -7 -6h-50v-61c0 -4 -3 -7 -7 -7h-4c-4 0 -7 3 -7 7v61h-192c-6 0 -9 6 -5 11zM78 -65h170v185z" />
    <glyph glyph-name="fiveinferior" unicode="&#x2085;" horiz-adv-x="324" 
d="M59 30v109c0 4 3 7 7 7h160c4 0 7 -3 7 -7v-4c0 -4 -3 -7 -7 -7h-149v-87h75c80 1 122 -36 122 -96c0 -57 -52 -105 -122 -105c-58 0 -85 26 -99 39c-3 3 -3 7 0 10l4 4c3 3 7 3 10 0c11 -12 33 -35 85 -35c61 0 104 40 104 87c0 49 -35 79 -104 78h-86c-4 0 -7 3 -7 7z
" />
    <glyph glyph-name="sixinferior" unicode="&#x2086;" horiz-adv-x="330" 
d="M50 -28c0 125 123 180 161 193c3 1 7 -1 8 -4l2 -7c0 -3 -1 -6 -4 -7c-32 -11 -124 -52 -145 -139c19 18 50 42 100 42c57 0 108 -40 108 -103c0 -59 -50 -107 -111 -107c-75 0 -119 59 -119 132zM70 -23v-2c0 -64 35 -117 99 -117c50 0 93 40 93 89c0 52 -43 84 -90 84
c-71 0 -102 -54 -102 -54z" />
    <glyph glyph-name="seveninferior" unicode="&#x2087;" horiz-adv-x="308" 
d="M56 128c-3 0 -6 3 -6 7v4c0 4 3 7 6 7h195c6 0 8 -5 6 -10l-157 -285c-2 -4 -4 -5 -8 -3l-7 4c-3 1 -3 4 -1 8l148 268h-176z" />
    <glyph glyph-name="eightinferior" unicode="&#x2088;" horiz-adv-x="327" 
d="M50 -76c0 38 28 67 75 78c-39 11 -65 37 -65 71c0 43 29 83 103 83c73 0 105 -40 105 -83c0 -34 -26 -60 -66 -71c48 -11 75 -40 75 -78c0 -59 -52 -84 -113 -84c-62 0 -114 25 -114 84zM79 73c0 -34 35 -57 85 -59c50 2 85 25 85 59c0 35 -28 67 -86 67
c-59 0 -84 -32 -84 -67zM71 -76c0 -47 43 -68 93 -68s93 21 93 68c0 38 -35 63 -93 66c-58 -3 -93 -28 -93 -66z" />
    <glyph glyph-name="nineinferior" unicode="&#x2089;" horiz-adv-x="330" 
d="M50 49c0 59 50 107 111 107c75 0 119 -59 119 -132c0 -125 -123 -180 -161 -193c-3 -1 -7 1 -8 4l-2 7c0 3 1 6 4 7c32 11 124 52 145 139c-19 -18 -50 -42 -100 -42c-57 0 -108 40 -108 103zM68 49c0 -52 43 -84 90 -84c71 0 102 54 102 54v2c0 64 -35 117 -99 117
c-50 0 -93 -40 -93 -89z" />
    <glyph glyph-name="zero.denom" horiz-adv-x="343" 
d="M50 148c0 98 45 158 121 158s122 -60 122 -158c0 -97 -46 -158 -122 -158s-121 61 -121 158zM67 148c0 -87 39 -140 104 -140c66 0 104 53 104 140c0 88 -38 141 -104 141c-65 0 -104 -53 -104 -141z" />
    <glyph glyph-name="one.denom" horiz-adv-x="187" 
d="M119 7v266l-55 -41c-3 -2 -6 -2 -8 1l-5 7c-1 2 -2 4 2 7l73 53c5 4 11 0 11 -6v-287c0 -4 -3 -7 -7 -7h-4c-4 0 -7 3 -7 7z" />
    <glyph glyph-name="two.denom" horiz-adv-x="309" 
d="M53 12l132 110c30 25 56 55 56 93c0 37 -31 73 -86 73c-53 0 -74 -36 -74 -36c-2 -4 -6 -5 -9 -3l-5 4c-1 1 -5 3 -2 8c0 0 27 45 90 45c67 0 104 -44 104 -91c0 -40 -26 -74 -62 -104l-112 -93h165c3 0 6 -3 6 -7v-4c0 -4 -3 -7 -6 -7h-192c-7 0 -10 8 -5 12z" />
    <glyph glyph-name="three.denom" horiz-adv-x="324" 
d="M53 32c-3 3 -3 7 0 10l3 3c3 3 7 3 10 0c10 -9 36 -37 95 -37c58 0 94 29 94 69c0 35 -31 65 -83 65h-65c-4 0 -7 3 -7 7v4c0 4 3 7 7 7h65c43 0 74 29 74 65c0 39 -31 63 -81 63c-59 0 -87 -36 -87 -36c-2 -2 -5 -3 -7 -1l-5 4c-5 4 -4 6 -2 9c0 0 34 42 101 42
c60 0 100 -30 100 -81c0 -31 -25 -61 -52 -73c36 -12 61 -43 61 -75c0 -50 -46 -87 -114 -87c-61 0 -95 31 -107 42z" />
    <glyph glyph-name="four.denom" horiz-adv-x="374" 
d="M56 68c-6 0 -9 6 -5 11l203 223c5 4 12 2 12 -5v-212h50c4 0 7 -3 7 -7v-4c0 -3 -3 -6 -7 -6h-50v-61c0 -4 -3 -7 -7 -7h-4c-4 0 -7 3 -7 7v61h-192zM78 85h170v185z" />
    <glyph glyph-name="five.denom" horiz-adv-x="324" 
d="M53 29c-3 3 -3 7 0 10l4 4c3 3 7 3 10 0c11 -12 33 -35 85 -35c61 0 104 40 104 87c0 49 -35 79 -104 78h-86c-4 0 -7 3 -7 7v109c0 4 3 7 7 7h160c4 0 7 -3 7 -7v-4c0 -4 -3 -7 -7 -7h-149v-87h75c80 1 122 -36 122 -96c0 -57 -52 -105 -122 -105c-58 0 -85 26 -99 39z
" />
    <glyph glyph-name="six.denom" horiz-adv-x="330" 
d="M50 122c0 125 123 180 161 193c3 1 7 -1 8 -4l2 -7c0 -3 -1 -6 -4 -7c-32 -11 -124 -52 -145 -139c19 18 50 42 100 42c57 0 108 -40 108 -103c0 -59 -50 -107 -111 -107c-75 0 -119 59 -119 132zM70 125c0 -64 35 -117 99 -117c50 0 93 40 93 89c0 52 -43 84 -90 84
c-71 0 -102 -54 -102 -54v-2z" />
    <glyph glyph-name="seven.denom" horiz-adv-x="308" 
d="M84 10l148 268h-176c-3 0 -6 3 -6 7v4c0 4 3 7 6 7h195c6 0 8 -5 6 -10l-157 -285c-2 -4 -4 -5 -8 -3l-7 4c-3 1 -3 4 -1 8z" />
    <glyph glyph-name="eight.denom" horiz-adv-x="327" 
d="M50 74c0 38 28 67 75 78c-39 11 -65 37 -65 71c0 43 29 83 103 83c73 0 105 -40 105 -83c0 -34 -26 -60 -66 -71c48 -11 75 -40 75 -78c0 -59 -52 -84 -113 -84c-62 0 -114 25 -114 84zM164 164c50 2 85 25 85 59c0 35 -28 67 -86 67c-59 0 -84 -32 -84 -67
c0 -34 35 -57 85 -59zM71 74c0 -47 43 -68 93 -68s93 21 93 68c0 38 -35 63 -93 66c-58 -3 -93 -28 -93 -66z" />
    <glyph glyph-name="nine.denom" horiz-adv-x="330" 
d="M109 -8c0 3 1 6 4 7c32 11 124 52 145 139c-19 -18 -50 -42 -100 -42c-57 0 -108 40 -108 103c0 59 50 107 111 107c75 0 119 -59 119 -132c0 -125 -123 -180 -161 -193c-3 -1 -7 1 -8 4zM158 115c71 0 102 54 102 54v2c0 64 -35 117 -99 117c-50 0 -93 -40 -93 -89
c0 -52 43 -84 90 -84z" />
    <glyph glyph-name="zero.num" horiz-adv-x="343" 
d="M171 394c-76 0 -121 61 -121 158c0 98 45 158 121 158s122 -60 122 -158c0 -97 -46 -158 -122 -158zM171 412c66 0 104 53 104 140c0 88 -38 141 -104 141c-65 0 -104 -53 -104 -141c0 -87 39 -140 104 -140z" />
    <glyph glyph-name="one.num" horiz-adv-x="187" 
d="M126 404c-4 0 -7 3 -7 7v266l-55 -41c-3 -2 -6 -2 -8 1l-5 7c-1 2 -2 4 2 7l73 53c5 4 11 0 11 -6v-287c0 -4 -3 -7 -7 -7h-4z" />
    <glyph glyph-name="two.num" horiz-adv-x="309" 
d="M58 404c-7 0 -10 8 -5 12l132 110c30 25 56 55 56 93c0 37 -31 73 -86 73c-53 0 -74 -36 -74 -36c-2 -4 -6 -5 -9 -3l-5 4c-1 1 -5 3 -2 8c0 0 27 45 90 45c67 0 104 -44 104 -91c0 -40 -26 -74 -62 -104l-112 -93h165c3 0 6 -3 6 -7v-4c0 -4 -3 -7 -6 -7h-192z" />
    <glyph glyph-name="three.num" horiz-adv-x="324" 
d="M160 394c-61 0 -95 31 -107 42c-3 3 -3 7 0 10l3 3c3 3 7 3 10 0c10 -9 36 -37 95 -37c58 0 94 29 94 69c0 35 -31 65 -83 65h-65c-4 0 -7 3 -7 7v4c0 4 3 7 7 7h65c43 0 74 29 74 65c0 39 -31 63 -81 63c-59 0 -87 -36 -87 -36c-2 -2 -5 -3 -7 -1l-5 4c-5 4 -4 6 -2 9
c0 0 34 42 101 42c60 0 100 -30 100 -81c0 -31 -25 -61 -52 -73c36 -12 61 -43 61 -75c0 -50 -46 -87 -114 -87z" />
    <glyph glyph-name="four.num" horiz-adv-x="374" 
d="M56 472c-6 0 -9 6 -5 11l203 223c5 4 12 2 12 -5v-212h50c4 0 7 -3 7 -7v-4c0 -3 -3 -6 -7 -6h-50v-61c0 -4 -3 -7 -7 -7h-4c-4 0 -7 3 -7 7v61h-192zM78 489h170v185z" />
    <glyph glyph-name="five.num" horiz-adv-x="324" 
d="M152 394c-58 0 -85 26 -99 39c-3 3 -3 7 0 10l4 4c3 3 7 3 10 0c11 -12 33 -35 85 -35c61 0 104 40 104 87c0 49 -35 79 -104 78h-86c-4 0 -7 3 -7 7v109c0 4 3 7 7 7h160c4 0 7 -3 7 -7v-4c0 -4 -3 -7 -7 -7h-149v-87h75c80 1 122 -36 122 -96c0 -57 -52 -105 -122 -105
z" />
    <glyph glyph-name="six.num" horiz-adv-x="330" 
d="M169 394c-75 0 -119 59 -119 132c0 125 123 180 161 193c3 1 7 -1 8 -4l2 -7c0 -3 -1 -6 -4 -7c-32 -11 -124 -52 -145 -139c19 18 50 42 100 42c57 0 108 -40 108 -103c0 -59 -50 -107 -111 -107zM169 412c50 0 93 40 93 89c0 52 -43 84 -90 84c-71 0 -102 -54 -102 -54
v-2c0 -64 35 -117 99 -117z" />
    <glyph glyph-name="seven.num" horiz-adv-x="308" 
d="M92 402l-7 4c-3 1 -3 4 -1 8l148 268h-176c-3 0 -6 3 -6 7v4c0 4 3 7 6 7h195c6 0 8 -5 6 -10l-157 -285c-2 -4 -4 -5 -8 -3z" />
    <glyph glyph-name="eight.num" horiz-adv-x="327" 
d="M164 394c-62 0 -114 25 -114 84c0 38 28 67 75 78c-39 11 -65 37 -65 71c0 43 29 83 103 83c73 0 105 -40 105 -83c0 -34 -26 -60 -66 -71c48 -11 75 -40 75 -78c0 -59 -52 -84 -113 -84zM164 568c50 2 85 25 85 59c0 35 -28 67 -86 67c-59 0 -84 -32 -84 -67
c0 -34 35 -57 85 -59zM164 410c50 0 93 21 93 68c0 38 -35 63 -93 66c-58 -3 -93 -28 -93 -66c0 -47 43 -68 93 -68z" />
    <glyph glyph-name="nine.num" horiz-adv-x="330" 
d="M119 385c-3 -1 -7 1 -8 4l-2 7c0 3 1 6 4 7c32 11 124 52 145 139c-19 -18 -50 -42 -100 -42c-57 0 -108 40 -108 103c0 59 50 107 111 107c75 0 119 -59 119 -132c0 -125 -123 -180 -161 -193zM158 519c71 0 102 54 102 54v2c0 64 -35 117 -99 117
c-50 0 -93 -40 -93 -89c0 -52 43 -84 90 -84z" />
    <glyph glyph-name="a.alt" 
d="M410 393v-386c0 -4 -3 -7 -6 -7h-4c-4 0 -7 3 -7 7v48c-24 -27 -71 -65 -150 -65c-105 0 -191 94 -191 212s89 208 202 208c73 0 115 -34 139 -55v38c0 4 3 7 7 7h4c3 0 6 -3 6 -7zM393 83v245c-5 7 -47 64 -139 64c-103 0 -185 -82 -185 -190s79 -194 174 -194
c101 0 146 68 150 75z" />
    <glyph glyph-name="agrave.alt" 
d="M410 393v-386c0 -4 -3 -7 -6 -7h-4c-4 0 -7 3 -7 7v48c-24 -27 -71 -65 -150 -65c-105 0 -191 94 -191 212s89 208 202 208c73 0 115 -34 139 -55v38c0 4 3 7 7 7h4c3 0 6 -3 6 -7zM393 83v245c-5 7 -47 64 -139 64c-103 0 -185 -82 -185 -190s79 -194 174 -194
c101 0 146 68 150 75zM350 560l-182 90c-4 2 -5 5 -3 9l2 4c3 5 6 4 9 3l182 -91c4 -2 4 -5 3 -7l-2 -5c-2 -4 -4 -5 -9 -3z" />
    <glyph glyph-name="aacute.alt" 
d="M410 393v-386c0 -4 -3 -7 -6 -7h-4c-4 0 -7 3 -7 7v48c-24 -27 -71 -65 -150 -65c-105 0 -191 94 -191 212s89 208 202 208c73 0 115 -34 139 -55v38c0 4 3 7 7 7h4c3 0 6 -3 6 -7zM393 83v245c-5 7 -47 64 -139 64c-103 0 -185 -82 -185 -190s79 -194 174 -194
c101 0 146 68 150 75zM174 560c-5 -2 -7 -1 -9 3l-2 5c-1 2 -1 5 3 7l182 91c3 1 6 2 9 -3l2 -4c2 -4 1 -7 -3 -9z" />
    <glyph glyph-name="acircumflex.alt" 
d="M410 393v-386c0 -4 -3 -7 -6 -7h-4c-4 0 -7 3 -7 7v48c-24 -27 -71 -65 -150 -65c-105 0 -191 94 -191 212s89 208 202 208c73 0 115 -34 139 -55v38c0 4 3 7 7 7h4c3 0 6 -3 6 -7zM393 83v245c-5 7 -47 64 -139 64c-103 0 -185 -82 -185 -190s79 -194 174 -194
c101 0 146 68 150 75zM135 548c-4 -3 -6 0 -7 1l-4 5c-2 3 -1 5 2 8l129 106c2 2 6 2 8 0l129 -106c3 -3 4 -5 2 -8l-4 -5c-1 -1 -3 -4 -7 -1l-124 101z" />
    <glyph glyph-name="atilde.alt" 
d="M410 393v-386c0 -4 -3 -7 -6 -7h-4c-4 0 -7 3 -7 7v48c-24 -27 -71 -65 -150 -65c-105 0 -191 94 -191 212s89 208 202 208c73 0 115 -34 139 -55v38c0 4 3 7 7 7h4c3 0 6 -3 6 -7zM393 83v245c-5 7 -47 64 -139 64c-103 0 -185 -82 -185 -190s79 -194 174 -194
c101 0 146 68 150 75zM126 583l-8 2c-4 1 -5 4 -3 9c6 19 27 84 86 84c45 0 59 -37 69 -61c8 -19 21 -46 53 -46c45 0 63 55 68 72c1 4 4 6 7 5l8 -2c4 -1 5 -4 3 -9c-6 -18 -27 -84 -86 -84c-45 0 -62 38 -71 60c-7 17 -18 48 -51 48c-45 0 -63 -56 -68 -73
c-1 -4 -4 -6 -7 -5z" />
    <glyph glyph-name="adieresis.alt" 
d="M410 393v-386c0 -4 -3 -7 -6 -7h-4c-4 0 -7 3 -7 7v48c-24 -27 -71 -65 -150 -65c-105 0 -191 94 -191 212s89 208 202 208c73 0 115 -34 139 -55v38c0 4 3 7 7 7h4c3 0 6 -3 6 -7zM393 83v245c-5 7 -47 64 -139 64c-103 0 -185 -82 -185 -190s79 -194 174 -194
c101 0 146 68 150 75zM357 607c-12 0 -20 9 -20 20c0 12 8 21 20 21s21 -9 21 -21c0 -11 -9 -20 -21 -20zM168 607c-12 0 -21 9 -21 20c0 12 9 21 21 21s20 -9 20 -21c0 -11 -8 -20 -20 -20z" />
    <glyph glyph-name="amacron.alt" 
d="M410 393v-386c0 -4 -3 -7 -6 -7h-4c-4 0 -7 3 -7 7v48c-24 -27 -71 -65 -150 -65c-105 0 -191 94 -191 212s89 208 202 208c73 0 115 -34 139 -55v38c0 4 3 7 7 7h4c3 0 6 -3 6 -7zM393 83v245c-5 7 -47 64 -139 64c-103 0 -185 -82 -185 -190s79 -194 174 -194
c101 0 146 68 150 75zM114 607c-4 0 -7 3 -7 7v4c0 4 3 7 7 7h288c4 0 7 -3 7 -7v-4c0 -4 -3 -7 -7 -7h-288z" />
    <glyph glyph-name="abreve.alt" 
d="M410 393v-386c0 -4 -3 -7 -6 -7h-4c-4 0 -7 3 -7 7v48c-24 -27 -71 -65 -150 -65c-105 0 -191 94 -191 212s89 208 202 208c73 0 115 -34 139 -55v38c0 4 3 7 7 7h4c3 0 6 -3 6 -7zM393 83v245c-5 7 -47 64 -139 64c-103 0 -185 -82 -185 -190s79 -194 174 -194
c101 0 146 68 150 75zM261 545c-67 0 -118 47 -127 107c-1 4 3 8 6 8h5c3 0 5 -3 5 -6c8 -54 54 -93 111 -93c56 0 102 39 111 93c0 3 2 6 5 6h5c3 0 7 -4 6 -8c-10 -60 -61 -107 -127 -107z" />
    <glyph glyph-name="aring.alt" 
d="M410 393v-386c0 -4 -3 -7 -6 -7h-4c-4 0 -7 3 -7 7v48c-24 -27 -71 -65 -150 -65c-105 0 -191 94 -191 212s89 208 202 208c73 0 115 -34 139 -55v38c0 4 3 7 7 7h4c3 0 6 -3 6 -7zM393 83v245c-5 7 -47 64 -139 64c-103 0 -185 -82 -185 -190s79 -194 174 -194
c101 0 146 68 150 75zM263 500c-59 0 -104 45 -104 104c0 58 45 104 104 104c58 0 104 -46 104 -104c0 -59 -46 -104 -104 -104zM263 516c47 0 87 40 87 88c0 47 -40 88 -87 88c-48 0 -87 -41 -87 -88c0 -48 39 -88 87 -88z" />
    <glyph glyph-name="aringacute.alt" 
d="M410 393v-386c0 -4 -3 -7 -6 -7h-4c-4 0 -7 3 -7 7v48c-24 -27 -71 -65 -150 -65c-105 0 -191 94 -191 212s89 208 202 208c73 0 115 -34 139 -55v38c0 4 3 7 7 7h4c3 0 6 -3 6 -7zM393 83v245c-5 7 -47 64 -139 64c-103 0 -185 -82 -185 -190s79 -194 174 -194
c101 0 146 68 150 75zM264 436c-59 0 -104 45 -104 104c0 58 45 104 104 104c58 0 104 -46 104 -104c0 -59 -46 -104 -104 -104zM264 452c47 0 87 40 87 88c0 47 -40 88 -87 88c-48 0 -87 -41 -87 -88c0 -48 39 -88 87 -88zM176 641c-5 -2 -7 -1 -9 3l-2 5c-1 2 -1 5 3 7
l182 91c3 1 6 2 9 -3l2 -4c2 -4 1 -7 -3 -9z" />
    <glyph glyph-name="aogonek.alt" 
d="M294 -127c0 82 82 130 99 139v43c-24 -27 -71 -65 -150 -65c-105 0 -191 94 -191 212s89 208 202 208c73 0 115 -34 139 -55v38c0 4 3 7 7 7h4c3 0 6 -3 6 -7v-386c0 -5 -4 -7 -6 -8c0 0 -92 -46 -92 -126c0 -56 45 -76 91 -76c34 0 60 10 68 14c4 2 6 2 8 -2l3 -6
c2 -4 -1 -7 -3 -8c-11 -5 -38 -16 -76 -16c-56 0 -109 25 -109 94zM393 83v245c-5 7 -47 64 -139 64c-103 0 -185 -82 -185 -190s79 -194 174 -194c101 0 146 68 150 75z" />
    <glyph glyph-name="parenleft.case" horiz-adv-x="344" 
d="M309 -31c4 0 7 -3 7 -7v-4c0 -3 -3 -6 -7 -6c-116 5 -241 100 -241 394s125 388 241 394c4 0 7 -3 7 -7v-4c0 -4 -3 -7 -7 -7c-108 -6 -223 -95 -223 -376c0 -282 115 -371 223 -377z" />
    <glyph glyph-name="parenright.case" horiz-adv-x="344" 
d="M35 -31c108 6 223 95 223 377c0 281 -115 370 -223 376c-4 0 -7 3 -7 7v4c0 4 3 7 7 7c116 -6 241 -100 241 -394s-125 -389 -241 -394c-4 0 -7 3 -7 6v4c0 4 3 7 7 7z" />
    <glyph glyph-name="hyphen.case" horiz-adv-x="597" 
d="M177 333c-4 0 -6 3 -6 7v4c0 4 2 7 6 7h243c3 0 6 -3 6 -7v-4c0 -4 -3 -7 -6 -7h-243z" />
    <glyph glyph-name="bracketleft.case" horiz-adv-x="333" 
d="M106 -162h192c4 0 7 -3 7 -7v-4c0 -4 -3 -7 -7 -7h-203c-4 0 -7 3 -7 7v986c0 4 3 7 7 7h203c4 0 7 -3 7 -7v-4c0 -4 -3 -7 -7 -7h-192v-964z" />
    <glyph glyph-name="bracketright.case" horiz-adv-x="333" 
d="M35 -162h192v964h-192c-4 0 -7 3 -7 7v4c0 4 3 7 7 7h203c4 0 7 -3 7 -7v-986c0 -4 -3 -7 -7 -7h-203c-4 0 -7 3 -7 7v4c0 4 3 7 7 7z" />
    <glyph glyph-name="braceleft.case" horiz-adv-x="333" 
d="M108 55v168c0 60 -47 91 -73 91c-4 0 -7 2 -7 7v4c0 4 3 7 7 7c23 0 73 29 73 91v165c0 185 84 242 190 242c4 0 7 -3 7 -7v-4c0 -4 -3 -7 -7 -7c-96 0 -172 -53 -172 -224v-165c0 -52 -32 -85 -60 -100c28 -15 60 -48 60 -100v-168c0 -171 76 -227 172 -227
c4 0 7 -3 7 -7v-4c0 -4 -3 -7 -7 -7c-106 0 -190 60 -190 245z" />
    <glyph glyph-name="bar.case" horiz-adv-x="192" 
d="M87 -173v1045c0 4 3 7 7 7h4c4 0 7 -3 7 -7v-1045c0 -4 -3 -7 -7 -7h-4c-4 0 -7 3 -7 7z" />
    <glyph glyph-name="braceright.case" horiz-adv-x="333" 
d="M207 55v168c0 52 32 85 60 100c-28 15 -60 48 -60 100v165c0 171 -76 224 -172 224c-4 0 -7 3 -7 7v4c0 4 3 7 7 7c106 0 190 -57 190 -242v-165c0 -62 50 -91 73 -91c4 0 7 -3 7 -7v-4c0 -5 -3 -7 -7 -7c-26 0 -73 -31 -73 -91v-168c0 -185 -84 -245 -190 -245
c-4 0 -7 3 -7 7v4c0 4 3 7 7 7c96 0 172 56 172 227z" />
    <glyph glyph-name="guilsinglleft.case" horiz-adv-x="230" 
d="M158 152l-122 172c-2 3 -2 5 0 8l122 170c2 3 5 4 9 2l5 -3c4 -2 4 -5 2 -8l-117 -165l117 -167c2 -3 2 -6 -2 -8l-5 -3c-4 -2 -7 -1 -9 2z" />
    <glyph glyph-name="guilsinglright.case" horiz-adv-x="230" 
d="M58 153c-4 2 -4 5 -2 8l117 167l-117 165c-2 3 -2 6 2 8l5 3c4 2 7 1 9 -2l122 -170c2 -3 2 -5 0 -8l-122 -172c-2 -3 -5 -4 -9 -2z" />
    <glyph glyph-name="guillemotleft.case" horiz-adv-x="390" 
d="M196 324c-2 3 -2 5 0 8l122 170c2 3 5 4 9 2l5 -3c4 -2 4 -5 2 -8l-117 -165l117 -167c2 -3 2 -6 -2 -8l-5 -3c-4 -2 -7 -1 -9 2zM158 152l-122 172c-2 3 -2 5 0 8l122 170c2 3 5 4 9 2l5 -3c4 -2 4 -5 2 -8l-117 -165l117 -167c2 -3 2 -6 -2 -8l-5 -3c-4 -2 -7 -1 -9 2z
" />
    <glyph glyph-name="guillemotright.case" horiz-adv-x="390" 
d="M216 161l117 167l-117 165c-2 3 -2 6 2 8l5 3c4 2 7 1 9 -2l122 -170c2 -3 2 -5 0 -8l-122 -172c-2 -3 -5 -4 -9 -2l-5 3c-4 2 -4 5 -2 8zM58 153c-4 2 -4 5 -2 8l117 167l-117 165c-2 3 -2 6 2 8l5 3c4 2 7 1 9 -2l122 -170c2 -3 2 -5 0 -8l-122 -172c-2 -3 -5 -4 -9 -2
z" />
    <glyph glyph-name="endash.case" horiz-adv-x="739" 
d="M170 333c-4 0 -7 3 -7 7v4c0 4 3 7 7 7h399c4 0 7 -3 7 -7v-4c0 -4 -3 -7 -7 -7h-399z" />
    <glyph glyph-name="emdash.case" horiz-adv-x="955" 
d="M170 333c-4 0 -7 3 -7 7v4c0 4 3 7 7 7h615c4 0 7 -3 7 -7v-4c0 -4 -3 -7 -7 -7h-615z" />
    <glyph glyph-name="bullet.case" horiz-adv-x="354" 
d="M176 279c-21 0 -37 17 -37 37c0 22 16 39 37 39c22 0 39 -17 39 -39c0 -20 -17 -37 -39 -37z" />
    <glyph glyph-name="periodcentered.case" horiz-adv-x="258" 
d="M129 328c-13 0 -24 11 -24 24s11 23 24 23c14 0 24 -10 24 -23s-10 -24 -24 -24z" />
    <glyph glyph-name="brokenbar" unicode="&#xa6;" horiz-adv-x="358" 
d="M177 384c-4 0 -7 3 -7 7v361c0 4 3 7 7 7h4c4 0 7 -3 7 -7v-361c0 -4 -3 -7 -7 -7h-4zM170 69c0 3 3 6 7 6h4c4 0 7 -3 7 -6v-361c0 -4 -3 -7 -7 -7h-4c-4 0 -7 3 -7 7v361z" />
    </font>
</defs>
</svg>
